{
.appVersion = "965";
copyright = "Copyright 2017 Google Inc. All Rights Reserved.";
customParameters = (
{
name = glyphOrder;
value = (
.notdef,
NULL,
CR,
space,
"koKai-lao",
"khoKhai-lao",
"khoKhuay-lao",
"ngoNgu-lao",
"coCok-lao",
"soSang-lao",
"nyoNyung-lao",
"doDek-lao",
"toTa-lao",
"thoThong-lao",
"thoThung-lao",
"noNok-lao",
"boBae-lao",
"poPa-lao",
"phoPhueng-lao",
"foFon-lao",
"phoPhu-lao",
"foFai-lao",
"moMa-lao",
"yoYa-lao",
"roRot-lao",
"loLing-lao",
"woWi-lao",
"soSeua-lao",
"hoHaan-lao",
"oO-lao",
"hoHeuan-lao",
"khmuGo-lao",
"khmuNyo-lao",
"aVowel-lao",
"aaVowel-lao",
"amVowel-lao",
"nyoVowel-lao",
"eVowel-lao",
"aeVowel-lao",
"oVowel-lao",
"ayMaiMuanVowel-lao",
"aiMaiMayVowel-lao",
"amVowel-lao.narrow",
"hoNo-lao",
"hoMo-lao",
"zero-lao",
"one-lao",
"two-lao",
"three-lao",
"four-lao",
"five-lao",
"six-lao",
"seven-lao",
"eight-lao",
"nine-lao",
"koLa-lao",
"ellipsis-lao",
kip,
"maiKanVowel-lao",
"iVowel-lao",
"iiVowel-lao",
"euVowel-lao",
"euuVowel-lao",
"maiKonVowel-lao",
"uVowel-lao",
"uuVowel-lao",
"loVowel-lao",
"maiEk-lao",
"maiTho-lao",
"maiTi-lao",
"maiCatawa-lao",
"karan-lao",
"niggahita-lao",
"niggahita_maiEk-lao",
"niggahita_maiTho-lao",
"niggahita_maiTi-lao",
"niggahita_maiCatawa-lao",
"maiEk-lao.small",
"maiTho-lao.small",
"maiTi-lao.small",
"maiCatawa-lao.small",
"karan-lao.small",
"maiKanVowel-lao.narrow",
"iVowel-lao.narrow",
"iiVowel-lao.narrow",
"euVowel-lao.narrow",
"euuVowel-lao.narrow",
"maiKonVowel-lao.narrow",
"uVowel-lao.narrow",
"uuVowel-lao.narrow",
"loVowel-lao.narrow",
"maiEk-lao.narrow",
"maiTho-lao.narrow",
"maiTi-lao.narrow",
"maiCatawa-lao.narrow",
"karan-lao.narrow",
"niggahita_maiEk-lao.right",
"niggahita_maiTho-lao.right",
"niggahita_maiTi-lao.right",
"niggahita_maiCatawa-lao.right",
"uVowel-lao.small",
"uuVowel-lao.small",
uni00A0,
uni200B,
uni200C,
uni200D,
uni25CC
);
},
{
name = licenseURL;
value = "http://scripts.sil.org/OFL";
},
{
name = vendorID;
value = GOOG;
},
{
name = unicodeRanges;
value = (
0,
1,
25,

glyphs = (
{
glyphname = .notdef;
lastChange = "2017-01-30 17:18:59 +0000";
layers = (
{
layerId = "169B4CCF-67AF-4042-AA6F-C8E438F95C30";
paths = (
{
closed = 1;
nodes = (
"450 0 LINE",
"450 714 LINE",
"50 714 LINE",
"50 0 LINE"
);
},
{
closed = 1;
nodes = (
"98 666 LINE",
"402 666 LINE",
"402 48 LINE",
"98 48 LINE"
);
}
);
width = 500;
},
{
layerId = "A12FF52C-901E-4F1C-B651-FD65F325A5D0";
paths = (
{
closed = 1;
nodes = (
"450 0 LINE",
"450 714 LINE",
"50 714 LINE",
"50 0 LINE"
);
},
{
closed = 1;
nodes = (
"98 666 LINE",
"402 666 LINE",
"402 48 LINE",
"98 48 LINE"
);
}
);
width = 500;
},
{
layerId = "528596C4-5B9B-4A0D-91B5-66A38EFFCD2C";
paths = (
{
closed = 1;
nodes = (
"450 0 LINE",
"450 714 LINE",
"50 714 LINE",
"50 0 LINE"
);
},
{
closed = 1;
nodes = (
"98 666 LINE",
"402 666 LINE",
"402 48 LINE",
"98 48 LINE"
);
}
);
width = 500;
}
);
note = .notdef;
},
{
glyphname = "koKai-lao";
lastChange = "2017-01-30 17:18:59 +0000";
layers = (
{
anchors = (
{
name = bottom;
position = "{495, 0}";
},
{
name = top;
position = "{342, 538}";
}
);
layerId = "169B4CCF-67AF-4042-AA6F-C8E438F95C30";
paths = (
{
closed = 1;
nodes = (
"188 -10 OFFCURVE",
"217 28 OFFCURVE",
"217 77 CURVE SMOOTH",
"217 461 LINE",
"263 502 OFFCURVE",
"313 527 OFFCURVE",
"368 527 CURVE SMOOTH",
"424 527 OFFCURVE",
"467 501 OFFCURVE",
"467 435 CURVE SMOOTH",
"467 -4 LINE",
"475 -4 LINE",
"495 21 LINE",
"495 431 LINE SMOOTH",
"495 520 OFFCURVE",
"437 552 OFFCURVE",
"371 552 CURVE SMOOTH",
"309 552 OFFCURVE",
"254 524 OFFCURVE",
"212 487 CURVE",
"208 528 OFFCURVE",
"180 552 OFFCURVE",
"134 552 CURVE SMOOTH",
"85 552 OFFCURVE",
"55 523 OFFCURVE",
"55 478 CURVE SMOOTH",
"55 431 OFFCURVE",
"87 404 OFFCURVE",
"130 404 CURVE SMOOTH",
"154 404 OFFCURVE",
"174 412 OFFCURVE",
"186 425 CURVE",
"189 424 LINE",
"189 119 LINE",
"186 118 LINE",
"174 131 OFFCURVE",
"154 138 OFFCURVE",
"131 138 CURVE SMOOTH",
"87 138 OFFCURVE",
"55 111 OFFCURVE",
"55 64 CURVE SMOOTH",
"55 19 OFFCURVE",
"85 -10 OFFCURVE",
"133 -10 CURVE SMOOTH"
);
},
{
closed = 1;
nodes = (
"102 12 OFFCURVE",
"81 31 OFFCURVE",
"81 64 CURVE SMOOTH",
"81 97 OFFCURVE",
"101 116 OFFCURVE",
"134 116 CURVE SMOOTH",
"168 116 OFFCURVE",
"188 97 OFFCURVE",
"188 64 CURVE SMOOTH",
"188 31 OFFCURVE",
"168 12 OFFCURVE",
"135 12 CURVE SMOOTH"
);
},
{
closed = 1;
nodes = (
"100 426 OFFCURVE",
"81 445 OFFCURVE",
"81 478 CURVE SMOOTH",
"81 511 OFFCURVE",
"101 530 OFFCURVE",
"134 530 CURVE SMOOTH",
"167 530 OFFCURVE",
"186 511 OFFCURVE",
"186 478 CURVE SMOOTH",
"186 445 OFFCURVE",
"167 426 OFFCURVE",
"133 426 CURVE SMOOTH"
);
}
);
width = 570;
},
{
anchors = (
{
name = bottom;
position = "{568, 0}";
},
{
name = top;
position = "{339, 536}";
}
);
layerId = "A12FF52C-901E-4F1C-B651-FD65F325A5D0";
paths = (
{
closed = 1;
nodes = (
"206 -10 OFFCURVE",
"250 26 OFFCURVE",
"250 94 CURVE SMOOTH",
"250 445 LINE",
"296 487 OFFCURVE",
"339 509 OFFCURVE",
"390 509 CURVE SMOOTH",
"462 509 OFFCURVE",
"476 464 OFFCURVE",
"476 392 CURVE SMOOTH",
"476 -6 LINE",
"514 -6 LINE",
"568 52 LINE",
"568 401 LINE SMOOTH",
"568 497 OFFCURVE",
"521 558 OFFCURVE",
"413 558 CURVE SMOOTH",
"337 558 OFFCURVE",
"288 528 OFFCURVE",
"244 493 CURVE",
"230 536 OFFCURVE",
"193 558 OFFCURVE",
"143 558 CURVE SMOOTH",
"82 558 OFFCURVE",
"45 524 OFFCURVE",
"45 466 CURVE SMOOTH",
"45 406 OFFCURVE",
"85 374 OFFCURVE",
"135 374 CURVE SMOOTH",
"153 374 OFFCURVE",
"166 376 OFFCURVE",
"172 380 CURVE",
"158 389 LINE",
"158 158 LINE",
"172 171 LINE",
"163 173 OFFCURVE",
"149 175 OFFCURVE",
"135 175 CURVE SMOOTH",
"85 175 OFFCURVE",
"45 142 OFFCURVE",
"45 82 CURVE SMOOTH",
"45 24 OFFCURVE",
"82 -10 OFFCURVE",
"143 -10 CURVE SMOOTH"
);
},
{
closed = 1;
nodes = (
"109 29 OFFCURVE",
"93 47 OFFCURVE",
"93 81 CURVE SMOOTH",
"93 115 OFFCURVE",
"109 133 OFFCURVE",
"141 133 CURVE SMOOTH",
"173 133 OFFCURVE",
"189 115 OFFCURVE",
"189 81 CURVE SMOOTH",
"189 47 OFFCURVE",
"173 29 OFFCURVE",
"141 29 CURVE SMOOTH"
);
},
{
closed = 1;
nodes = (
"109 416 OFFCURVE",
"93 433 OFFCURVE",
"93 467 CURVE SMOOTH",
"93 501 OFFCURVE",
"109 519 OFFCURVE",
"141 519 CURVE SMOOTH",
"173 519 OFFCURVE",
"189 501 OFFCURVE",
"189 467 CURVE SMOOTH",
"189 433 OFFCURVE",
"173 416 OFFCURVE",
"141 416 CURVE SMOOTH"
);
}
);
width = 633;
},
{
anchors = (
{
name = bottom;
position = "{657, 0}";
},
{
name = top;
position = "{382, 536}";
}
);
layerId = "528596C4-5B9B-4A0D-91B5-66A38EFFCD2C";
paths = (
{
closed = 1;
nodes = (
"269 -12 OFFCURVE",
"318 37 OFFCURVE",
"318 125 CURVE SMOOTH",
"318 450 LINE",
"342 479 OFFCURVE",
"375 500 OFFCURVE",
"410 500 CURVE SMOOTH",
"441 500 OFFCURVE",
"468 484 OFFCURVE",
"468 443 CURVE SMOOTH",
"468 -6 LINE",
"595 -6 LINE",
"657 66 LINE",
"657 383 LINE SMOOTH",
"657 501 OFFCURVE",
"561 562 OFFCURVE",
"456 562 CURVE SMOOTH",
"390 562 OFFCURVE",
"332 538 OFFCURVE",
"302 500 CURVE",
"280 540 OFFCURVE",
"238 562 OFFCURVE",
"177 562 CURVE SMOOTH",
"98 562 OFFCURVE",
"52 525 OFFCURVE",
"52 457 CURVE SMOOTH",
"52 391 OFFCURVE",
"96 365 OFFCURVE",
"134 365 CURVE SMOOTH",
"137 365 OFFCURVE",
"140 365 OFFCURVE",
"143 365 CURVE",
"129 386 LINE",
"129 166 LINE",
"143 185 LINE",
"141 185 OFFCURVE",
"139 185 OFFCURVE",
"136 185 CURVE SMOOTH",
"98 185 OFFCURVE",
"52 160 OFFCURVE",
"52 93 CURVE SMOOTH",
"52 25 OFFCURVE",
"98 -12 OFFCURVE",
"177 -12 CURVE SMOOTH"
);
},
{
closed = 1;
nodes = (
"122 42 OFFCURVE",
"107 60 OFFCURVE",
"107 91 CURVE SMOOTH",
"107 122 OFFCURVE",
"122 140 OFFCURVE",
"155 140 CURVE SMOOTH",
"188 140 OFFCURVE",
"203 122 OFFCURVE",
"203 91 CURVE SMOOTH",
"203 60 OFFCURVE",
"188 42 OFFCURVE",
"155 42 CURVE SMOOTH"
);
},
{
closed = 1;
nodes = (
"122 410 OFFCURVE",
"107 428 OFFCURVE",
"107 459 CURVE SMOOTH",
"107 490 OFFCURVE",
"122 508 OFFCURVE",
"155 508 CURVE SMOOTH",
"188 508 OFFCURVE",
"203 490 OFFCURVE",
"203 459 CURVE SMOOTH",
"203 428 OFFCURVE",
"188 410 OFFCURVE",
"155 410 CURVE SMOOTH"
);
}
);
width = 723;
}
);
note = uni0E81;
unicode = 0E81;
},
{
glyphname = "khoKhai-lao";
lastChange = "2017-01-30 17:18:59 +0000";
layers = (
{
anchors = (
{
name = bottom;
position = "{428, 0}";
},
{
name = top;
position = "{271, 538}";
}
);
layerId = "169B4CCF-67AF-4042-AA6F-C8E438F95C30";
paths = (
{
closed = 1;
nodes = (
"244 -10 OFFCURVE",
"308 62 OFFCURVE",
"371 62 CURVE SMOOTH",
"408 62 OFFCURVE",
"423 38 OFFCURVE",
"423 -10 CURVE",
"439 -10 OFFCURVE",
"448 -1 OFFCURVE",
"448 20 CURVE SMOOTH",
"448 58 OFFCURVE",
"419 87 OFFCURVE",
"373 87 CURVE SMOOTH",
"300 87 OFFCURVE",
"234 15 OFFCURVE",
"155 15 CURVE SMOOTH",
"114 15 OFFCURVE",
"86 34 OFFCURVE",
"86 76 CURVE SMOOTH",
"86 144 OFFCURVE",
"160 174 OFFCURVE",
"255 216 CURVE SMOOTH",
"363 264 OFFCURVE",
"446 301 OFFCURVE",
"446 404 CURVE SMOOTH",
"446 496 OFFCURVE",
"379 552 OFFCURVE",
"261 552 CURVE SMOOTH",
"131 552 OFFCURVE",
"57 483 OFFCURVE",
"57 403 CURVE SMOOTH",
"57 397 LINE SMOOTH",
"57 336 OFFCURVE",
"93 300 OFFCURVE",
"148 300 CURVE SMOOTH",
"199 300 OFFCURVE",
"228 331 OFFCURVE",
"228 375 CURVE SMOOTH",
"228 420 OFFCURVE",
"198 451 OFFCURVE",
"150 451 CURVE SMOOTH",
"124 451 OFFCURVE",
"103 442 OFFCURVE",
"89 425 CURVE",
"86 426 LINE",
"100 480 OFFCURVE",
"154 527 OFFCURVE",
"257 527 CURVE SMOOTH",
"354 527 OFFCURVE",
"415 486 OFFCURVE",
"415 402 CURVE SMOOTH",
"415 317 OFFCURVE",
"352 288 OFFCURVE",
"248 242 CURVE SMOOTH",
"152 200 OFFCURVE",
"55 162 OFFCURVE",
"55 76 CURVE SMOOTH",
"55 22 OFFCURVE",
"94 -10 OFFCURVE",
"154 -10 CURVE SMOOTH"
);
},
{
closed = 1;
nodes = (
"113 324 OFFCURVE",
"93 342 OFFCURVE",
"93 376 CURVE SMOOTH",
"93 409 OFFCURVE",
"113 428 OFFCURVE",
"147 428 CURVE SMOOTH",
"180 428 OFFCURVE",
"200 409 OFFCURVE",
"200 376 CURVE SMOOTH",
"200 343 OFFCURVE",
"179 324 OFFCURVE",
"146 324 CURVE SMOOTH"
);
}
);
width = 503;
},
{
anchors = (
{
name = bottom;
position = "{495, 0}";
},
{
name = top;
position = "{302, 536}";
}
);
layerId = "A12FF52C-901E-4F1C-B651-FD65F325A5D0";
paths = (
{
closed = 1;
nodes = (
"265 -10 OFFCURVE",
"329 63 OFFCURVE",
"384 63 CURVE SMOOTH",
"415 63 OFFCURVE",
"423 38 OFFCURVE",
"423 -10 CURVE",
"471 -9 OFFCURVE",
"514 -1 OFFCURVE",
"514 52 CURVE SMOOTH",
"514 108 OFFCURVE",
"466 140 OFFCURVE",
"412 140 CURVE SMOOTH",
"315 140 OFFCURVE",
"257 39 OFFCURVE",
"187 39 CURVE SMOOTH",
"157 39 OFFCURVE",
"142 58 OFFCURVE",
"142 88 CURVE SMOOTH",
"142 156 OFFCURVE",
"220 182 OFFCURVE",
"305 210 CURVE SMOOTH",
"406 243 OFFCURVE",
"515 279 OFFCURVE",
"515 392 CURVE SMOOTH",
"515 495 OFFCURVE",
"424 558 OFFCURVE",
"278 558 CURVE SMOOTH",
"144 558 OFFCURVE",
"50 505 OFFCURVE",
"50 408 CURVE SMOOTH",
"50 388 LINE SMOOTH",
"50 319 OFFCURVE",
"92 289 OFFCURVE",
"150 289 CURVE SMOOTH",
"214 289 OFFCURVE",
"247 326 OFFCURVE",
"247 382 CURVE SMOOTH",
"247 438 OFFCURVE",
"213 474 OFFCURVE",
"154 474 CURVE SMOOTH",
"136 474 OFFCURVE",
"132 472 OFFCURVE",
"124 470 CURVE",
"131 467 LINE",
"131 484 OFFCURVE",
"196 509 OFFCURVE",
"273 509 CURVE SMOOTH",
"361 509 OFFCURVE",
"423 473 OFFCURVE",
"423 397 CURVE SMOOTH",
"423 317 OFFCURVE",
"354 283 OFFCURVE",
"276 256 CURVE SMOOTH",
"171 220 OFFCURVE",
"50 196 OFFCURVE",
"50 89 CURVE SMOOTH",
"50 20 OFFCURVE",
"100 -10 OFFCURVE",
"165 -10 CURVE SMOOTH"
);
},
{
closed = 1;
nodes = (
"116 331 OFFCURVE",
"101 351 OFFCURVE",
"101 382 CURVE SMOOTH",
"101 413 OFFCURVE",
"116 433 OFFCURVE",
"150 433 CURVE SMOOTH",
"184 433 OFFCURVE",
"199 413 OFFCURVE",
"199 381 CURVE SMOOTH",
"199 350 OFFCURVE",
"185 331 OFFCURVE",
"151 331 CURVE SMOOTH"
);
}
);
width = 560;
},
{
anchors = (
{
name = bottom;
position = "{574, 0}";
},
{
name = top;
position = "{324, 536}";
}
);
layerId = "528596C4-5B9B-4A0D-91B5-66A38EFFCD2C";
paths = (
{
closed = 1;
nodes = (
"292 -12 OFFCURVE",
"368 59 OFFCURVE",
"428 59 CURVE SMOOTH",
"471 59 OFFCURVE",
"472 23 OFFCURVE",
"472 -12 CURVE",
"567 -12 OFFCURVE",
"598 50 OFFCURVE",
"598 101 CURVE SMOOTH",
"598 156 OFFCURVE",
"561 198 OFFCURVE",
"489 198 CURVE SMOOTH",
"361 198 OFFCURVE",
"320 65 OFFCURVE",
"250 65 CURVE SMOOTH",
"226 65 OFFCURVE",
"204 80 OFFCURVE",
"204 112 CURVE SMOOTH",
"204 157 OFFCURVE",
"248 179 OFFCURVE",
"307 196 CURVE SMOOTH",
"419 228 OFFCURVE",
"579 250 OFFCURVE",
"579 396 CURVE SMOOTH",
"579 493 OFFCURVE",
"507 562 OFFCURVE",
"304 562 CURVE SMOOTH",
"154 562 OFFCURVE",
"45 524 OFFCURVE",
"45 417 CURVE SMOOTH",
"45 407 LINE SMOOTH",
"45 319 OFFCURVE",
"106 291 OFFCURVE",
"167 291 CURVE SMOOTH",
"239 291 OFFCURVE",
"287 330 OFFCURVE",
"287 393 CURVE SMOOTH",
"287 445 OFFCURVE",
"253 488 OFFCURVE",
"207 488 CURVE SMOOTH",
"196 488 OFFCURVE",
"190 486 OFFCURVE",
"182 483 CURVE",
"189 478 LINE",
"203 500 OFFCURVE",
"261 508 OFFCURVE",
"292 508 CURVE SMOOTH",
"366 508 OFFCURVE",
"392 458 OFFCURVE",
"392 416 CURVE SMOOTH",
"392 356 OFFCURVE",
"338 324 OFFCURVE",
"273 298 CURVE SMOOTH",
"168 256 OFFCURVE",
"31 226 OFFCURVE",
"31 113 CURVE SMOOTH",
"31 48 OFFCURVE",
"76 -12 OFFCURVE",
"179 -12 CURVE SMOOTH"
);
},
{
closed = 1;
nodes = (
"151 345 OFFCURVE",
"136 363 OFFCURVE",
"136 394 CURVE SMOOTH",
"136 425 OFFCURVE",
"151 443 OFFCURVE",
"184 443 CURVE SMOOTH",
"217 443 OFFCURVE",
"232 425 OFFCURVE",
"232 394 CURVE SMOOTH",
"232 363 OFFCURVE",
"217 345 OFFCURVE",
"184 345 CURVE SMOOTH"
);
}
);
width = 640;
}
);
note = uni0E82;
unicode = 0E82;
},
{
glyphname = "khoKhuay-lao";
lastChange = "2017-01-30 17:18:59 +0000";
layers = (
{
anchors = (
{
name = bottom;
position = "{442, 0}";
},
{
name = top;
position = "{266, 538}";
}
);
layerId = "169B4CCF-67AF-4042-AA6F-C8E438F95C30";
paths = (
{
closed = 1;
nodes = (
"197 -10 OFFCURVE",
"226 21 OFFCURVE",
"226 65 CURVE SMOOTH",
"226 110 OFFCURVE",
"196 141 OFFCURVE",
"148 141 CURVE SMOOTH",
"122 141 OFFCURVE",
"101 132 OFFCURVE",
"87 115 CURVE",
"84 116 LINE",
"88 172 OFFCURVE",
"141 260 OFFCURVE",
"221 260 CURVE SMOOTH",
"263 260 LINE",
"263 283 LINE",
"221 283 LINE SMOOTH",
"130 283 OFFCURVE",
"87 321 OFFCURVE",
"87 398 CURVE SMOOTH",
"87 473 OFFCURVE",
"132 527 OFFCURVE",
"249 527 CURVE SMOOTH",
"362 527 OFFCURVE",
"414 481 OFFCURVE",
"414 371 CURVE SMOOTH",
"414 -6 LINE",
"422 -6 LINE",
"442 19 LINE",
"442 366 LINE SMOOTH",
"442 504 OFFCURVE",
"373 552 OFFCURVE",
"251 552 CURVE SMOOTH",
"135 552 OFFCURVE",
"56 505 OFFCURVE",
"56 401 CURVE SMOOTH",
"56 320 OFFCURVE",
"101 278 OFFCURVE",
"157 270 CURVE",
"157 267 LINE",
"95 244 OFFCURVE",
"55 167 OFFCURVE",
"55 93 CURVE SMOOTH",
"55 87 LINE SMOOTH",
"55 26 OFFCURVE",
"91 -10 OFFCURVE",
"146 -10 CURVE SMOOTH"
);
},
{
closed = 1;
nodes = (
"111 14 OFFCURVE",
"91 32 OFFCURVE",
"91 66 CURVE SMOOTH",
"91 99 OFFCURVE",
"111 118 OFFCURVE",
"145 118 CURVE SMOOTH",
"178 118 OFFCURVE",
"198 99 OFFCURVE",
"198 66 CURVE SMOOTH",
"198 33 OFFCURVE",
"177 14 OFFCURVE",
"144 14 CURVE SMOOTH"
);
}
);
width = 517;
},
{
anchors = (
{
name = bottom;
position = "{498, 0}";
},
{
name = top;
position = "{291, 536}";
}
);
layerId = "A12FF52C-901E-4F1C-B651-FD65F325A5D0";
paths = (
{
closed = 1;
nodes = (
"209 -10 OFFCURVE",
"246 25 OFFCURVE",
"246 82 CURVE SMOOTH",
"246 139 OFFCURVE",
"209 175 OFFCURVE",
"160 175 CURVE SMOOTH",
"146 175 OFFCURVE",
"138 172 OFFCURVE",
"131 168 CURVE",
"139 158 LINE",
"132 188 OFFCURVE",
"157 254 OFFCURVE",
"223 254 CURVE SMOOTH",
"246 254 LINE",
"246 303 LINE",
"223 303 LINE SMOOTH",
"171 303 OFFCURVE",
"137 327 OFFCURVE",
"137 394 CURVE SMOOTH",
"137 477 OFFCURVE",
"188 509 OFFCURVE",
"268 509 CURVE SMOOTH",
"363 509 OFFCURVE",
"406 464 OFFCURVE",
"406 365 CURVE SMOOTH",
"406 -6 LINE",
"444 -6 LINE",
"498 52 LINE",
"498 383 LINE SMOOTH",
"498 499 OFFCURVE",
"416 558 OFFCURVE",
"270 558 CURVE SMOOTH",
"127 558 OFFCURVE",
"45 502 OFFCURVE",
"45 399 CURVE SMOOTH",
"45 332 OFFCURVE",
"80 301 OFFCURVE",
"133 279 CURVE",
"133 276 LINE",
"88 252 OFFCURVE",
"45 222 OFFCURVE",
"45 133 CURVE SMOOTH",
"45 94 LINE SMOOTH",
"45 26 OFFCURVE",
"85 -10 OFFCURVE",
"148 -10 CURVE SMOOTH"
);
},
{
closed = 1;
nodes = (
"120 31 OFFCURVE",
"102 48 OFFCURVE",
"102 82 CURVE SMOOTH",
"102 116 OFFCURVE",
"119 133 OFFCURVE",
"150 133 CURVE SMOOTH",
"182 133 OFFCURVE",
"199 115 OFFCURVE",
"199 81 CURVE SMOOTH",
"199 47 OFFCURVE",
"183 31 OFFCURVE",
"152 31 CURVE SMOOTH"
);
}
);
width = 563;
},
{
anchors = (
{
name = bottom;
position = "{585, 0}";
},
{
name = top;
position = "{340, 536}";
}
);
layerId = "528596C4-5B9B-4A0D-91B5-66A38EFFCD2C";
paths = (
{
closed = 1;
nodes = (
"288 -12 OFFCURVE",
"333 21 OFFCURVE",
"333 86 CURVE SMOOTH",
"333 151 OFFCURVE",
"288 175 OFFCURVE",
"227 177 CURVE SMOOTH",
"221 177 OFFCURVE",
"214 177 OFFCURVE",
"208 177 CURVE",
"228 164 LINE",
"229 197 OFFCURVE",
"237 240 OFFCURVE",
"316 240 CURVE SMOOTH",
"341 240 LINE",
"341 301 LINE",
"298 301 LINE SMOOTH",
"257 301 OFFCURVE",
"234 327 OFFCURVE",
"234 400 CURVE SMOOTH",
"234 486 OFFCURVE",
"266 508 OFFCURVE",
"315 508 CURVE SMOOTH",
"365 508 OFFCURVE",
"396 485 OFFCURVE",
"396 408 CURVE SMOOTH",
"396 -6 LINE",
"523 -6 LINE",
"585 66 LINE",
"585 374 LINE SMOOTH",
"585 510 OFFCURVE",
"512 562 OFFCURVE",
"320 562 CURVE SMOOTH",
"137 562 OFFCURVE",
"44 515 OFFCURVE",
"44 402 CURVE SMOOTH",
"44 335 OFFCURVE",
"76 290 OFFCURVE",
"152 270 CURVE",
"152 266 LINE",
"81 249 OFFCURVE",
"41 189 OFFCURVE",
"41 130 CURVE SMOOTH",
"41 122 LINE SMOOTH",
"41 40 OFFCURVE",
"107 -12 OFFCURVE",
"208 -12 CURVE SMOOTH"
);
},
{
closed = 1;
nodes = (
"197 35 OFFCURVE",
"182 53 OFFCURVE",
"182 84 CURVE SMOOTH",
"182 115 OFFCURVE",
"197 133 OFFCURVE",
"230 133 CURVE SMOOTH",
"263 133 OFFCURVE",
"278 115 OFFCURVE",
"278 84 CURVE SMOOTH",
"278 53 OFFCURVE",
"263 35 OFFCURVE",
"230 35 CURVE SMOOTH"
);
}
);
width = 651;
}
);
note = uni0E84;
unicode = 0E84;
},
{
glyphname = "ngoNgu-lao";
lastChange = "2017-01-30 17:18:59 +0000";
layers = (
{
anchors = (
{
name = bottom;
position = "{384, -171}";
},
{
name = top;
position = "{250, 538}";
}
);
layerId = "169B4CCF-67AF-4042-AA6F-C8E438F95C30";
paths = (
{
closed = 1;
nodes = (
"333 -171 OFFCURVE",
"394 -114 OFFCURVE",
"394 -5 CURVE SMOOTH",
"394 379 LINE SMOOTH",
"394 488 OFFCURVE",
"345 552 OFFCURVE",
"227 552 CURVE SMOOTH",
"92 552 OFFCURVE",
"54 467 OFFCURVE",
"54 402 CURVE SMOOTH",
"54 390 LINE SMOOTH",
"54 336 OFFCURVE",
"88 307 OFFCURVE",
"136 307 CURVE SMOOTH",
"190 307 OFFCURVE",
"215 344 OFFCURVE",
"215 386 CURVE SMOOTH",
"215 434 OFFCURVE",
"183 462 OFFCURVE",
"141 462 CURVE SMOOTH",
"125 462 OFFCURVE",
"105 458 OFFCURVE",
"95 454 CURVE",
"109 501 OFFCURVE",
"154 527 OFFCURVE",
"224 527 CURVE SMOOTH",
"319 527 OFFCURVE",
"366 479 OFFCURVE",
"366 381 CURVE SMOOTH",
"366 -3 LINE SMOOTH",
"366 -98 OFFCURVE",
"318 -146 OFFCURVE",
"218 -146 CURVE SMOOTH",
"127 -146 OFFCURVE",
"83 -107 OFFCURVE",
"83 -27 CURVE",
"61 -24 OFFCURVE",
"55 -33 OFFCURVE",
"55 -55 CURVE SMOOTH",
"55 -113 OFFCURVE",
"99 -171 OFFCURVE",
"217 -171 CURVE SMOOTH"
);
},
{
closed = 1;
nodes = (
"99 331 OFFCURVE",
"83 356 OFFCURVE",
"83 389 CURVE SMOOTH",
"83 422 OFFCURVE",
"99 439 OFFCURVE",
"135 439 CURVE SMOOTH",
"171 439 OFFCURVE",
"188 422 OFFCURVE",
"188 387 CURVE SMOOTH",
"188 355 OFFCURVE",
"174 331 OFFCURVE",
"137 331 CURVE SMOOTH"
);
}
);
width = 469;
},
{
anchors = (
{
name = bottom;
position = "{434, -170}";
},
{
name = top;
position = "{244, 536}";
}
);
layerId = "A12FF52C-901E-4F1C-B651-FD65F325A5D0";
paths = (
{
closed = 1;
nodes = (
"359 -170 OFFCURVE",
"444 -110 OFFCURVE",
"444 5 CURVE SMOOTH",
"444 374 LINE SMOOTH",
"444 490 OFFCURVE",
"365 558 OFFCURVE",
"227 558 CURVE SMOOTH",
"95 558 OFFCURVE",
"30 500 OFFCURVE",
"30 407 CURVE SMOOTH",
"30 388 LINE SMOOTH",
"30 319 OFFCURVE",
"72 289 OFFCURVE",
"130 289 CURVE SMOOTH",
"194 289 OFFCURVE",
"227 326 OFFCURVE",
"227 382 CURVE SMOOTH",
"227 438 OFFCURVE",
"193 474 OFFCURVE",
"134 474 CURVE SMOOTH",
"124 474 OFFCURVE",
"118 473 OFFCURVE",
"112 472 CURVE",
"120 485 OFFCURVE",
"149 509 OFFCURVE",
"221 509 CURVE SMOOTH",
"313 509 OFFCURVE",
"352 465 OFFCURVE",
"352 365 CURVE SMOOTH",
"352 23 LINE SMOOTH",
"352 -74 OFFCURVE",
"309 -121 OFFCURVE",
"224 -121 CURVE SMOOTH",
"142 -121 OFFCURVE",
"110 -83 OFFCURVE",
"110 0 CURVE",
"53 0 OFFCURVE",
"30 -14 OFFCURVE",
"30 -51 CURVE SMOOTH",
"30 -120 OFFCURVE",
"103 -170 OFFCURVE",
"228 -170 CURVE SMOOTH"
);
},
{
closed = 1;
nodes = (
"96 331 OFFCURVE",
"81 351 OFFCURVE",
"81 382 CURVE SMOOTH",
"81 413 OFFCURVE",
"96 433 OFFCURVE",
"130 433 CURVE SMOOTH",
"164 433 OFFCURVE",
"179 413 OFFCURVE",
"179 381 CURVE SMOOTH",
"179 350 OFFCURVE",
"165 331 OFFCURVE",
"131 331 CURVE SMOOTH"
);
}
);
width = 509;
},
{
anchors = (
{
name = bottom;
position = "{536, -206}";
},
{
name = top;
position = "{306, 536}";
}
);
layerId = "528596C4-5B9B-4A0D-91B5-66A38EFFCD2C";
paths = (
{
closed = 1;
nodes = (
"409 -206 OFFCURVE",
"546 -157 OFFCURVE",
"546 -31 CURVE SMOOTH",
"546 392 LINE SMOOTH",
"546 517 OFFCURVE",
"423 562 OFFCURVE",
"283 562 CURVE SMOOTH",
"134 562 OFFCURVE",
"41 511 OFFCURVE",
"41 404 CURVE SMOOTH",
"41 385 LINE SMOOTH",
"41 302 OFFCURVE",
"91 267 OFFCURVE",
"159 267 CURVE SMOOTH",
"238 267 OFFCURVE",
"278 313 OFFCURVE",
"278 375 CURVE SMOOTH",
"278 411 OFFCURVE",
"264 463 OFFCURVE",
"212 481 CURVE SMOOTH",
"202 484 OFFCURVE",
"191 486 OFFCURVE",
"179 487 CURVE",
"200 502 OFFCURVE",
"228 508 OFFCURVE",
"253 508 CURVE SMOOTH",
"329 508 OFFCURVE",
"357 454 OFFCURVE",
"357 403 CURVE SMOOTH",
"357 -18 LINE SMOOTH",
"357 -124 OFFCURVE",
"299 -141 OFFCURVE",
"257 -141 CURVE SMOOTH",
"191 -141 OFFCURVE",
"156 -99 OFFCURVE",
"156 -2 CURVE",
"67 -2 OFFCURVE",
"26 -32 OFFCURVE",
"26 -84 CURVE SMOOTH",
"26 -178 OFFCURVE",
"158 -206 OFFCURVE",
"266 -206 CURVE SMOOTH"
);
},
{
closed = 1;
nodes = (
"128 331 OFFCURVE",
"114 349 OFFCURVE",
"114 380 CURVE SMOOTH",
"114 411 OFFCURVE",
"128 429 OFFCURVE",
"161 429 CURVE SMOOTH",
"194 429 OFFCURVE",
"209 411 OFFCURVE",
"209 380 CURVE SMOOTH",
"209 349 OFFCURVE",
"194 331 OFFCURVE",
"161 331 CURVE SMOOTH"
);
}
);
width = 612;
}
);
note = uni0E87;
unicode = 0E87;
},
{
glyphname = "coCok-lao";
lastChange = "2017-01-30 17:18:59 +0000";
layers = (
{
anchors = (
{
name = bottom;
position = "{397, 0}";
},
{
name = top;
position = "{223, 538}";
}
);
layerId = "169B4CCF-67AF-4042-AA6F-C8E438F95C30";
paths = (
{
closed = 1;
nodes = (
"377 -4 LINE",
"397 21 LINE",
"397 391 LINE SMOOTH",
"397 500 OFFCURVE",
"329 552 OFFCURVE",
"211 552 CURVE SMOOTH",
"85 552 OFFCURVE",
"35 493 OFFCURVE",
"35 434 CURVE SMOOTH",
"35 414 OFFCURVE",
"41 408 OFFCURVE",
"64 408 CURVE",
"64 490 OFFCURVE",
"122 527 OFFCURVE",
"211 527 CURVE SMOOTH",
"309 527 OFFCURVE",
"369 482 OFFCURVE",
"369 389 CURVE SMOOTH",
"369 225 LINE",
"366 224 LINE",
"340 278 OFFCURVE",
"288 336 OFFCURVE",
"196 336 CURVE SMOOTH",
"189 336 LINE SMOOTH",
"142 336 OFFCURVE",
"111 309 OFFCURVE",
"111 262 CURVE SMOOTH",
"111 215 OFFCURVE",
"141 188 OFFCURVE",
"189 188 CURVE SMOOTH",
"238 188 OFFCURVE",
"268 215 OFFCURVE",
"268 263 CURVE SMOOTH",
"268 278 OFFCURVE",
"265 291 OFFCURVE",
"258 303 CURVE",
"323 274 OFFCURVE",
"369 193 OFFCURVE",
"369 118 CURVE SMOOTH",
"369 -4 LINE"
);
},
{
closed = 1;
nodes = (
"156 210 OFFCURVE",
"137 227 OFFCURVE",
"137 262 CURVE SMOOTH",
"137 297 OFFCURVE",
"156 314 OFFCURVE",
"189 314 CURVE SMOOTH",
"223 314 OFFCURVE",
"242 297 OFFCURVE",
"242 262 CURVE SMOOTH",
"242 227 OFFCURVE",
"223 210 OFFCURVE",
"189 210 CURVE SMOOTH"
);
}
);
width = 472;
},
{
anchors = (
{
name = bottom;
position = "{479, 0}";
},
{
name = top;
position = "{270, 536}";
}
);
layerId = "A12FF52C-901E-4F1C-B651-FD65F325A5D0";
paths = (
{
closed = 1;
nodes = (
"426 -6 LINE",
"479 52 LINE",
"479 378 LINE SMOOTH",
"479 500 OFFCURVE",
"391 558 OFFCURVE",
"246 558 CURVE SMOOTH",
"116 558 OFFCURVE",
"25 512 OFFCURVE",
"25 438 CURVE SMOOTH",
"25 401 OFFCURVE",
"48 386 OFFCURVE",
"105 386 CURVE",
"105 476 OFFCURVE",
"147 509 OFFCURVE",
"241 509 CURVE SMOOTH",
"340 509 OFFCURVE",
"388 473 OFFCURVE",
"388 381 CURVE SMOOTH",
"388 234 LINE",
"385 233 LINE",
"358 287 OFFCURVE",
"295 336 OFFCURVE",
"215 336 CURVE SMOOTH",
"205 336 LINE SMOOTH",
"145 336 OFFCURVE",
"112 300 OFFCURVE",
"112 246 CURVE SMOOTH",
"112 188 OFFCURVE",
"149 155 OFFCURVE",
"209 155 CURVE SMOOTH",
"266 155 OFFCURVE",
"304 185 OFFCURVE",
"304 239 CURVE SMOOTH",
"304 243 OFFCURVE",
"304 252 OFFCURVE",
"303 256 CURVE",
"364 208 OFFCURVE",
"388 131 OFFCURVE",
"388 59 CURVE SMOOTH",
"388 -6 LINE"
);
},
{
closed = 1;
nodes = (
"176 194 OFFCURVE",
"160 211 OFFCURVE",
"160 246 CURVE SMOOTH",
"160 280 OFFCURVE",
"176 297 OFFCURVE",
"208 297 CURVE SMOOTH",
"240 297 OFFCURVE",
"256 280 OFFCURVE",
"256 246 CURVE SMOOTH",
"256 211 OFFCURVE",
"240 194 OFFCURVE",
"208 194 CURVE SMOOTH"
);
}
);
width = 544;
},
{
anchors = (
{
name = bottom;
position = "{542, 0}";
},
{
name = top;
position = "{291, 536}";
}
);
layerId = "528596C4-5B9B-4A0D-91B5-66A38EFFCD2C";
paths = (
{
closed = 1;
nodes = (
"480 -6 LINE",
"542 66 LINE",
"542 401 LINE SMOOTH",
"542 532 OFFCURVE",
"413 562 OFFCURVE",
"271 562 CURVE SMOOTH",
"117 562 OFFCURVE",
"19 527 OFFCURVE",
"19 451 CURVE SMOOTH",
"19 405 OFFCURVE",
"55 383 OFFCURVE",
"145 383 CURVE",
"145 467 OFFCURVE",
"180 506 OFFCURVE",
"248 506 CURVE SMOOTH",
"319 506 OFFCURVE",
"354 464 OFFCURVE",
"354 400 CURVE SMOOTH",
"354 262 LINE",
"362 267 LINE",
"325 320 OFFCURVE",
"270 352 OFFCURVE",
"208 352 CURVE SMOOTH",
"197 352 LINE SMOOTH",
"132 352 OFFCURVE",
"92 307 OFFCURVE",
"92 240 CURVE SMOOTH",
"92 170 OFFCURVE",
"137 129 OFFCURVE",
"208 129 CURVE SMOOTH",
"265 129 OFFCURVE",
"305 156 OFFCURVE",
"320 202 CURVE SMOOTH",
"321 205 OFFCURVE",
"322 209 OFFCURVE",
"323 212 CURVE",
"344 172 OFFCURVE",
"354 123 OFFCURVE",
"354 74 CURVE SMOOTH",
"354 -6 LINE"
);
},
{
closed = 1;
nodes = (
"172 190 OFFCURVE",
"157 208 OFFCURVE",
"157 239 CURVE SMOOTH",
"157 270 OFFCURVE",
"172 288 OFFCURVE",
"205 288 CURVE SMOOTH",
"238 288 OFFCURVE",
"253 270 OFFCURVE",
"253 239 CURVE SMOOTH",
"253 208 OFFCURVE",
"238 190 OFFCURVE",
"205 190 CURVE SMOOTH"
);
}
);
width = 608;
}
);
note = uni0E88;
unicode = 0E88;
},
{
glyphname = "soSang-lao";
lastChange = "2017-01-30 17:18:59 +0000";
layers = (
{
anchors = (
{
name = bottom;
position = "{356, 0}";
},
{
name = top;
position = "{273, 538}";
}
);
layerId = "169B4CCF-67AF-4042-AA6F-C8E438F95C30";
paths = (
{
closed = 1;
nodes = (
"431 -172 LINE",
"451 -147 LINE",
"451 4 LINE SMOOTH",
"451 56 OFFCURVE",
"428 87 OFFCURVE",
"375 87 CURVE SMOOTH",
"294 87 OFFCURVE",
"235 15 OFFCURVE",
"155 15 CURVE SMOOTH",
"114 15 OFFCURVE",
"86 34 OFFCURVE",
"86 76 CURVE SMOOTH",
"86 144 OFFCURVE",
"160 174 OFFCURVE",
"255 216 CURVE SMOOTH",
"363 264 OFFCURVE",
"446 301 OFFCURVE",
"446 404 CURVE SMOOTH",
"446 496 OFFCURVE",
"379 552 OFFCURVE",
"261 552 CURVE SMOOTH",
"131 552 OFFCURVE",
"57 483 OFFCURVE",
"57 403 CURVE SMOOTH",
"57 397 LINE SMOOTH",
"57 336 OFFCURVE",
"93 300 OFFCURVE",
"148 300 CURVE SMOOTH",
"199 300 OFFCURVE",
"228 331 OFFCURVE",
"228 375 CURVE SMOOTH",
"228 420 OFFCURVE",
"198 451 OFFCURVE",
"150 451 CURVE SMOOTH",
"124 451 OFFCURVE",
"103 442 OFFCURVE",
"89 425 CURVE",
"86 426 LINE",
"100 480 OFFCURVE",
"154 527 OFFCURVE",
"257 527 CURVE SMOOTH",
"354 527 OFFCURVE",
"415 486 OFFCURVE",
"415 402 CURVE SMOOTH",
"415 317 OFFCURVE",
"352 288 OFFCURVE",
"248 242 CURVE SMOOTH",
"152 200 OFFCURVE",
"55 162 OFFCURVE",
"55 76 CURVE SMOOTH",
"55 21 OFFCURVE",
"95 -10 OFFCURVE",
"154 -10 CURVE SMOOTH",
"244 -10 OFFCURVE",
"303 62 OFFCURVE",
"372 62 CURVE SMOOTH",
"406 62 OFFCURVE",
"423 44 OFFCURVE",
"423 2 CURVE SMOOTH",
"423 -172 LINE"
);
},
{
closed = 1;
nodes = (
"113 324 OFFCURVE",
"93 342 OFFCURVE",
"93 376 CURVE SMOOTH",
"93 409 OFFCURVE",
"113 428 OFFCURVE",
"147 428 CURVE SMOOTH",
"180 428 OFFCURVE",
"200 409 OFFCURVE",
"200 376 CURVE SMOOTH",
"200 343 OFFCURVE",
"179 324 OFFCURVE",
"146 324 CURVE SMOOTH"
);
}
);
width = 506;
},
{
anchors = (
{
name = bottom;
position = "{356, 0}";
},
{
name = top;
position = "{302, 536}";
}
);
layerId = "A12FF52C-901E-4F1C-B651-FD65F325A5D0";
paths = (
{
closed = 1;
nodes = (
"461 -170 LINE",
"515 -112 LINE",
"515 20 LINE SMOOTH",
"515 112 OFFCURVE",
"469 140 OFFCURVE",
"415 140 CURVE SMOOTH",
"313 140 OFFCURVE",
"259 39 OFFCURVE",
"188 39 CURVE SMOOTH",
"157 39 OFFCURVE",
"142 59 OFFCURVE",
"142 88 CURVE SMOOTH",
"142 151 OFFCURVE",
"210 177 OFFCURVE",
"288 203 CURVE SMOOTH",
"392 238 OFFCURVE",
"515 273 OFFCURVE",
"515 392 CURVE SMOOTH",
"515 495 OFFCURVE",
"425 558 OFFCURVE",
"278 558 CURVE SMOOTH",
"144 558 OFFCURVE",
"50 505 OFFCURVE",
"50 408 CURVE SMOOTH",
"50 388 LINE SMOOTH",
"50 319 OFFCURVE",
"92 289 OFFCURVE",
"150 289 CURVE SMOOTH",
"214 289 OFFCURVE",
"247 326 OFFCURVE",
"247 382 CURVE SMOOTH",
"247 438 OFFCURVE",
"213 474 OFFCURVE",
"154 474 CURVE SMOOTH",
"136 474 OFFCURVE",
"129 472 OFFCURVE",
"125 471 CURVE",
"130 467 LINE",
"128 481 OFFCURVE",
"197 509 OFFCURVE",
"273 509 CURVE SMOOTH",
"361 509 OFFCURVE",
"423 473 OFFCURVE",
"423 397 CURVE SMOOTH",
"423 315 OFFCURVE",
"350 281 OFFCURVE",
"269 254 CURVE SMOOTH",
"167 220 OFFCURVE",
"50 194 OFFCURVE",
"50 89 CURVE SMOOTH",
"50 20 OFFCURVE",
"101 -10 OFFCURVE",
"166 -10 CURVE SMOOTH",
"266 -10 OFFCURVE",
"330 63 OFFCURVE",
"385 63 CURVE SMOOTH",
"416 63 OFFCURVE",
"424 38 OFFCURVE",
"424 -10 CURVE SMOOTH",
"424 -170 LINE"
);
},
{
closed = 1;
nodes = (
"116 331 OFFCURVE",
"101 351 OFFCURVE",
"101 382 CURVE SMOOTH",
"101 413 OFFCURVE",
"116 433 OFFCURVE",
"150 433 CURVE SMOOTH",
"184 433 OFFCURVE",
"199 413 OFFCURVE",
"199 381 CURVE SMOOTH",
"199 350 OFFCURVE",
"185 331 OFFCURVE",
"151 331 CURVE SMOOTH"
);
}
);
width = 560;
},
{
anchors = (
{
name = bottom;
position = "{365, 0}";
},
{
name = top;
position = "{324, 536}";
}
);
layerId = "528596C4-5B9B-4A0D-91B5-66A38EFFCD2C";
paths = (
{
closed = 1;
nodes = (
"532 -206 LINE",
"594 -135 LINE",
"594 100 LINE SMOOTH",
"594 148 OFFCURVE",
"552 198 OFFCURVE",
"477 198 CURVE SMOOTH",
"354 198 OFFCURVE",
"319 65 OFFCURVE",
"249 65 CURVE SMOOTH",
"226 65 OFFCURVE",
"204 80 OFFCURVE",
"204 112 CURVE SMOOTH",
"204 163 OFFCURVE",
"260 184 OFFCURVE",
"329 203 CURVE SMOOTH",
"438 233 OFFCURVE",
"579 259 OFFCURVE",
"579 396 CURVE SMOOTH",
"579 493 OFFCURVE",
"507 562 OFFCURVE",
"304 562 CURVE SMOOTH",
"154 562 OFFCURVE",
"45 524 OFFCURVE",
"45 417 CURVE SMOOTH",
"45 407 LINE SMOOTH",
"45 319 OFFCURVE",
"106 291 OFFCURVE",
"167 291 CURVE SMOOTH",
"239 291 OFFCURVE",
"287 330 OFFCURVE",
"287 393 CURVE SMOOTH",
"287 445 OFFCURVE",
"254 488 OFFCURVE",
"207 488 CURVE SMOOTH",
"196 488 OFFCURVE",
"190 486 OFFCURVE",
"182 483 CURVE",
"189 478 LINE",
"203 500 OFFCURVE",
"261 508 OFFCURVE",
"292 508 CURVE SMOOTH",
"366 508 OFFCURVE",
"392 458 OFFCURVE",
"392 416 CURVE SMOOTH",
"392 359 OFFCURVE",
"343 327 OFFCURVE",
"280 301 CURVE SMOOTH",
"174 257 OFFCURVE",
"31 227 OFFCURVE",
"31 113 CURVE SMOOTH",
"31 50 OFFCURVE",
"75 -12 OFFCURVE",
"175 -12 CURVE SMOOTH",
"280 -12 OFFCURVE",
"340 56 OFFCURVE",
"394 56 CURVE SMOOTH",
"420 56 OFFCURVE",
"426 40 OFFCURVE",
"426 27 CURVE SMOOTH",
"426 -206 LINE"
);
},
{
closed = 1;
nodes = (
"151 345 OFFCURVE",
"136 363 OFFCURVE",
"136 394 CURVE SMOOTH",
"136 425 OFFCURVE",
"151 443 OFFCURVE",
"184 443 CURVE SMOOTH",
"217 443 OFFCURVE",
"232 425 OFFCURVE",
"232 394 CURVE SMOOTH",
"232 363 OFFCURVE",
"217 345 OFFCURVE",
"184 345 CURVE SMOOTH"
);
}
);
width = 642;
}
);
note = uni0E8A;
unicode = 0E8A;
},
{
glyphname = "nyoNyung-lao";
lastChange = "2017-01-30 17:18:59 +0000";
layers = (
{
anchors = (
{
name = bottom;
position = "{422, 0}";
},
{
name = top;
position = "{277, 538}";
}
);
layerId = "169B4CCF-67AF-4042-AA6F-C8E438F95C30";
paths = (
{
closed = 1;
nodes = (
"360 -10 OFFCURVE",
"432 39 OFFCURVE",
"432 176 CURVE SMOOTH",
"432 548 LINE",
"424 548 LINE",
"404 523 LINE",
"404 171 LINE SMOOTH",
"404 62 OFFCURVE",
"349 15 OFFCURVE",
"243 15 CURVE SMOOTH",
"120 15 OFFCURVE",
"89 78 OFFCURVE",
"89 154 CURVE SMOOTH",
"89 234 OFFCURVE",
"124 274 OFFCURVE",
"221 274 CURVE SMOOTH",
"263 274 LINE",
"263 297 LINE",
"221 297 LINE SMOOTH",
"141 297 OFFCURVE",
"87 371 OFFCURVE",
"84 426 CURVE",
"87 427 LINE",
"101 410 OFFCURVE",
"122 401 OFFCURVE",
"148 401 CURVE SMOOTH",
"196 401 OFFCURVE",
"226 432 OFFCURVE",
"226 477 CURVE SMOOTH",
"226 521 OFFCURVE",
"198 552 OFFCURVE",
"144 552 CURVE SMOOTH",
"88 552 OFFCURVE",
"55 518 OFFCURVE",
"55 457 CURVE SMOOTH",
"55 439 LINE SMOOTH",
"55 378 OFFCURVE",
"98 312 OFFCURVE",
"157 290 CURVE",
"157 287 LINE",
"96 280 OFFCURVE",
"58 235 OFFCURVE",
"58 153 CURVE SMOOTH",
"58 45 OFFCURVE",
"123 -10 OFFCURVE",
"245 -10 CURVE SMOOTH"
);
},
{
closed = 1;
nodes = (
"111 424 OFFCURVE",
"91 443 OFFCURVE",
"91 476 CURVE SMOOTH",
"91 510 OFFCURVE",
"111 528 OFFCURVE",
"144 528 CURVE SMOOTH",
"177 528 OFFCURVE",
"198 509 OFFCURVE",
"198 476 CURVE SMOOTH",
"198 443 OFFCURVE",
"178 424 OFFCURVE",
"145 424 CURVE SMOOTH"
);
}
);
width = 507;
},
{
anchors = (
{
name = bottom;
position = "{488, 0}";
},
{
name = top;
position = "{303, 536}";
}
);
layerId = "A12FF52C-901E-4F1C-B651-FD65F325A5D0";
paths = (
{
closed = 1;
nodes = (
"416 -10 OFFCURVE",
"498 49 OFFCURVE",
"498 166 CURVE SMOOTH",
"498 554 LINE",
"460 554 LINE",
"406 497 LINE",
"406 183 LINE SMOOTH",
"406 84 OFFCURVE",
"363 39 OFFCURVE",
"267 39 CURVE SMOOTH",
"185 39 OFFCURVE",
"137 72 OFFCURVE",
"137 150 CURVE SMOOTH",
"137 227 OFFCURVE",
"184 254 OFFCURVE",
"246 254 CURVE SMOOTH",
"267 254 LINE",
"267 303 LINE",
"246 303 LINE SMOOTH",
"164 303 OFFCURVE",
"129 339 OFFCURVE",
"139 391 CURVE",
"132 380 LINE",
"136 378 OFFCURVE",
"142 374 OFFCURVE",
"157 374 CURVE SMOOTH",
"210 374 OFFCURVE",
"246 409 OFFCURVE",
"246 466 CURVE SMOOTH",
"246 523 OFFCURVE",
"209 558 OFFCURVE",
"148 558 CURVE SMOOTH",
"85 558 OFFCURVE",
"45 517 OFFCURVE",
"45 449 CURVE SMOOTH",
"45 425 LINE SMOOTH",
"45 354 OFFCURVE",
"80 304 OFFCURVE",
"133 280 CURVE",
"133 277 LINE",
"85 257 OFFCURVE",
"45 215 OFFCURVE",
"45 145 CURVE SMOOTH",
"45 45 OFFCURVE",
"126 -10 OFFCURVE",
"268 -10 CURVE SMOOTH"
);
},
{
closed = 1;
nodes = (
"119 416 OFFCURVE",
"102 432 OFFCURVE",
"102 466 CURVE SMOOTH",
"102 500 OFFCURVE",
"120 517 OFFCURVE",
"152 517 CURVE SMOOTH",
"183 517 OFFCURVE",
"199 501 OFFCURVE",
"199 467 CURVE SMOOTH",
"199 433 OFFCURVE",
"182 416 OFFCURVE",
"150 416 CURVE SMOOTH"
);
}
);
width = 563;
},
{
anchors = (
{
name = bottom;
position = "{583, 0}";
},
{
name = top;
position = "{340, 536}";
}
);
layerId = "528596C4-5B9B-4A0D-91B5-66A38EFFCD2C";
paths = (
{
closed = 1;
nodes = (
"519 -12 OFFCURVE",
"593 41 OFFCURVE",
"593 176 CURVE SMOOTH",
"593 552 LINE",
"466 552 LINE",
"404 480 LINE",
"404 143 LINE SMOOTH",
"404 67 OFFCURVE",
"371 42 OFFCURVE",
"320 42 CURVE SMOOTH",
"272 42 OFFCURVE",
"239 65 OFFCURVE",
"239 152 CURVE SMOOTH",
"239 224 OFFCURVE",
"262 251 OFFCURVE",
"303 251 CURVE SMOOTH",
"346 251 LINE",
"346 312 LINE",
"321 312 LINE SMOOTH",
"242 312 OFFCURVE",
"234 353 OFFCURVE",
"233 386 CURVE",
"213 373 LINE",
"218 373 OFFCURVE",
"223 373 OFFCURVE",
"228 373 CURVE SMOOTH",
"290 374 OFFCURVE",
"338 398 OFFCURVE",
"338 464 CURVE SMOOTH",
"338 529 OFFCURVE",
"293 562 OFFCURVE",
"213 562 CURVE SMOOTH",
"119 562 OFFCURVE",
"46 508 OFFCURVE",
"46 436 CURVE SMOOTH",
"46 428 LINE SMOOTH",
"46 366 OFFCURVE",
"83 304 OFFCURVE",
"157 286 CURVE",
"157 282 LINE",
"81 262 OFFCURVE",
"49 215 OFFCURVE",
"49 149 CURVE SMOOTH",
"49 37 OFFCURVE",
"140 -12 OFFCURVE",
"326 -12 CURVE SMOOTH"
);
},
{
closed = 1;
nodes = (
"202 417 OFFCURVE",
"187 435 OFFCURVE",
"187 466 CURVE SMOOTH",
"187 497 OFFCURVE",
"202 515 OFFCURVE",
"235 515 CURVE SMOOTH",
"268 515 OFFCURVE",
"283 497 OFFCURVE",
"283 466 CURVE SMOOTH",
"283 435 OFFCURVE",
"268 417 OFFCURVE",
"235 417 CURVE SMOOTH"
);
}
);
width = 659;
}
);
note = uni0E8D;
unicode = 0E8D;
},
{
glyphname = "doDek-lao";
lastChange = "2017-01-30 17:18:59 +0000";
layers = (
{
anchors = (
{
name = bottom;
position = "{467, 0}";
},
{
name = top;
position = "{283, 538}";
}
);
layerId = "169B4CCF-67AF-4042-AA6F-C8E438F95C30";
paths = (
{
closed = 1;
nodes = (
"203 -10 OFFCURVE",
"234 16 OFFCURVE",
"234 63 CURVE SMOOTH",
"234 111 OFFCURVE",
"202 138 OFFCURVE",
"157 138 CURVE SMOOTH",
"136 138 OFFCURVE",
"118 132 OFFCURVE",
"106 118 CURVE",
"103 119 LINE",
"103 396 LINE SMOOTH",
"103 485 OFFCURVE",
"171 527 OFFCURVE",
"269 527 CURVE SMOOTH",
"370 527 OFFCURVE",
"439 482 OFFCURVE",
"439 396 CURVE SMOOTH",
"439 -6 LINE",
"449 -6 LINE",
"467 15 LINE",
"467 394 LINE SMOOTH",
"467 494 OFFCURVE",
"387 552 OFFCURVE",
"270 552 CURVE SMOOTH",
"159 552 OFFCURVE",
"75 500 OFFCURVE",
"75 394 CURVE SMOOTH",
"75 64 LINE SMOOTH",
"75 18 OFFCURVE",
"105 -10 OFFCURVE",
"155 -10 CURVE SMOOTH"
);
},
{
closed = 1;
nodes = (
"122 12 OFFCURVE",
"103 31 OFFCURVE",
"103 64 CURVE SMOOTH",
"103 97 OFFCURVE",
"122 116 OFFCURVE",
"156 116 CURVE SMOOTH",
"189 116 OFFCURVE",
"208 97 OFFCURVE",
"208 64 CURVE SMOOTH",
"208 31 OFFCURVE",
"188 12 OFFCURVE",
"155 12 CURVE SMOOTH"
);
}
);
width = 542;
},
{
anchors = (
{
name = bottom;
position = "{518, 0}";
},
{
name = top;
position = "{315, 536}";
}
);
layerId = "A12FF52C-901E-4F1C-B651-FD65F325A5D0";
paths = (
{
closed = 1;
nodes = (
"233 -10 OFFCURVE",
"270 24 OFFCURVE",
"270 82 CURVE SMOOTH",
"270 142 OFFCURVE",
"230 175 OFFCURVE",
"180 175 CURVE SMOOTH",
"166 175 OFFCURVE",
"149 172 OFFCURVE",
"150 171 CURVE",
"157 157 LINE",
"157 365 LINE SMOOTH",
"157 462 OFFCURVE",
"200 509 OFFCURVE",
"291 509 CURVE SMOOTH",
"383 509 OFFCURVE",
"426 462 OFFCURVE",
"426 365 CURVE SMOOTH",
"426 -6 LINE",
"464 -6 LINE",
"518 52 LINE",
"518 383 LINE SMOOTH",
"518 499 OFFCURVE",
"435 558 OFFCURVE",
"291 558 CURVE SMOOTH",
"147 558 OFFCURVE",
"65 499 OFFCURVE",
"65 383 CURVE SMOOTH",
"65 94 LINE SMOOTH",
"65 26 OFFCURVE",
"109 -10 OFFCURVE",
"172 -10 CURVE SMOOTH"
);
},
{
closed = 1;
nodes = (
"142 29 OFFCURVE",
"126 47 OFFCURVE",
"126 81 CURVE SMOOTH",
"126 115 OFFCURVE",
"142 133 OFFCURVE",
"174 133 CURVE SMOOTH",
"206 133 OFFCURVE",
"222 115 OFFCURVE",
"222 81 CURVE SMOOTH",
"222 47 OFFCURVE",
"206 29 OFFCURVE",
"174 29 CURVE SMOOTH"
);
}
);
width = 583;
},
{
anchors = (
{
name = bottom;
position = "{609, 0}";
},
{
name = top;
position = "{353, 536}";
}
);
layerId = "528596C4-5B9B-4A0D-91B5-66A38EFFCD2C";
paths = (
{
closed = 1;
nodes = (
"276 -10 OFFCURVE",
"322 27 OFFCURVE",
"322 94 CURVE SMOOTH",
"322 160 OFFCURVE",
"277 187 OFFCURVE",
"243 187 CURVE SMOOTH",
"237 187 OFFCURVE",
"227 186 OFFCURVE",
"224 185 CURVE",
"245 169 LINE",
"245 374 LINE SMOOTH",
"245 468 OFFCURVE",
"260 508 OFFCURVE",
"333 508 CURVE SMOOTH",
"405 508 OFFCURVE",
"420 468 OFFCURVE",
"420 374 CURVE SMOOTH",
"420 -6 LINE",
"547 -6 LINE",
"609 66 LINE",
"609 355 LINE SMOOTH",
"609 501 OFFCURVE",
"525 562 OFFCURVE",
"333 562 CURVE SMOOTH",
"140 562 OFFCURVE",
"56 501 OFFCURVE",
"56 355 CURVE SMOOTH",
"56 127 LINE SMOOTH",
"56 39 OFFCURVE",
"105 -10 OFFCURVE",
"196 -10 CURVE SMOOTH"
);
},
{
closed = 1;
nodes = (
"186 44 OFFCURVE",
"171 62 OFFCURVE",
"171 93 CURVE SMOOTH",
"171 124 OFFCURVE",
"186 142 OFFCURVE",
"219 142 CURVE SMOOTH",
"252 142 OFFCURVE",
"267 124 OFFCURVE",
"267 93 CURVE SMOOTH",
"267 62 OFFCURVE",
"252 44 OFFCURVE",
"219 44 CURVE SMOOTH"
);
}
);
width = 675;
}
);
note = uni0E94;
unicode = 0E94;
},
{
glyphname = "toTa-lao";
lastChange = "2017-01-30 17:18:59 +0000";
layers = (
{
anchors = (
{
name = bottom;
position = "{467, 0}";
},
{
name = top;
position = "{281, 538}";
}
);
layerId = "169B4CCF-67AF-4042-AA6F-C8E438F95C30";
paths = (
{
closed = 1;
nodes = (
"203 -10 OFFCURVE",
"234 16 OFFCURVE",
"234 63 CURVE SMOOTH",
"234 111 OFFCURVE",
"202 138 OFFCURVE",
"157 138 CURVE SMOOTH",
"136 138 OFFCURVE",
"118 132 OFFCURVE",
"106 118 CURVE",
"103 119 LINE",
"103 378 LINE SMOOTH",
"103 460 OFFCURVE",
"129 498 OFFCURVE",
"179 521 CURVE",
"265 436 LINE",
"277 436 LINE",
"363 521 LINE",
"413 498 OFFCURVE",
"439 460 OFFCURVE",
"439 378 CURVE SMOOTH",
"439 -6 LINE",
"449 -6 LINE",
"467 15 LINE",
"467 386 LINE SMOOTH",
"467 454 OFFCURVE",
"446 522 OFFCURVE",
"361 552 CURVE",
"273 463 LINE",
"270 463 LINE",
"181 552 LINE",
"96 522 OFFCURVE",
"75 454 OFFCURVE",
"75 386 CURVE SMOOTH",
"75 64 LINE SMOOTH",
"75 18 OFFCURVE",
"105 -10 OFFCURVE",
"155 -10 CURVE SMOOTH"
);
},
{
closed = 1;
nodes = (
"122 12 OFFCURVE",
"103 31 OFFCURVE",
"103 64 CURVE SMOOTH",
"103 97 OFFCURVE",
"122 116 OFFCURVE",
"156 116 CURVE SMOOTH",
"189 116 OFFCURVE",
"208 97 OFFCURVE",
"208 64 CURVE SMOOTH",
"208 31 OFFCURVE",
"188 12 OFFCURVE",
"155 12 CURVE SMOOTH"
);
}
);
width = 542;
},
{
anchors = (
{
name = bottom;
position = "{523, 0}";
},
{
name = top;
position = "{320, 536}";
}
);
layerId = "A12FF52C-901E-4F1C-B651-FD65F325A5D0";
paths = (
{
closed = 1;
nodes = (
"233 -10 OFFCURVE",
"270 24 OFFCURVE",
"270 82 CURVE SMOOTH",
"270 142 OFFCURVE",
"230 175 OFFCURVE",
"180 175 CURVE SMOOTH",
"166 175 OFFCURVE",
"149 172 OFFCURVE",
"150 171 CURVE",
"157 146 LINE",
"157 374 LINE SMOOTH",
"157 459 OFFCURVE",
"173 482 OFFCURVE",
"213 501 CURVE",
"292 441 LINE",
"296 441 LINE",
"375 501 LINE",
"414 482 OFFCURVE",
"431 459 OFFCURVE",
"431 374 CURVE SMOOTH",
"431 -6 LINE",
"469 -6 LINE",
"523 52 LINE",
"523 374 LINE SMOOTH",
"523 490 OFFCURVE",
"477 540 OFFCURVE",
"375 558 CURVE",
"296 493 LINE",
"292 493 LINE",
"213 558 LINE",
"111 540 OFFCURVE",
"65 490 OFFCURVE",
"65 374 CURVE SMOOTH",
"65 94 LINE SMOOTH",
"65 26 OFFCURVE",
"109 -10 OFFCURVE",
"172 -10 CURVE SMOOTH"
);
},
{
closed = 1;
nodes = (
"142 29 OFFCURVE",
"126 47 OFFCURVE",
"126 81 CURVE SMOOTH",
"126 115 OFFCURVE",
"142 133 OFFCURVE",
"174 133 CURVE SMOOTH",
"206 133 OFFCURVE",
"222 115 OFFCURVE",
"222 81 CURVE SMOOTH",
"222 47 OFFCURVE",
"206 29 OFFCURVE",
"174 29 CURVE SMOOTH"
);
}
);
width = 588;
},
{
anchors = (
{
name = bottom;
position = "{629, 0}";
},
{
name = top;
position = "{360, 536}";
}
);
layerId = "528596C4-5B9B-4A0D-91B5-66A38EFFCD2C";
paths = (
{
closed = 1;
nodes = (
"276 -10 OFFCURVE",
"322 27 OFFCURVE",
"322 95 CURVE SMOOTH",
"322 160 OFFCURVE",
"279 186 OFFCURVE",
"241 187 CURVE SMOOTH",
"238 187 OFFCURVE",
"232 187 OFFCURVE",
"224 187 CURVE",
"245 160 LINE",
"245 386 LINE SMOOTH",
"245 444 OFFCURVE",
"256 462 OFFCURVE",
"273 483 CURVE",
"340 429 LINE",
"345 429 LINE",
"412 483 LINE",
"429 462 OFFCURVE",
"440 444 OFFCURVE",
"440 386 CURVE SMOOTH",
"440 -6 LINE",
"567 -6 LINE",
"629 66 LINE",
"629 366 LINE SMOOTH",
"629 476 OFFCURVE",
"559 540 OFFCURVE",
"441 562 CURVE",
"345 482 LINE",
"342 482 LINE",
"244 562 LINE",
"126 540 OFFCURVE",
"56 476 OFFCURVE",
"56 366 CURVE SMOOTH",
"56 127 LINE SMOOTH",
"56 39 OFFCURVE",
"105 -10 OFFCURVE",
"197 -10 CURVE SMOOTH"
);
},
{
closed = 1;
nodes = (
"186 44 OFFCURVE",
"171 62 OFFCURVE",
"171 93 CURVE SMOOTH",
"171 124 OFFCURVE",
"186 142 OFFCURVE",
"219 142 CURVE SMOOTH",
"252 142 OFFCURVE",
"267 124 OFFCURVE",
"267 93 CURVE SMOOTH",
"267 62 OFFCURVE",
"252 44 OFFCURVE",
"219 44 CURVE SMOOTH"
);
}
);
width = 695;
}
);
note = uni0E95;
unicode = 0E95;
},
{
glyphname = "thoThong-lao";
lastChange = "2017-01-30 17:18:59 +0000";
layers = (
{
anchors = (
{
name = bottom;
position = "{428, 0}";
},
{
name = top;
position = "{342, 538}";
}
);
layerId = "169B4CCF-67AF-4042-AA6F-C8E438F95C30";
paths = (
{
closed = 1;
nodes = (
"493 -172 LINE",
"513 -147 LINE",
"513 431 LINE SMOOTH",
"513 520 OFFCURVE",
"436 552 OFFCURVE",
"370 552 CURVE SMOOTH",
"308 552 OFFCURVE",
"234 524 OFFCURVE",
"192 487 CURVE",
"188 528 OFFCURVE",
"159 552 OFFCURVE",
"113 552 CURVE SMOOTH",
"64 552 OFFCURVE",
"35 525 OFFCURVE",
"35 478 CURVE SMOOTH",
"35 431 OFFCURVE",
"64 404 OFFCURVE",
"109 404 CURVE SMOOTH",
"133 404 OFFCURVE",
"154 412 OFFCURVE",
"166 425 CURVE",
"169 424 LINE",
"169 77 LINE SMOOTH",
"169 28 OFFCURVE",
"198 -10 OFFCURVE",
"253 -10 CURVE SMOOTH",
"301 -10 OFFCURVE",
"331 19 OFFCURVE",
"331 64 CURVE SMOOTH",
"331 111 OFFCURVE",
"299 138 OFFCURVE",
"255 138 CURVE SMOOTH",
"232 138 OFFCURVE",
"212 131 OFFCURVE",
"200 118 CURVE",
"197 119 LINE",
"197 461 LINE",
"243 502 OFFCURVE",
"312 527 OFFCURVE",
"367 527 CURVE SMOOTH",
"423 527 OFFCURVE",
"485 501 OFFCURVE",
"485 435 CURVE SMOOTH",
"485 -172 LINE"
);
},
{
closed = 1;
nodes = (
"218 12 OFFCURVE",
"198 31 OFFCURVE",
"198 64 CURVE SMOOTH",
"198 97 OFFCURVE",
"218 116 OFFCURVE",
"252 116 CURVE SMOOTH",
"285 116 OFFCURVE",
"305 97 OFFCURVE",
"305 64 CURVE SMOOTH",
"305 31 OFFCURVE",
"284 12 OFFCURVE",
"251 12 CURVE SMOOTH"
);
},
{
closed = 1;
nodes = (
"80 426 OFFCURVE",
"61 445 OFFCURVE",
"61 478 CURVE SMOOTH",
"61 511 OFFCURVE",
"81 530 OFFCURVE",
"114 530 CURVE SMOOTH",
"147 530 OFFCURVE",
"166 511 OFFCURVE",
"166 478 CURVE SMOOTH",
"166 445 OFFCURVE",
"146 426 OFFCURVE",
"113 426 CURVE SMOOTH"
);
}
);
width = 588;
},
{
anchors = (
{
name = bottom;
position = "{429, 0}";
},
{
name = top;
position = "{361, 536}";
}
);
layerId = "A12FF52C-901E-4F1C-B651-FD65F325A5D0";
paths = (
{
closed = 1;
nodes = (
"514 -170 LINE",
"568 -113 LINE",
"568 401 LINE SMOOTH",
"568 497 OFFCURVE",
"511 558 OFFCURVE",
"403 558 CURVE SMOOTH",
"327 558 OFFCURVE",
"268 528 OFFCURVE",
"224 493 CURVE",
"210 536 OFFCURVE",
"173 558 OFFCURVE",
"123 558 CURVE SMOOTH",
"62 558 OFFCURVE",
"25 524 OFFCURVE",
"25 466 CURVE SMOOTH",
"25 406 OFFCURVE",
"65 374 OFFCURVE",
"115 374 CURVE SMOOTH",
"129 374 OFFCURVE",
"143 374 OFFCURVE",
"152 380 CURVE",
"138 402 LINE",
"138 94 LINE SMOOTH",
"138 26 OFFCURVE",
"182 -10 OFFCURVE",
"245 -10 CURVE SMOOTH",
"306 -10 OFFCURVE",
"343 24 OFFCURVE",
"343 82 CURVE SMOOTH",
"343 142 OFFCURVE",
"303 175 OFFCURVE",
"253 175 CURVE SMOOTH",
"239 175 OFFCURVE",
"225 172 OFFCURVE",
"216 171 CURVE",
"230 146 LINE",
"230 445 LINE",
"275 486 OFFCURVE",
"328 509 OFFCURVE",
"380 509 CURVE SMOOTH",
"452 509 OFFCURVE",
"476 464 OFFCURVE",
"476 392 CURVE SMOOTH",
"476 -170 LINE"
);
},
{
closed = 1;
nodes = (
"215 29 OFFCURVE",
"199 47 OFFCURVE",
"199 81 CURVE SMOOTH",
"199 115 OFFCURVE",
"215 133 OFFCURVE",
"247 133 CURVE SMOOTH",
"279 133 OFFCURVE",
"295 115 OFFCURVE",
"295 81 CURVE SMOOTH",
"295 47 OFFCURVE",
"279 29 OFFCURVE",
"247 29 CURVE SMOOTH"
);
},
{
closed = 1;
nodes = (
"89 416 OFFCURVE",
"73 433 OFFCURVE",
"73 467 CURVE SMOOTH",
"73 501 OFFCURVE",
"89 519 OFFCURVE",
"121 519 CURVE SMOOTH",
"153 519 OFFCURVE",
"169 501 OFFCURVE",
"169 467 CURVE SMOOTH",
"169 433 OFFCURVE",
"153 416 OFFCURVE",
"121 416 CURVE SMOOTH"
);
}
);
width = 633;
},
{
anchors = (
{
name = bottom;
position = "{404, 0}";
},
{
name = top;
position = "{373, 536}";
}
);
layerId = "528596C4-5B9B-4A0D-91B5-66A38EFFCD2C";
paths = (
{
closed = 1;
nodes = (
"578 -206 LINE",
"640 -134 LINE",
"640 383 LINE SMOOTH",
"640 501 OFFCURVE",
"544 562 OFFCURVE",
"439 562 CURVE SMOOTH",
"364 562 OFFCURVE",
"301 531 OFFCURVE",
"276 486 CURVE",
"258 534 OFFCURVE",
"214 562 OFFCURVE",
"145 562 CURVE SMOOTH",
"66 562 OFFCURVE",
"20 525 OFFCURVE",
"20 458 CURVE SMOOTH",
"20 391 OFFCURVE",
"66 365 OFFCURVE",
"99 365 CURVE SMOOTH",
"103 365 OFFCURVE",
"109 365 OFFCURVE",
"113 365 CURVE",
"97 392 LINE",
"97 127 LINE SMOOTH",
"97 39 OFFCURVE",
"147 -10 OFFCURVE",
"239 -10 CURVE SMOOTH",
"318 -10 OFFCURVE",
"364 27 OFFCURVE",
"364 94 CURVE SMOOTH",
"364 160 OFFCURVE",
"321 185 OFFCURVE",
"283 187 CURVE SMOOTH",
"279 187 OFFCURVE",
"274 187 OFFCURVE",
"270 187 CURVE",
"286 160 LINE",
"286 430 LINE",
"309 469 OFFCURVE",
"351 500 OFFCURVE",
"393 500 CURVE SMOOTH",
"424 500 OFFCURVE",
"451 484 OFFCURVE",
"451 443 CURVE SMOOTH",
"451 -206 LINE"
);
},
{
closed = 1;
nodes = (
"228 44 OFFCURVE",
"213 62 OFFCURVE",
"213 93 CURVE SMOOTH",
"213 124 OFFCURVE",
"228 142 OFFCURVE",
"261 142 CURVE SMOOTH",
"294 142 OFFCURVE",
"308 124 OFFCURVE",
"308 93 CURVE SMOOTH",
"308 62 OFFCURVE",
"294 44 OFFCURVE",
"261 44 CURVE SMOOTH"
);
},
{
closed = 1;
nodes = (
"90 410 OFFCURVE",
"75 428 OFFCURVE",
"75 459 CURVE SMOOTH",
"75 490 OFFCURVE",
"90 508 OFFCURVE",
"123 508 CURVE SMOOTH",
"156 508 OFFCURVE",
"171 490 OFFCURVE",
"171 459 CURVE SMOOTH",
"171 428 OFFCURVE",
"156 410 OFFCURVE",
"123 410 CURVE SMOOTH"
);
}
);
width = 706;
}
);
note = uni0E96;
unicode = 0E96;
},
{
glyphname = "thoThung-lao";
lastChange = "2017-01-30 17:18:59 +0000";
layers = (
{
anchors = (
{
name = bottom;
position = "{610, 0}";
},
{
name = top;
position = "{394, 538}";
}
);
layerId = "169B4CCF-67AF-4042-AA6F-C8E438F95C30";
paths = (
{
closed = 1;
nodes = (
"369 -10 OFFCURVE",
"402 47 OFFCURVE",
"402 128 CURVE SMOOTH",
"402 416 LINE SMOOTH",
"402 485 OFFCURVE",
"427 527 OFFCURVE",
"490 527 CURVE SMOOTH",
"556 527 OFFCURVE",
"582 482 OFFCURVE",
"582 416 CURVE SMOOTH",
"582 -4 LINE",
"590 -4 LINE",
"610 21 LINE",
"610 414 LINE SMOOTH",
"610 495 OFFCURVE",
"577 552 OFFCURVE",
"491 552 CURVE SMOOTH",
"409 552 OFFCURVE",
"374 499 OFFCURVE",
"374 414 CURVE SMOOTH",
"374 126 LINE SMOOTH",
"374 60 OFFCURVE",
"348 15 OFFCURVE",
"282 15 CURVE SMOOTH",
"219 15 OFFCURVE",
"194 57 OFFCURVE",
"194 126 CURVE SMOOTH",
"194 478 LINE SMOOTH",
"194 524 OFFCURVE",
"164 552 OFFCURVE",
"114 552 CURVE SMOOTH",
"66 552 OFFCURVE",
"35 526 OFFCURVE",
"35 479 CURVE SMOOTH",
"35 431 OFFCURVE",
"67 404 OFFCURVE",
"112 404 CURVE SMOOTH",
"133 404 OFFCURVE",
"151 410 OFFCURVE",
"163 424 CURVE",
"166 423 LINE",
"166 128 LINE SMOOTH",
"166 43 OFFCURVE",
"201 -10 OFFCURVE",
"283 -10 CURVE SMOOTH"
);
},
{
closed = 1;
nodes = (
"80 426 OFFCURVE",
"61 445 OFFCURVE",
"61 478 CURVE SMOOTH",
"61 511 OFFCURVE",
"81 530 OFFCURVE",
"114 530 CURVE SMOOTH",
"147 530 OFFCURVE",
"166 511 OFFCURVE",
"166 478 CURVE SMOOTH",
"166 445 OFFCURVE",
"147 426 OFFCURVE",
"113 426 CURVE SMOOTH"
);
}
);
width = 685;
},
{
anchors = (
{
name = bottom;
position = "{663, 0}";
},
{
name = top;
position = "{435, 536}";
}
);
layerId = "A12FF52C-901E-4F1C-B651-FD65F325A5D0";
paths = (
{
closed = 1;
nodes = (
"399 -10 OFFCURVE",
"433 45 OFFCURVE",
"433 114 CURVE SMOOTH",
"433 443 LINE SMOOTH",
"433 482 OFFCURVE",
"458 509 OFFCURVE",
"502 509 CURVE SMOOTH",
"547 509 OFFCURVE",
"571 482 OFFCURVE",
"571 443 CURVE SMOOTH",
"571 -6 LINE",
"610 -6 LINE",
"663 52 LINE",
"663 438 LINE SMOOTH",
"663 502 OFFCURVE",
"619 558 OFFCURVE",
"507 558 CURVE SMOOTH",
"395 558 OFFCURVE",
"354 502 OFFCURVE",
"354 438 CURVE SMOOTH",
"354 102 LINE SMOOTH",
"354 69 OFFCURVE",
"336 39 OFFCURVE",
"292 39 CURVE SMOOTH",
"247 39 OFFCURVE",
"230 69 OFFCURVE",
"230 102 CURVE SMOOTH",
"230 454 LINE SMOOTH",
"230 522 OFFCURVE",
"185 558 OFFCURVE",
"122 558 CURVE SMOOTH",
"61 558 OFFCURVE",
"25 524 OFFCURVE",
"25 466 CURVE SMOOTH",
"25 406 OFFCURVE",
"65 374 OFFCURVE",
"115 374 CURVE SMOOTH",
"127 374 OFFCURVE",
"141 375 OFFCURVE",
"149 378 CURVE",
"138 387 LINE",
"138 114 LINE SMOOTH",
"138 45 OFFCURVE",
"175 -10 OFFCURVE",
"287 -10 CURVE SMOOTH"
);
},
{
closed = 1;
nodes = (
"89 416 OFFCURVE",
"73 433 OFFCURVE",
"73 467 CURVE SMOOTH",
"73 501 OFFCURVE",
"89 519 OFFCURVE",
"120 519 CURVE SMOOTH",
"152 519 OFFCURVE",
"168 501 OFFCURVE",
"168 467 CURVE SMOOTH",
"168 433 OFFCURVE",
"152 416 OFFCURVE",
"120 416 CURVE SMOOTH"
);
}
);
width = 728;
},
{
anchors = (
{
name = bottom;
position = "{762, 0}";
},
{
name = top;
position = "{485, 536}";
}
);
layerId = "528596C4-5B9B-4A0D-91B5-66A38EFFCD2C";
paths = (
{
closed = 1;
nodes = (
"456 -12 OFFCURVE",
"495 34 OFFCURVE",
"495 121 CURVE SMOOTH",
"495 464 LINE SMOOTH",
"495 490 OFFCURVE",
"509 504 OFFCURVE",
"534 504 CURVE SMOOTH",
"558 504 OFFCURVE",
"573 490 OFFCURVE",
"573 464 CURVE SMOOTH",
"573 -6 LINE",
"700 -6 LINE",
"762 66 LINE",
"762 431 LINE SMOOTH",
"762 524 OFFCURVE",
"698 562 OFFCURVE",
"573 562 CURVE SMOOTH",
"440 562 OFFCURVE",
"376 519 OFFCURVE",
"376 429 CURVE SMOOTH",
"376 86 LINE SMOOTH",
"376 60 OFFCURVE",
"361 46 OFFCURVE",
"337 46 CURVE SMOOTH",
"313 46 OFFCURVE",
"298 60 OFFCURVE",
"298 86 CURVE SMOOTH",
"298 425 LINE SMOOTH",
"298 513 OFFCURVE",
"251 562 OFFCURVE",
"151 562 CURVE SMOOTH",
"66 562 OFFCURVE",
"20 526 OFFCURVE",
"20 460 CURVE SMOOTH",
"20 399 OFFCURVE",
"60 365 OFFCURVE",
"111 365 CURVE SMOOTH",
"117 365 OFFCURVE",
"122 365 OFFCURVE",
"128 366 CURVE",
"109 386 LINE",
"109 119 LINE SMOOTH",
"109 23 OFFCURVE",
"175 -12 OFFCURVE",
"306 -12 CURVE SMOOTH"
);
},
{
closed = 1;
nodes = (
"90 410 OFFCURVE",
"75 428 OFFCURVE",
"75 459 CURVE SMOOTH",
"75 490 OFFCURVE",
"90 508 OFFCURVE",
"123 508 CURVE SMOOTH",
"156 508 OFFCURVE",
"171 490 OFFCURVE",
"171 459 CURVE SMOOTH",
"171 428 OFFCURVE",
"156 410 OFFCURVE",
"123 410 CURVE SMOOTH"
);
}
);
width = 828;
}
);
note = uni0E97;
unicode = 0E97;
},
{
glyphname = "noNok-lao";
lastChange = "2017-01-30 17:18:59 +0000";
layers = (
{
anchors = (
{
name = bottom;
position = "{487, 0}";
},
{
name = top;
position = "{328, 538}";
}
);
layerId = "169B4CCF-67AF-4042-AA6F-C8E438F95C30";
paths = (
{
closed = 1;
nodes = (
"169 -9 OFFCURVE",
"194 36 OFFCURVE",
"194 123 CURVE SMOOTH",
"194 478 LINE SMOOTH",
"194 524 OFFCURVE",
"164 552 OFFCURVE",
"114 552 CURVE SMOOTH",
"66 552 OFFCURVE",
"35 526 OFFCURVE",
"35 479 CURVE SMOOTH",
"35 431 OFFCURVE",
"67 404 OFFCURVE",
"112 404 CURVE SMOOTH",
"133 404 OFFCURVE",
"151 410 OFFCURVE",
"163 424 CURVE",
"166 423 LINE",
"166 96 LINE SMOOTH",
"166 42 OFFCURVE",
"140 15 OFFCURVE",
"77 15 CURVE",
"77 -9 LINE"
);
},
{
closed = 1;
nodes = (
"80 426 OFFCURVE",
"61 445 OFFCURVE",
"61 478 CURVE SMOOTH",
"61 511 OFFCURVE",
"81 530 OFFCURVE",
"114 530 CURVE SMOOTH",
"147 530 OFFCURVE",
"166 511 OFFCURVE",
"166 478 CURVE SMOOTH",
"166 445 OFFCURVE",
"147 426 OFFCURVE",
"113 426 CURVE SMOOTH"
);
},
{
closed = 1;
nodes = (
"450 -10 OFFCURVE",
"497 37 OFFCURVE",
"497 141 CURVE SMOOTH",
"497 548 LINE",
"487 548 LINE",
"469 527 LINE",
"469 139 LINE SMOOTH",
"469 49 OFFCURVE",
"428 14 OFFCURVE",
"359 14 CURVE SMOOTH",
"285 14 OFFCURVE",
"231 55 OFFCURVE",
"188 119 CURVE",
"182 97 LINE",
"223 32 OFFCURVE",
"277 -10 OFFCURVE",
"361 -10 CURVE SMOOTH"
);
}
);
width = 572;
},
{
anchors = (
{
name = bottom;
position = "{531, 0}";
},
{
name = top;
position = "{340, 536}";
}
);
layerId = "A12FF52C-901E-4F1C-B651-FD65F325A5D0";
paths = (
{
closed = 1;
nodes = (
"172 -8 OFFCURVE",
"230 47 OFFCURVE",
"230 156 CURVE SMOOTH",
"230 454 LINE SMOOTH",
"230 522 OFFCURVE",
"185 558 OFFCURVE",
"122 558 CURVE SMOOTH",
"61 558 OFFCURVE",
"25 524 OFFCURVE",
"25 466 CURVE SMOOTH",
"25 406 OFFCURVE",
"65 374 OFFCURVE",
"115 374 CURVE SMOOTH",
"127 374 OFFCURVE",
"139 374 OFFCURVE",
"149 380 CURVE",
"138 393 LINE",
"138 156 LINE SMOOTH",
"138 75 OFFCURVE",
"114 52 OFFCURVE",
"59 52 CURVE",
"59 -8 LINE"
);
},
{
closed = 1;
nodes = (
"89 416 OFFCURVE",
"73 433 OFFCURVE",
"73 467 CURVE SMOOTH",
"73 501 OFFCURVE",
"89 519 OFFCURVE",
"120 519 CURVE SMOOTH",
"152 519 OFFCURVE",
"168 501 OFFCURVE",
"168 467 CURVE SMOOTH",
"168 433 OFFCURVE",
"152 416 OFFCURVE",
"120 416 CURVE SMOOTH"
);
},
{
closed = 1;
nodes = (
"477 -10 OFFCURVE",
"541 44 OFFCURVE",
"541 144 CURVE SMOOTH",
"541 552 LINE",
"503 552 LINE",
"449 494 LINE",
"449 137 LINE SMOOTH",
"449 76 OFFCURVE",
"422 39 OFFCURVE",
"350 39 CURVE SMOOTH",
"295 39 OFFCURVE",
"243 61 OFFCURVE",
"215 103 CURVE",
"195 60 LINE",
"238 15 OFFCURVE",
"287 -10 OFFCURVE",
"364 -10 CURVE SMOOTH"
);
}
);
width = 606;
},
{
anchors = (
{
name = bottom;
position = "{649, 0}";
},
{
name = top;
position = "{394, 536}";
}
);
layerId = "528596C4-5B9B-4A0D-91B5-66A38EFFCD2C";
paths = (
{
closed = 1;
nodes = (
"235 -11 OFFCURVE",
"314 41 OFFCURVE",
"314 147 CURVE SMOOTH",
"314 425 LINE SMOOTH",
"314 513 OFFCURVE",
"267 562 OFFCURVE",
"167 562 CURVE SMOOTH",
"82 562 OFFCURVE",
"36 526 OFFCURVE",
"36 459 CURVE SMOOTH",
"36 398 OFFCURVE",
"74 365 OFFCURVE",
"131 365 CURVE SMOOTH",
"135 365 OFFCURVE",
"140 365 OFFCURVE",
"144 366 CURVE",
"125 387 LINE",
"125 136 LINE SMOOTH",
"125 75 OFFCURVE",
"117 48 OFFCURVE",
"62 48 CURVE",
"62 -12 LINE"
);
},
{
closed = 1;
nodes = (
"106 410 OFFCURVE",
"91 428 OFFCURVE",
"91 459 CURVE SMOOTH",
"91 490 OFFCURVE",
"106 508 OFFCURVE",
"139 508 CURVE SMOOTH",
"172 508 OFFCURVE",
"187 490 OFFCURVE",
"187 459 CURVE SMOOTH",
"187 428 OFFCURVE",
"172 410 OFFCURVE",
"139 410 CURVE SMOOTH"
);
},
{
closed = 1;
nodes = (
"561 -12 OFFCURVE",
"659 49 OFFCURVE",
"659 167 CURVE SMOOTH",
"659 552 LINE",
"532 552 LINE",
"470 480 LINE",
"470 108 LINE SMOOTH",
"470 67 OFFCURVE",
"443 51 OFFCURVE",
"414 51 CURVE SMOOTH",
"368 51 OFFCURVE",
"325 90 OFFCURVE",
"302 132 CURVE",
"280 80 LINE",
"304 32 OFFCURVE",
"378 -12 OFFCURVE",
"462 -12 CURVE SMOOTH"
);
}
);
width = 725;
}
);
note = uni0E99;
unicode = 0E99;
},
{
glyphname = "boBae-lao";
lastChange = "2017-01-30 17:18:59 +0000";
layers = (
{
anchors = (
{
name = bottom;
position = "{512, 0}";
},
{
name = top;
position = "{350, 538}";
}
);
layerId = "169B4CCF-67AF-4042-AA6F-C8E438F95C30";
paths = (
{
closed = 1;
nodes = (
"460 -10 OFFCURVE",
"522 48 OFFCURVE",
"522 148 CURVE SMOOTH",
"522 548 LINE",
"512 548 LINE",
"494 527 LINE",
"494 146 LINE SMOOTH",
"494 60 OFFCURVE",
"438 15 OFFCURVE",
"342 15 CURVE SMOOTH",
"249 15 OFFCURVE",
"194 57 OFFCURVE",
"194 146 CURVE SMOOTH",
"194 478 LINE SMOOTH",
"194 524 OFFCURVE",
"164 552 OFFCURVE",
"114 552 CURVE SMOOTH",
"66 552 OFFCURVE",
"35 526 OFFCURVE",
"35 479 CURVE SMOOTH",
"35 431 OFFCURVE",
"67 404 OFFCURVE",
"112 404 CURVE SMOOTH",
"133 404 OFFCURVE",
"151 410 OFFCURVE",
"163 424 CURVE",
"166 423 LINE",
"166 148 LINE SMOOTH",
"166 42 OFFCURVE",
"232 -10 OFFCURVE",
"343 -10 CURVE SMOOTH"
);
},
{
closed = 1;
nodes = (
"80 426 OFFCURVE",
"61 445 OFFCURVE",
"61 478 CURVE SMOOTH",
"61 511 OFFCURVE",
"81 530 OFFCURVE",
"114 530 CURVE SMOOTH",
"147 530 OFFCURVE",
"166 511 OFFCURVE",
"166 478 CURVE SMOOTH",
"166 445 OFFCURVE",
"147 426 OFFCURVE",
"113 426 CURVE SMOOTH"
);
}
);
width = 597;
},
{
anchors = (
{
name = bottom;
position = "{560, 0}";
},
{
name = top;
position = "{360, 536}";
}
);
layerId = "A12FF52C-901E-4F1C-B651-FD65F325A5D0";
paths = (
{
closed = 1;
nodes = (
"494 -10 OFFCURVE",
"570 54 OFFCURVE",
"570 171 CURVE SMOOTH",
"570 552 LINE",
"532 552 LINE",
"478 494 LINE",
"478 165 LINE SMOOTH",
"478 88 OFFCURVE",
"440 39 OFFCURVE",
"353 39 CURVE SMOOTH",
"266 39 OFFCURVE",
"230 88 OFFCURVE",
"230 165 CURVE SMOOTH",
"230 454 LINE SMOOTH",
"230 522 OFFCURVE",
"185 558 OFFCURVE",
"122 558 CURVE SMOOTH",
"61 558 OFFCURVE",
"25 524 OFFCURVE",
"25 467 CURVE SMOOTH",
"25 406 OFFCURVE",
"65 374 OFFCURVE",
"113 374 CURVE SMOOTH",
"128 374 OFFCURVE",
"144 377 OFFCURVE",
"149 378 CURVE",
"138 390 LINE",
"138 171 LINE SMOOTH",
"138 54 OFFCURVE",
"214 -10 OFFCURVE",
"354 -10 CURVE SMOOTH"
);
},
{
closed = 1;
nodes = (
"89 416 OFFCURVE",
"73 433 OFFCURVE",
"73 467 CURVE SMOOTH",
"73 501 OFFCURVE",
"89 519 OFFCURVE",
"120 519 CURVE SMOOTH",
"152 519 OFFCURVE",
"168 501 OFFCURVE",
"168 467 CURVE SMOOTH",
"168 433 OFFCURVE",
"152 416 OFFCURVE",
"120 416 CURVE SMOOTH"
);
}
);
width = 635;
},
{
anchors = (
{
name = bottom;
position = "{642, 0}";
},
{
name = top;
position = "{402, 536}";
}
);
layerId = "528596C4-5B9B-4A0D-91B5-66A38EFFCD2C";
paths = (
{
closed = 1;
nodes = (
"574 -12 OFFCURVE",
"652 44 OFFCURVE",
"652 185 CURVE SMOOTH",
"652 552 LINE",
"526 552 LINE",
"463 479 LINE",
"463 146 LINE SMOOTH",
"463 77 OFFCURVE",
"448 42 OFFCURVE",
"381 42 CURVE SMOOTH",
"313 42 OFFCURVE",
"298 77 OFFCURVE",
"298 146 CURVE SMOOTH",
"298 425 LINE SMOOTH",
"298 513 OFFCURVE",
"251 562 OFFCURVE",
"151 562 CURVE SMOOTH",
"66 562 OFFCURVE",
"20 526 OFFCURVE",
"20 460 CURVE SMOOTH",
"20 399 OFFCURVE",
"60 365 OFFCURVE",
"111 365 CURVE SMOOTH",
"117 365 OFFCURVE",
"122 365 OFFCURVE",
"128 366 CURVE",
"109 386 LINE",
"109 185 LINE SMOOTH",
"109 44 OFFCURVE",
"188 -12 OFFCURVE",
"381 -12 CURVE SMOOTH"
);
},
{
closed = 1;
nodes = (
"90 410 OFFCURVE",
"75 428 OFFCURVE",
"75 459 CURVE SMOOTH",
"75 490 OFFCURVE",
"90 508 OFFCURVE",
"123 508 CURVE SMOOTH",
"156 508 OFFCURVE",
"171 490 OFFCURVE",
"171 459 CURVE SMOOTH",
"171 428 OFFCURVE",
"156 410 OFFCURVE",
"123 410 CURVE SMOOTH"
);
}
);
width = 718;
}
);
note = uni0E9A;
unicode = 0E9A;
},
{
glyphname = "poPa-lao";
lastChange = "2017-01-30 17:18:59 +0000";
layers = (
{
anchors = (
{
name = bottom;
position = "{512, 0}";
},
{
name = top;
position = "{306, 538}";
}
);
layerId = "169B4CCF-67AF-4042-AA6F-C8E438F95C30";
paths = (
{
closed = 1;
nodes = (
"460 -10 OFFCURVE",
"522 48 OFFCURVE",
"522 148 CURVE SMOOTH",
"522 772 LINE",
"512 772 LINE",
"494 751 LINE",
"494 146 LINE SMOOTH",
"494 60 OFFCURVE",
"438 15 OFFCURVE",
"342 15 CURVE SMOOTH",
"249 15 OFFCURVE",
"194 57 OFFCURVE",
"194 146 CURVE SMOOTH",
"194 478 LINE SMOOTH",
"194 524 OFFCURVE",
"164 552 OFFCURVE",
"114 552 CURVE SMOOTH",
"66 552 OFFCURVE",
"35 526 OFFCURVE",
"35 479 CURVE SMOOTH",
"35 431 OFFCURVE",
"67 404 OFFCURVE",
"112 404 CURVE SMOOTH",
"133 404 OFFCURVE",
"151 410 OFFCURVE",
"163 424 CURVE",
"166 423 LINE",
"166 148 LINE SMOOTH",
"166 42 OFFCURVE",
"232 -10 OFFCURVE",
"343 -10 CURVE SMOOTH"
);
},
{
closed = 1;
nodes = (
"80 426 OFFCURVE",
"61 445 OFFCURVE",
"61 478 CURVE SMOOTH",
"61 511 OFFCURVE",
"81 530 OFFCURVE",
"114 530 CURVE SMOOTH",
"147 530 OFFCURVE",
"166 511 OFFCURVE",
"166 478 CURVE SMOOTH",
"166 445 OFFCURVE",
"147 426 OFFCURVE",
"113 426 CURVE SMOOTH"
);
}
);
width = 607;
},
{
anchors = (
{
name = bottom;
position = "{560, 0}";
},
{
name = top;
position = "{309, 536}";
}
);
layerId = "A12FF52C-901E-4F1C-B651-FD65F325A5D0";
paths = (
{
closed = 1;
nodes = (
"494 -10 OFFCURVE",
"570 54 OFFCURVE",
"570 171 CURVE SMOOTH",
"570 772 LINE",
"532 772 LINE",
"478 714 LINE",
"478 165 LINE SMOOTH",
"478 88 OFFCURVE",
"440 39 OFFCURVE",
"353 39 CURVE SMOOTH",
"266 39 OFFCURVE",
"230 88 OFFCURVE",
"230 165 CURVE SMOOTH",
"230 454 LINE SMOOTH",
"230 522 OFFCURVE",
"185 558 OFFCURVE",
"122 558 CURVE SMOOTH",
"61 558 OFFCURVE",
"25 524 OFFCURVE",
"25 467 CURVE SMOOTH",
"25 406 OFFCURVE",
"65 374 OFFCURVE",
"113 374 CURVE SMOOTH",
"128 374 OFFCURVE",
"144 377 OFFCURVE",
"149 378 CURVE",
"138 391 LINE",
"138 171 LINE SMOOTH",
"138 54 OFFCURVE",
"214 -10 OFFCURVE",
"354 -10 CURVE SMOOTH"
);
},
{
closed = 1;
nodes = (
"89 416 OFFCURVE",
"73 433 OFFCURVE",
"73 467 CURVE SMOOTH",
"73 501 OFFCURVE",
"89 519 OFFCURVE",
"120 519 CURVE SMOOTH",
"152 519 OFFCURVE",
"168 501 OFFCURVE",
"168 467 CURVE SMOOTH",
"168 433 OFFCURVE",
"152 416 OFFCURVE",
"120 416 CURVE SMOOTH"
);
}
);
width = 645;
},
{
anchors = (
{
name = bottom;
position = "{652, 0}";
},
{
name = top;
position = "{294, 536}";
}
);
layerId = "528596C4-5B9B-4A0D-91B5-66A38EFFCD2C";
paths = (
{
closed = 1;
nodes = (
"579 -12 OFFCURVE",
"662 44 OFFCURVE",
"662 185 CURVE SMOOTH",
"662 774 LINE",
"536 774 LINE",
"473 701 LINE",
"473 146 LINE SMOOTH",
"473 72 OFFCURVE",
"453 42 OFFCURVE",
"386 42 CURVE SMOOTH",
"318 42 OFFCURVE",
"298 72 OFFCURVE",
"298 146 CURVE SMOOTH",
"298 425 LINE SMOOTH",
"298 513 OFFCURVE",
"251 562 OFFCURVE",
"151 562 CURVE SMOOTH",
"66 562 OFFCURVE",
"20 526 OFFCURVE",
"20 460 CURVE SMOOTH",
"20 399 OFFCURVE",
"60 365 OFFCURVE",
"111 365 CURVE SMOOTH",
"117 365 OFFCURVE",
"122 365 OFFCURVE",
"128 366 CURVE",
"109 386 LINE",
"109 185 LINE SMOOTH",
"109 44 OFFCURVE",
"193 -12 OFFCURVE",
"386 -12 CURVE SMOOTH"
);
},
{
closed = 1;
nodes = (
"90 410 OFFCURVE",
"75 428 OFFCURVE",
"75 459 CURVE SMOOTH",
"75 490 OFFCURVE",
"90 508 OFFCURVE",
"123 508 CURVE SMOOTH",
"156 508 OFFCURVE",
"171 490 OFFCURVE",
"171 459 CURVE SMOOTH",
"171 428 OFFCURVE",
"156 410 OFFCURVE",
"123 410 CURVE SMOOTH"
);
}
);
width = 738;
}
);
note = uni0E9B;
unicode = 0E9B;
},
{
glyphname = "phoPhueng-lao";
lastChange = "2017-01-30 17:18:59 +0000";
layers = (
{
anchors = (
{
name = bottom;
position = "{513, 0}";
},
{
name = top;
position = "{337, 538}";
}
);
layerId = "169B4CCF-67AF-4042-AA6F-C8E438F95C30";
paths = (
{
closed = 1;
nodes = (
"240 -10 OFFCURVE",
"276 12 OFFCURVE",
"298 67 CURVE",
"300 67 LINE",
"322 12 OFFCURVE",
"358 -10 OFFCURVE",
"409 -10 CURVE SMOOTH",
"481 -10 OFFCURVE",
"523 33 OFFCURVE",
"523 128 CURVE SMOOTH",
"523 478 LINE SMOOTH",
"523 524 OFFCURVE",
"492 552 OFFCURVE",
"443 552 CURVE SMOOTH",
"394 552 OFFCURVE",
"363 523 OFFCURVE",
"363 479 CURVE SMOOTH",
"363 434 OFFCURVE",
"395 405 OFFCURVE",
"441 405 CURVE SMOOTH",
"462 405 OFFCURVE",
"483 411 OFFCURVE",
"495 423 CURVE",
"495 124 LINE SMOOTH",
"495 47 OFFCURVE",
"466 15 OFFCURVE",
"410 15 CURVE SMOOTH",
"340 15 OFFCURVE",
"313 66 OFFCURVE",
"313 140 CURVE SMOOTH",
"313 307 LINE",
"285 307 LINE",
"285 140 LINE SMOOTH",
"285 66 OFFCURVE",
"258 15 OFFCURVE",
"188 15 CURVE SMOOTH",
"132 15 OFFCURVE",
"103 47 OFFCURVE",
"103 124 CURVE SMOOTH",
"103 423 LINE",
"115 411 OFFCURVE",
"136 405 OFFCURVE",
"157 405 CURVE SMOOTH",
"203 405 OFFCURVE",
"235 434 OFFCURVE",
"235 479 CURVE SMOOTH",
"235 523 OFFCURVE",
"204 552 OFFCURVE",
"155 552 CURVE SMOOTH",
"106 552 OFFCURVE",
"75 524 OFFCURVE",
"75 478 CURVE SMOOTH",
"75 128 LINE SMOOTH",
"75 33 OFFCURVE",
"117 -10 OFFCURVE",
"189 -10 CURVE SMOOTH"
);
},
{
closed = 1;
nodes = (
"122 426 OFFCURVE",
"104 445 OFFCURVE",
"104 478 CURVE SMOOTH",
"104 511 OFFCURVE",
"123 530 OFFCURVE",
"156 530 CURVE SMOOTH",
"189 530 OFFCURVE",
"209 511 OFFCURVE",
"209 478 CURVE SMOOTH",
"209 445 OFFCURVE",
"190 426 OFFCURVE",
"156 426 CURVE SMOOTH"
);
},
{
closed = 1;
nodes = (
"408 426 OFFCURVE",
"389 445 OFFCURVE",
"389 478 CURVE SMOOTH",
"389 511 OFFCURVE",
"409 530 OFFCURVE",
"442 530 CURVE SMOOTH",
"475 530 OFFCURVE",
"494 511 OFFCURVE",
"494 478 CURVE SMOOTH",
"494 445 OFFCURVE",
"476 426 OFFCURVE",
"442 426 CURVE SMOOTH"
);
},
{
closed = 1;
nodes = (
"552 476 OFFCURVE",
"562 509 OFFCURVE",
"562 544 CURVE SMOOTH",
"562 571 OFFCURVE",
"556 585 OFFCURVE",
"540 585 CURVE SMOOTH",
"536 585 OFFCURVE",
"532 584 OFFCURVE",
"527 582 CURVE",
"532 571 OFFCURVE",
"535 557 OFFCURVE",
"535 544 CURVE SMOOTH",
"535 514 OFFCURVE",
"523 482 OFFCURVE",
"507 463 CURVE",
"507 444 LINE"
);
}
);
width = 607;
},
{
anchors = (
{
name = bottom;
position = "{607, 0}";
},
{
name = top;
position = "{360, 536}";
}
);
layerId = "A12FF52C-901E-4F1C-B651-FD65F325A5D0";
paths = (
{
closed = 1;
nodes = (
"269 -10 OFFCURVE",
"324 20 OFFCURVE",
"339 79 CURVE",
"343 79 LINE",
"358 20 OFFCURVE",
"414 -10 OFFCURVE",
"479 -10 CURVE SMOOTH",
"570 -10 OFFCURVE",
"617 49 OFFCURVE",
"617 127 CURVE SMOOTH",
"617 454 LINE SMOOTH",
"617 522 OFFCURVE",
"573 558 OFFCURVE",
"510 558 CURVE SMOOTH",
"449 558 OFFCURVE",
"412 524 OFFCURVE",
"412 466 CURVE SMOOTH",
"412 406 OFFCURVE",
"452 374 OFFCURVE",
"502 374 CURVE SMOOTH",
"510 374 OFFCURVE",
"519 374 OFFCURVE",
"525 375 CURVE",
"525 124 LINE SMOOTH",
"525 70 OFFCURVE",
"503 39 OFFCURVE",
"455 39 CURVE SMOOTH",
"409 39 OFFCURVE",
"380 68 OFFCURVE",
"380 128 CURVE SMOOTH",
"380 303 LINE",
"301 303 LINE",
"301 128 LINE SMOOTH",
"301 68 OFFCURVE",
"272 39 OFFCURVE",
"226 39 CURVE SMOOTH",
"178 39 OFFCURVE",
"157 70 OFFCURVE",
"157 124 CURVE SMOOTH",
"157 375 LINE",
"163 374 OFFCURVE",
"172 374 OFFCURVE",
"180 374 CURVE SMOOTH",
"230 374 OFFCURVE",
"270 406 OFFCURVE",
"270 466 CURVE SMOOTH",
"270 524 OFFCURVE",
"233 558 OFFCURVE",
"172 558 CURVE SMOOTH",
"109 558 OFFCURVE",
"65 522 OFFCURVE",
"65 454 CURVE SMOOTH",
"65 127 LINE SMOOTH",
"65 49 OFFCURVE",
"113 -10 OFFCURVE",
"204 -10 CURVE SMOOTH"
);
},
{
closed = 1;
nodes = (
"142 416 OFFCURVE",
"126 433 OFFCURVE",
"126 467 CURVE SMOOTH",
"126 501 OFFCURVE",
"142 519 OFFCURVE",
"174 519 CURVE SMOOTH",
"206 519 OFFCURVE",
"222 501 OFFCURVE",
"222 467 CURVE SMOOTH",
"222 433 OFFCURVE",
"206 416 OFFCURVE",
"174 416 CURVE SMOOTH"
);
},
{
closed = 1;
nodes = (
"476 416 OFFCURVE",
"460 433 OFFCURVE",
"460 467 CURVE SMOOTH",
"460 501 OFFCURVE",
"476 519 OFFCURVE",
"508 519 CURVE SMOOTH",
"540 519 OFFCURVE",
"556 501 OFFCURVE",
"556 467 CURVE SMOOTH",
"556 433 OFFCURVE",
"540 416 OFFCURVE",
"508 416 CURVE SMOOTH"
);
},
{
closed = 1;
nodes = (
"658 434 OFFCURVE",
"698 482 OFFCURVE",
"698 534 CURVE SMOOTH",
"698 576 OFFCURVE",
"671 591 OFFCURVE",
"643 591 CURVE SMOOTH",
"635 591 OFFCURVE",
"625 590 OFFCURVE",
"619 587 CURVE",
"625 573 OFFCURVE",
"628 559 OFFCURVE",
"628 544 CURVE SMOOTH",
"628 519 OFFCURVE",
"620 487 OFFCURVE",
"598 468 CURVE",
"601 405 LINE"
);
}
);
width = 723;
},
{
anchors = (
{
name = bottom;
position = "{688, 0}";
},
{
name = top;
position = "{391, 536}";
}
);
layerId = "528596C4-5B9B-4A0D-91B5-66A38EFFCD2C";
paths = (
{
closed = 1;
nodes = (
"314 -12 OFFCURVE",
"355 15 OFFCURVE",
"374 72 CURVE",
"380 72 LINE",
"398 15 OFFCURVE",
"439 -12 OFFCURVE",
"530 -12 CURVE SMOOTH",
"671 -12 OFFCURVE",
"698 52 OFFCURVE",
"698 144 CURVE SMOOTH",
"698 403 LINE SMOOTH",
"698 507 OFFCURVE",
"649 562 OFFCURVE",
"534 562 CURVE SMOOTH",
"438 562 OFFCURVE",
"403 523 OFFCURVE",
"403 460 CURVE SMOOTH",
"403 391 OFFCURVE",
"444 366 OFFCURVE",
"499 366 CURVE SMOOTH",
"503 366 OFFCURVE",
"509 366 OFFCURVE",
"514 367 CURVE",
"514 95 LINE SMOOTH",
"514 68 OFFCURVE",
"503 51 OFFCURVE",
"478 51 CURVE SMOOTH",
"447 51 OFFCURVE",
"437 78 OFFCURVE",
"437 106 CURVE SMOOTH",
"437 303 LINE",
"317 303 LINE",
"317 106 LINE SMOOTH",
"317 78 OFFCURVE",
"307 51 OFFCURVE",
"275 51 CURVE SMOOTH",
"250 51 OFFCURVE",
"240 68 OFFCURVE",
"240 95 CURVE SMOOTH",
"240 367 LINE",
"245 366 OFFCURVE",
"250 366 OFFCURVE",
"255 366 CURVE SMOOTH",
"310 366 OFFCURVE",
"351 391 OFFCURVE",
"351 460 CURVE SMOOTH",
"351 524 OFFCURVE",
"315 562 OFFCURVE",
"219 562 CURVE SMOOTH",
"104 562 OFFCURVE",
"56 507 OFFCURVE",
"56 403 CURVE SMOOTH",
"56 144 LINE SMOOTH",
"56 52 OFFCURVE",
"83 -12 OFFCURVE",
"223 -12 CURVE SMOOTH"
);
},
{
closed = 1;
nodes = (
"214 410 OFFCURVE",
"200 428 OFFCURVE",
"200 459 CURVE SMOOTH",
"200 490 OFFCURVE",
"214 508 OFFCURVE",
"248 508 CURVE SMOOTH",
"281 508 OFFCURVE",
"295 490 OFFCURVE",
"295 459 CURVE SMOOTH",
"295 428 OFFCURVE",
"281 410 OFFCURVE",
"248 410 CURVE SMOOTH"
);
},
{
closed = 1;
nodes = (
"473 410 OFFCURVE",
"458 428 OFFCURVE",
"458 459 CURVE SMOOTH",
"458 490 OFFCURVE",
"473 508 OFFCURVE",
"506 508 CURVE SMOOTH",
"540 508 OFFCURVE",
"554 490 OFFCURVE",
"554 459 CURVE SMOOTH",
"554 428 OFFCURVE",
"540 410 OFFCURVE",
"506 410 CURVE SMOOTH"
);
},
{
closed = 1;
nodes = (
"666 404 OFFCURVE",
"759 455 OFFCURVE",
"759 532 CURVE SMOOTH",
"759 576 OFFCURVE",
"729 591 OFFCURVE",
"701 591 CURVE SMOOTH",
"693 591 OFFCURVE",
"678 590 OFFCURVE",
"672 587 CURVE",
"678 573 OFFCURVE",
"681 559 OFFCURVE",
"681 544 CURVE SMOOTH",
"681 494 OFFCURVE",
"647 443 OFFCURVE",
"601 429 CURVE",
"601 383 LINE"
);
}
);
width = 788;
}
);
note = uni0E9C;
unicode = 0E9C;
},
{
glyphname = "foFon-lao";
lastChange = "2017-01-30 17:18:59 +0000";
layers = (
{
anchors = (
{
name = bottom;
position = "{513, 0}";
},
{
name = top;
position = "{307, 538}";
}
);
layerId = "169B4CCF-67AF-4042-AA6F-C8E438F95C30";
paths = (
{
closed = 1;
nodes = (
"240 -10 OFFCURVE",
"276 12 OFFCURVE",
"298 67 CURVE",
"300 67 LINE",
"322 12 OFFCURVE",
"358 -10 OFFCURVE",
"409 -10 CURVE SMOOTH",
"481 -10 OFFCURVE",
"523 33 OFFCURVE",
"523 128 CURVE SMOOTH",
"523 772 LINE",
"515 772 LINE",
"495 747 LINE",
"495 124 LINE SMOOTH",
"495 47 OFFCURVE",
"466 15 OFFCURVE",
"410 15 CURVE SMOOTH",
"340 15 OFFCURVE",
"313 66 OFFCURVE",
"313 140 CURVE SMOOTH",
"313 307 LINE",
"285 307 LINE",
"285 140 LINE SMOOTH",
"285 66 OFFCURVE",
"258 15 OFFCURVE",
"188 15 CURVE SMOOTH",
"132 15 OFFCURVE",
"103 47 OFFCURVE",
"103 124 CURVE SMOOTH",
"103 423 LINE",
"115 411 OFFCURVE",
"136 405 OFFCURVE",
"157 405 CURVE SMOOTH",
"203 405 OFFCURVE",
"235 434 OFFCURVE",
"235 479 CURVE SMOOTH",
"235 523 OFFCURVE",
"204 552 OFFCURVE",
"155 552 CURVE SMOOTH",
"106 552 OFFCURVE",
"75 524 OFFCURVE",
"75 478 CURVE SMOOTH",
"75 128 LINE SMOOTH",
"75 33 OFFCURVE",
"117 -10 OFFCURVE",
"189 -10 CURVE SMOOTH"
);
},
{
closed = 1;
nodes = (
"122 426 OFFCURVE",
"104 445 OFFCURVE",
"104 478 CURVE SMOOTH",
"104 511 OFFCURVE",
"123 530 OFFCURVE",
"156 530 CURVE SMOOTH",
"189 530 OFFCURVE",
"209 511 OFFCURVE",
"209 478 CURVE SMOOTH",
"209 445 OFFCURVE",
"190 426 OFFCURVE",
"156 426 CURVE SMOOTH"
);
}
);
width = 608;
},
{
anchors = (
{
name = bottom;
position = "{607, 0}";
},
{
name = top;
position = "{344, 536}";
}
);
layerId = "A12FF52C-901E-4F1C-B651-FD65F325A5D0";
paths = (
{
closed = 1;
nodes = (
"269 -10 OFFCURVE",
"324 20 OFFCURVE",
"339 79 CURVE",
"343 79 LINE",
"358 20 OFFCURVE",
"414 -10 OFFCURVE",
"479 -10 CURVE SMOOTH",
"570 -10 OFFCURVE",
"617 49 OFFCURVE",
"617 127 CURVE SMOOTH",
"617 774 LINE",
"578 774 LINE",
"525 716 LINE",
"525 124 LINE SMOOTH",
"525 70 OFFCURVE",
"503 39 OFFCURVE",
"455 39 CURVE SMOOTH",
"409 39 OFFCURVE",
"380 68 OFFCURVE",
"380 128 CURVE SMOOTH",
"380 303 LINE",
"301 303 LINE",
"301 128 LINE SMOOTH",
"301 68 OFFCURVE",
"272 39 OFFCURVE",
"226 39 CURVE SMOOTH",
"178 39 OFFCURVE",
"157 70 OFFCURVE",
"157 124 CURVE SMOOTH",
"157 375 LINE",
"163 374 OFFCURVE",
"172 374 OFFCURVE",
"180 374 CURVE SMOOTH",
"230 374 OFFCURVE",
"270 406 OFFCURVE",
"270 466 CURVE SMOOTH",
"270 524 OFFCURVE",
"233 558 OFFCURVE",
"172 558 CURVE SMOOTH",
"109 558 OFFCURVE",
"65 522 OFFCURVE",
"65 454 CURVE SMOOTH",
"65 127 LINE SMOOTH",
"65 49 OFFCURVE",
"113 -10 OFFCURVE",
"204 -10 CURVE SMOOTH"
);
},
{
closed = 1;
nodes = (
"142 416 OFFCURVE",
"126 433 OFFCURVE",
"126 467 CURVE SMOOTH",
"126 501 OFFCURVE",
"142 519 OFFCURVE",
"174 519 CURVE SMOOTH",
"206 519 OFFCURVE",
"222 501 OFFCURVE",
"222 467 CURVE SMOOTH",
"222 433 OFFCURVE",
"206 416 OFFCURVE",
"174 416 CURVE SMOOTH"
);
}
);
width = 692;
},
{
anchors = (
{
name = bottom;
position = "{688, 0}";
},
{
name = top;
position = "{330, 536}";
}
);
layerId = "528596C4-5B9B-4A0D-91B5-66A38EFFCD2C";
paths = (
{
closed = 1;
nodes = (
"314 -12 OFFCURVE",
"355 15 OFFCURVE",
"374 72 CURVE",
"380 72 LINE",
"398 15 OFFCURVE",
"439 -12 OFFCURVE",
"530 -12 CURVE SMOOTH",
"671 -12 OFFCURVE",
"698 52 OFFCURVE",
"698 144 CURVE SMOOTH",
"698 774 LINE",
"577 774 LINE",
"514 701 LINE",
"514 95 LINE SMOOTH",
"514 68 OFFCURVE",
"503 51 OFFCURVE",
"478 51 CURVE SMOOTH",
"447 51 OFFCURVE",
"437 78 OFFCURVE",
"437 106 CURVE SMOOTH",
"437 303 LINE",
"317 303 LINE",
"317 106 LINE SMOOTH",
"317 78 OFFCURVE",
"307 51 OFFCURVE",
"275 51 CURVE SMOOTH",
"250 51 OFFCURVE",
"240 68 OFFCURVE",
"240 95 CURVE SMOOTH",
"240 367 LINE",
"245 366 OFFCURVE",
"250 366 OFFCURVE",
"255 366 CURVE SMOOTH",
"310 366 OFFCURVE",
"351 391 OFFCURVE",
"351 460 CURVE SMOOTH",
"351 524 OFFCURVE",
"315 562 OFFCURVE",
"219 562 CURVE SMOOTH",
"104 562 OFFCURVE",
"56 507 OFFCURVE",
"56 403 CURVE SMOOTH",
"56 144 LINE SMOOTH",
"56 52 OFFCURVE",
"83 -12 OFFCURVE",
"223 -12 CURVE SMOOTH"
);
},
{
closed = 1;
nodes = (
"214 410 OFFCURVE",
"200 428 OFFCURVE",
"200 459 CURVE SMOOTH",
"200 490 OFFCURVE",
"214 508 OFFCURVE",
"248 508 CURVE SMOOTH",
"281 508 OFFCURVE",
"295 490 OFFCURVE",
"295 459 CURVE SMOOTH",
"295 428 OFFCURVE",
"281 410 OFFCURVE",
"248 410 CURVE SMOOTH"
);
}
);
width = 774;
}
);
note = uni0E9D;
unicode = 0E9D;
},
{
glyphname = "phoPhu-lao";
lastChange = "2017-01-30 17:18:59 +0000";
layers = (
{
anchors = (
{
name = bottom;
position = "{604, 0}";
},
{
name = top;
position = "{392, 538}";
}
);
layerId = "169B4CCF-67AF-4042-AA6F-C8E438F95C30";
paths = (
{
closed = 1;
nodes = (
"332 -10 OFFCURVE",
"367 12 OFFCURVE",
"389 67 CURVE",
"391 67 LINE",
"413 12 OFFCURVE",
"448 -10 OFFCURVE",
"500 -10 CURVE SMOOTH",
"573 -10 OFFCURVE",
"614 33 OFFCURVE",
"614 128 CURVE SMOOTH",
"614 548 LINE",
"606 548 LINE",
"586 523 LINE",
"586 124 LINE SMOOTH",
"586 47 OFFCURVE",
"558 15 OFFCURVE",
"501 15 CURVE SMOOTH",
"430 15 OFFCURVE",
"404 66 OFFCURVE",
"404 140 CURVE SMOOTH",
"404 545 LINE",
"376 545 LINE",
"376 140 LINE SMOOTH",
"376 66 OFFCURVE",
"350 15 OFFCURVE",
"279 15 CURVE SMOOTH",
"222 15 OFFCURVE",
"194 47 OFFCURVE",
"194 124 CURVE SMOOTH",
"194 478 LINE SMOOTH",
"194 524 OFFCURVE",
"164 552 OFFCURVE",
"114 552 CURVE SMOOTH",
"66 552 OFFCURVE",
"35 526 OFFCURVE",
"35 479 CURVE SMOOTH",
"35 431 OFFCURVE",
"67 404 OFFCURVE",
"112 404 CURVE SMOOTH",
"133 404 OFFCURVE",
"151 410 OFFCURVE",
"163 424 CURVE",
"166 423 LINE",
"166 128 LINE SMOOTH",
"166 33 OFFCURVE",
"207 -10 OFFCURVE",
"280 -10 CURVE SMOOTH"
);
},
{
closed = 1;
nodes = (
"80 426 OFFCURVE",
"61 445 OFFCURVE",
"61 478 CURVE SMOOTH",
"61 511 OFFCURVE",
"81 530 OFFCURVE",
"114 530 CURVE SMOOTH",
"147 530 OFFCURVE",
"166 511 OFFCURVE",
"166 478 CURVE SMOOTH",
"166 445 OFFCURVE",
"147 426 OFFCURVE",
"113 426 CURVE SMOOTH"
);
}
);
width = 689;
},
{
anchors = (
{
name = bottom;
position = "{699, 0}";
},
{
name = top;
position = "{424, 536}";
}
);
layerId = "A12FF52C-901E-4F1C-B651-FD65F325A5D0";
paths = (
{
closed = 1;
nodes = (
"360 -10 OFFCURVE",
"406 29 OFFCURVE",
"422 80 CURVE",
"425 80 LINE",
"441 29 OFFCURVE",
"487 -10 OFFCURVE",
"565 -10 CURVE SMOOTH",
"653 -10 OFFCURVE",
"709 40 OFFCURVE",
"709 148 CURVE SMOOTH",
"709 552 LINE",
"670 552 LINE",
"617 494 LINE",
"617 142 LINE SMOOTH",
"617 70 OFFCURVE",
"593 39 OFFCURVE",
"544 39 CURVE SMOOTH",
"491 39 OFFCURVE",
"463 74 OFFCURVE",
"463 143 CURVE SMOOTH",
"463 550 LINE",
"384 550 LINE",
"384 143 LINE SMOOTH",
"384 74 OFFCURVE",
"356 39 OFFCURVE",
"303 39 CURVE SMOOTH",
"254 39 OFFCURVE",
"230 70 OFFCURVE",
"230 142 CURVE SMOOTH",
"230 454 LINE SMOOTH",
"230 522 OFFCURVE",
"185 558 OFFCURVE",
"122 558 CURVE SMOOTH",
"61 558 OFFCURVE",
"25 524 OFFCURVE",
"25 467 CURVE SMOOTH",
"25 406 OFFCURVE",
"65 374 OFFCURVE",
"113 374 CURVE SMOOTH",
"128 374 OFFCURVE",
"144 377 OFFCURVE",
"149 378 CURVE",
"138 390 LINE",
"138 148 LINE SMOOTH",
"138 40 OFFCURVE",
"194 -10 OFFCURVE",
"282 -10 CURVE SMOOTH"
);
},
{
closed = 1;
nodes = (
"89 416 OFFCURVE",
"73 433 OFFCURVE",
"73 467 CURVE SMOOTH",
"73 501 OFFCURVE",
"89 519 OFFCURVE",
"120 519 CURVE SMOOTH",
"152 519 OFFCURVE",
"168 501 OFFCURVE",
"168 467 CURVE SMOOTH",
"168 433 OFFCURVE",
"152 416 OFFCURVE",
"120 416 CURVE SMOOTH"
);
}
);
width = 774;
},
{
anchors = (
{
name = bottom;
position = "{780, 0}";
},
{
name = top;
position = "{451, 536}";
}
);
layerId = "528596C4-5B9B-4A0D-91B5-66A38EFFCD2C";
paths = (
{
closed = 1;
nodes = (
"378 -12 OFFCURVE",
"428 15 OFFCURVE",
"447 72 CURVE",
"452 72 LINE",
"471 15 OFFCURVE",
"524 -12 OFFCURVE",
"615 -12 CURVE SMOOTH",
"756 -12 OFFCURVE",
"790 52 OFFCURVE",
"790 144 CURVE SMOOTH",
"790 552 LINE",
"669 552 LINE",
"606 479 LINE",
"606 96 LINE SMOOTH",
"606 68 OFFCURVE",
"586 50 OFFCURVE",
"559 50 CURVE SMOOTH",
"530 50 OFFCURVE",
"509 70 OFFCURVE",
"509 98 CURVE SMOOTH",
"509 536 LINE",
"390 536 LINE",
"390 98 LINE SMOOTH",
"390 70 OFFCURVE",
"370 50 OFFCURVE",
"341 50 CURVE SMOOTH",
"314 50 OFFCURVE",
"293 68 OFFCURVE",
"293 96 CURVE SMOOTH",
"293 425 LINE SMOOTH",
"293 513 OFFCURVE",
"251 562 OFFCURVE",
"151 562 CURVE SMOOTH",
"66 562 OFFCURVE",
"20 526 OFFCURVE",
"20 460 CURVE SMOOTH",
"20 399 OFFCURVE",
"60 365 OFFCURVE",
"111 365 CURVE SMOOTH",
"117 365 OFFCURVE",
"122 365 OFFCURVE",
"128 366 CURVE",
"109 386 LINE",
"109 144 LINE SMOOTH",
"109 52 OFFCURVE",
"146 -12 OFFCURVE",
"287 -12 CURVE SMOOTH"
);
},
{
closed = 1;
nodes = (
"90 410 OFFCURVE",
"75 428 OFFCURVE",
"75 459 CURVE SMOOTH",
"75 490 OFFCURVE",
"90 508 OFFCURVE",
"123 508 CURVE SMOOTH",
"156 508 OFFCURVE",
"171 490 OFFCURVE",
"171 459 CURVE SMOOTH",
"171 428 OFFCURVE",
"156 410 OFFCURVE",
"123 410 CURVE SMOOTH"
);
}
);
width = 856;
}
);
note = uni0E9E;
unicode = 0E9E;
},
{
glyphname = "foFai-lao";
lastChange = "2017-01-30 17:18:59 +0000";
layers = (
{
anchors = (
{
name = bottom;
position = "{604, 0}";
},
{
name = top;
position = "{398, 538}";
}
);
layerId = "169B4CCF-67AF-4042-AA6F-C8E438F95C30";
paths = (
{
closed = 1;
nodes = (
"332 -10 OFFCURVE",
"367 12 OFFCURVE",
"389 67 CURVE",
"391 67 LINE",
"413 12 OFFCURVE",
"448 -10 OFFCURVE",
"500 -10 CURVE SMOOTH",
"573 -10 OFFCURVE",
"614 33 OFFCURVE",
"614 128 CURVE SMOOTH",
"614 772 LINE",
"606 772 LINE",
"586 747 LINE",
"586 124 LINE SMOOTH",
"586 47 OFFCURVE",
"558 15 OFFCURVE",
"501 15 CURVE SMOOTH",
"430 15 OFFCURVE",
"404 66 OFFCURVE",
"404 140 CURVE SMOOTH",
"404 545 LINE",
"376 545 LINE",
"376 140 LINE SMOOTH",
"376 66 OFFCURVE",
"350 15 OFFCURVE",
"279 15 CURVE SMOOTH",
"222 15 OFFCURVE",
"194 47 OFFCURVE",
"194 124 CURVE SMOOTH",
"194 478 LINE SMOOTH",
"194 524 OFFCURVE",
"164 552 OFFCURVE",
"114 552 CURVE SMOOTH",
"66 552 OFFCURVE",
"35 526 OFFCURVE",
"35 479 CURVE SMOOTH",
"35 431 OFFCURVE",
"67 404 OFFCURVE",
"112 404 CURVE SMOOTH",
"133 404 OFFCURVE",
"151 410 OFFCURVE",
"163 424 CURVE",
"166 423 LINE",
"166 128 LINE SMOOTH",
"166 33 OFFCURVE",
"207 -10 OFFCURVE",
"280 -10 CURVE SMOOTH"
);
},
{
closed = 1;
nodes = (
"80 426 OFFCURVE",
"61 445 OFFCURVE",
"61 478 CURVE SMOOTH",
"61 511 OFFCURVE",
"81 530 OFFCURVE",
"114 530 CURVE SMOOTH",
"147 530 OFFCURVE",
"166 511 OFFCURVE",
"166 478 CURVE SMOOTH",
"166 445 OFFCURVE",
"147 426 OFFCURVE",
"113 426 CURVE SMOOTH"
);
}
);
width = 699;
},
{
anchors = (
{
name = bottom;
position = "{699, 0}";
},
{
name = top;
position = "{424, 536}";
}
);
layerId = "A12FF52C-901E-4F1C-B651-FD65F325A5D0";
paths = (
{
closed = 1;
nodes = (
"360 -10 OFFCURVE",
"406 29 OFFCURVE",
"422 80 CURVE",
"425 80 LINE",
"441 29 OFFCURVE",
"487 -10 OFFCURVE",
"565 -10 CURVE SMOOTH",
"653 -10 OFFCURVE",
"709 40 OFFCURVE",
"709 148 CURVE SMOOTH",
"709 772 LINE",
"670 772 LINE",
"617 714 LINE",
"617 142 LINE SMOOTH",
"617 70 OFFCURVE",
"593 39 OFFCURVE",
"544 39 CURVE SMOOTH",
"491 39 OFFCURVE",
"463 74 OFFCURVE",
"463 143 CURVE SMOOTH",
"463 550 LINE",
"384 550 LINE",
"384 143 LINE SMOOTH",
"384 74 OFFCURVE",
"356 39 OFFCURVE",
"303 39 CURVE SMOOTH",
"254 39 OFFCURVE",
"230 70 OFFCURVE",
"230 142 CURVE SMOOTH",
"230 454 LINE SMOOTH",
"230 522 OFFCURVE",
"185 558 OFFCURVE",
"122 558 CURVE SMOOTH",
"61 558 OFFCURVE",
"25 524 OFFCURVE",
"25 467 CURVE SMOOTH",
"25 406 OFFCURVE",
"65 374 OFFCURVE",
"113 374 CURVE SMOOTH",
"128 374 OFFCURVE",
"144 377 OFFCURVE",
"149 378 CURVE",
"138 390 LINE",
"138 148 LINE SMOOTH",
"138 40 OFFCURVE",
"194 -10 OFFCURVE",
"282 -10 CURVE SMOOTH"
);
},
{
closed = 1;
nodes = (
"89 416 OFFCURVE",
"73 433 OFFCURVE",
"73 467 CURVE SMOOTH",
"73 501 OFFCURVE",
"89 519 OFFCURVE",
"120 519 CURVE SMOOTH",
"152 519 OFFCURVE",
"168 501 OFFCURVE",
"168 467 CURVE SMOOTH",
"168 433 OFFCURVE",
"152 416 OFFCURVE",
"120 416 CURVE SMOOTH"
);
}
);
width = 784;
},
{
anchors = (
{
name = bottom;
position = "{780, 0}";
},
{
name = top;
position = "{422, 536}";
}
);
layerId = "528596C4-5B9B-4A0D-91B5-66A38EFFCD2C";
paths = (
{
closed = 1;
nodes = (
"378 -12 OFFCURVE",
"428 15 OFFCURVE",
"447 72 CURVE",
"452 72 LINE",
"471 15 OFFCURVE",
"524 -12 OFFCURVE",
"615 -12 CURVE SMOOTH",
"756 -12 OFFCURVE",
"790 52 OFFCURVE",
"790 144 CURVE SMOOTH",
"790 774 LINE",
"669 774 LINE",
"606 701 LINE",
"606 96 LINE SMOOTH",
"606 68 OFFCURVE",
"586 50 OFFCURVE",
"559 50 CURVE SMOOTH",
"530 50 OFFCURVE",
"509 70 OFFCURVE",
"509 98 CURVE SMOOTH",
"509 536 LINE",
"390 536 LINE",
"390 98 LINE SMOOTH",
"390 70 OFFCURVE",
"370 50 OFFCURVE",
"341 50 CURVE SMOOTH",
"314 50 OFFCURVE",
"293 68 OFFCURVE",
"293 96 CURVE SMOOTH",
"293 425 LINE SMOOTH",
"293 513 OFFCURVE",
"251 562 OFFCURVE",
"151 562 CURVE SMOOTH",
"66 562 OFFCURVE",
"20 526 OFFCURVE",
"20 460 CURVE SMOOTH",
"20 399 OFFCURVE",
"60 365 OFFCURVE",
"111 365 CURVE SMOOTH",
"117 365 OFFCURVE",
"122 365 OFFCURVE",
"128 366 CURVE",
"109 386 LINE",
"109 144 LINE SMOOTH",
"109 52 OFFCURVE",
"146 -12 OFFCURVE",
"287 -12 CURVE SMOOTH"
);
},
{
closed = 1;
nodes = (
"90 410 OFFCURVE",
"75 428 OFFCURVE",
"75 459 CURVE SMOOTH",
"75 490 OFFCURVE",
"90 508 OFFCURVE",
"123 508 CURVE SMOOTH",
"156 508 OFFCURVE",
"171 490 OFFCURVE",
"171 459 CURVE SMOOTH",
"171 428 OFFCURVE",
"156 410 OFFCURVE",
"123 410 CURVE SMOOTH"
);
}
);
width = 866;
}
);
note = uni0E9F;
unicode = 0E9F;
},
{
glyphname = "moMa-lao";
lastChange = "2017-01-30 17:18:59 +0000";
layers = (
{
anchors = (
{
name = bottom;
position = "{501, 0}";
},
{
name = top;
position = "{354, 538}";
}
);
layerId = "169B4CCF-67AF-4042-AA6F-C8E438F95C30";
paths = (
{
closed = 1;
nodes = (
"164 -10 OFFCURVE",
"197 18 OFFCURVE",
"197 76 CURVE SMOOTH",
"197 545 LINE",
"169 545 LINE",
"169 118 LINE",
"166 117 LINE",
"154 130 OFFCURVE",
"134 138 OFFCURVE",
"110 138 CURVE SMOOTH",
"67 138 OFFCURVE",
"35 111 OFFCURVE",
"35 64 CURVE SMOOTH",
"35 19 OFFCURVE",
"65 -10 OFFCURVE",
"114 -10 CURVE SMOOTH"
);
},
{
closed = 1;
nodes = (
"81 12 OFFCURVE",
"61 31 OFFCURVE",
"61 64 CURVE SMOOTH",
"61 97 OFFCURVE",
"80 116 OFFCURVE",
"113 116 CURVE SMOOTH",
"147 116 OFFCURVE",
"166 97 OFFCURVE",
"166 64 CURVE SMOOTH",
"166 31 OFFCURVE",
"147 12 OFFCURVE",
"114 12 CURVE SMOOTH"
);
},
{
closed = 1;
nodes = (
"437 -10 OFFCURVE",
"511 22 OFFCURVE",
"511 111 CURVE SMOOTH",
"511 548 LINE",
"503 548 LINE",
"483 523 LINE",
"483 107 LINE SMOOTH",
"483 41 OFFCURVE",
"425 15 OFFCURVE",
"369 15 CURVE SMOOTH",
"306 15 OFFCURVE",
"241 47 OFFCURVE",
"192 87 CURVE",
"188 60 LINE",
"229 26 OFFCURVE",
"302 -10 OFFCURVE",
"372 -10 CURVE SMOOTH"
);
}
);
width = 586;
},
{
anchors = (
{
name = bottom;
position = "{537, 0}";
},
{
name = top;
position = "{351, 536}";
}
);
layerId = "A12FF52C-901E-4F1C-B651-FD65F325A5D0";
paths = (
{
closed = 1;
nodes = (
"191 -10 OFFCURVE",
"230 18 OFFCURVE",
"230 92 CURVE SMOOTH",
"230 552 LINE",
"138 552 LINE",
"138 146 LINE",
"149 171 LINE",
"146 172 OFFCURVE",
"127 175 OFFCURVE",
"115 175 CURVE SMOOTH",
"65 175 OFFCURVE",
"25 142 OFFCURVE",
"25 82 CURVE SMOOTH",
"25 24 OFFCURVE",
"61 -10 OFFCURVE",
"122 -10 CURVE SMOOTH"
);
},
{
closed = 1;
nodes = (
"89 29 OFFCURVE",
"73 47 OFFCURVE",
"73 81 CURVE SMOOTH",
"73 115 OFFCURVE",
"89 133 OFFCURVE",
"120 133 CURVE SMOOTH",
"152 133 OFFCURVE",
"168 115 OFFCURVE",
"168 81 CURVE SMOOTH",
"168 47 OFFCURVE",
"152 29 OFFCURVE",
"120 29 CURVE SMOOTH"
);
},
{
closed = 1;
nodes = (
"505 -10 OFFCURVE",
"547 52 OFFCURVE",
"547 147 CURVE SMOOTH",
"547 554 LINE",
"509 554 LINE",
"455 497 LINE",
"455 157 LINE SMOOTH",
"455 81 OFFCURVE",
"439 39 OFFCURVE",
"362 39 CURVE SMOOTH",
"308 39 OFFCURVE",
"262 72 OFFCURVE",
"221 113 CURVE",
"216 64 LINE",
"255 22 OFFCURVE",
"308 -10 OFFCURVE",
"384 -10 CURVE SMOOTH"
);
}
);
width = 612;
},
{
anchors = (
{
name = bottom;
position = "{633, 0}";
},
{
name = top;
position = "{397, 536}";
}
);
layerId = "528596C4-5B9B-4A0D-91B5-66A38EFFCD2C";
paths = (
{
closed = 1;
nodes = (
"251 -12 OFFCURVE",
"298 37 OFFCURVE",
"298 125 CURVE SMOOTH",
"298 552 LINE",
"109 552 LINE",
"109 157 LINE",
"128 183 LINE",
"123 184 OFFCURVE",
"118 184 OFFCURVE",
"113 184 CURVE SMOOTH",
"61 184 OFFCURVE",
"20 152 OFFCURVE",
"20 90 CURVE SMOOTH",
"20 24 OFFCURVE",
"66 -12 OFFCURVE",
"151 -12 CURVE SMOOTH"
);
},
{
closed = 1;
nodes = (
"90 42 OFFCURVE",
"75 59 OFFCURVE",
"75 90 CURVE SMOOTH",
"75 121 OFFCURVE",
"90 140 OFFCURVE",
"123 140 CURVE SMOOTH",
"156 140 OFFCURVE",
"171 121 OFFCURVE",
"171 90 CURVE SMOOTH",
"171 59 OFFCURVE",
"156 42 OFFCURVE",
"123 42 CURVE SMOOTH"
);
},
{
closed = 1;
nodes = (
"547 -12 OFFCURVE",
"643 49 OFFCURVE",
"643 167 CURVE SMOOTH",
"643 552 LINE",
"516 552 LINE",
"454 480 LINE",
"454 108 LINE SMOOTH",
"454 67 OFFCURVE",
"427 51 OFFCURVE",
"398 51 CURVE SMOOTH",
"352 51 OFFCURVE",
"309 90 OFFCURVE",
"286 132 CURVE",
"276 69 LINE",
"300 20 OFFCURVE",
"366 -12 OFFCURVE",
"442 -12 CURVE SMOOTH"
);
}
);
width = 709;
}
);
note = uni0EA1;
unicode = 0EA1;
},
{
glyphname = "yoYa-lao";
lastChange = "2017-01-30 17:18:59 +0000";
layers = (
{
anchors = (
{
name = bottom;
position = "{424, 0}";
},
{
name = top;
position = "{228, 538}";
}
);
layerId = "169B4CCF-67AF-4042-AA6F-C8E438F95C30";
paths = (
{
closed = 1;
nodes = (
"361 -10 OFFCURVE",
"434 39 OFFCURVE",
"434 176 CURVE SMOOTH",
"434 772 LINE",
"426 772 LINE",
"406 747 LINE",
"406 171 LINE SMOOTH",
"406 62 OFFCURVE",
"350 15 OFFCURVE",
"244 15 CURVE SMOOTH",
"121 15 OFFCURVE",
"89 78 OFFCURVE",
"89 154 CURVE SMOOTH",
"89 234 OFFCURVE",
"124 274 OFFCURVE",
"221 274 CURVE SMOOTH",
"263 274 LINE",
"263 297 LINE",
"221 297 LINE SMOOTH",
"141 297 OFFCURVE",
"87 371 OFFCURVE",
"84 426 CURVE",
"87 427 LINE",
"101 410 OFFCURVE",
"122 401 OFFCURVE",
"148 401 CURVE SMOOTH",
"196 401 OFFCURVE",
"226 432 OFFCURVE",
"226 477 CURVE SMOOTH",
"226 521 OFFCURVE",
"198 552 OFFCURVE",
"144 552 CURVE SMOOTH",
"88 552 OFFCURVE",
"55 518 OFFCURVE",
"55 457 CURVE SMOOTH",
"55 439 LINE SMOOTH",
"55 378 OFFCURVE",
"98 312 OFFCURVE",
"157 290 CURVE",
"157 287 LINE",
"96 280 OFFCURVE",
"58 235 OFFCURVE",
"58 153 CURVE SMOOTH",
"58 45 OFFCURVE",
"124 -10 OFFCURVE",
"246 -10 CURVE SMOOTH"
);
},
{
closed = 1;
nodes = (
"111 424 OFFCURVE",
"91 443 OFFCURVE",
"91 476 CURVE SMOOTH",
"91 510 OFFCURVE",
"111 528 OFFCURVE",
"144 528 CURVE SMOOTH",
"177 528 OFFCURVE",
"198 509 OFFCURVE",
"198 476 CURVE SMOOTH",
"198 443 OFFCURVE",
"178 424 OFFCURVE",
"145 424 CURVE SMOOTH"
);
}
);
width = 519;
},
{
anchors = (
{
name = bottom;
position = "{504, 0}";
},
{
name = top;
position = "{253, 536}";
}
);
layerId = "A12FF52C-901E-4F1C-B651-FD65F325A5D0";
paths = (
{
closed = 1;
nodes = (
"432 -10 OFFCURVE",
"514 49 OFFCURVE",
"514 166 CURVE SMOOTH",
"514 772 LINE",
"476 772 LINE",
"422 715 LINE",
"422 183 LINE SMOOTH",
"422 84 OFFCURVE",
"379 39 OFFCURVE",
"275 39 CURVE SMOOTH",
"193 39 OFFCURVE",
"137 72 OFFCURVE",
"137 150 CURVE SMOOTH",
"137 227 OFFCURVE",
"184 254 OFFCURVE",
"246 254 CURVE SMOOTH",
"267 254 LINE",
"267 303 LINE",
"246 303 LINE SMOOTH",
"164 303 OFFCURVE",
"129 339 OFFCURVE",
"139 391 CURVE",
"132 380 LINE",
"136 378 OFFCURVE",
"142 374 OFFCURVE",
"157 374 CURVE SMOOTH",
"210 374 OFFCURVE",
"246 409 OFFCURVE",
"246 466 CURVE SMOOTH",
"246 523 OFFCURVE",
"209 558 OFFCURVE",
"148 558 CURVE SMOOTH",
"85 558 OFFCURVE",
"45 517 OFFCURVE",
"45 449 CURVE SMOOTH",
"45 425 LINE SMOOTH",
"45 354 OFFCURVE",
"80 304 OFFCURVE",
"133 280 CURVE",
"133 277 LINE",
"85 257 OFFCURVE",
"45 215 OFFCURVE",
"45 145 CURVE SMOOTH",
"45 45 OFFCURVE",
"134 -10 OFFCURVE",
"276 -10 CURVE SMOOTH"
);
},
{
closed = 1;
nodes = (
"119 416 OFFCURVE",
"102 432 OFFCURVE",
"102 466 CURVE SMOOTH",
"102 500 OFFCURVE",
"120 517 OFFCURVE",
"152 517 CURVE SMOOTH",
"183 517 OFFCURVE",
"199 501 OFFCURVE",
"199 467 CURVE SMOOTH",
"199 433 OFFCURVE",
"182 416 OFFCURVE",
"150 416 CURVE SMOOTH"
);
}
);
width = 589;
},
{
anchors = (
{
name = bottom;
position = "{617, 0}";
},
{
name = top;
position = "{258, 536}";
}
);
layerId = "528596C4-5B9B-4A0D-91B5-66A38EFFCD2C";
paths = (
{
closed = 1;
nodes = (
"541 -12 OFFCURVE",
"627 41 OFFCURVE",
"627 176 CURVE SMOOTH",
"627 774 LINE",
"500 774 LINE",
"438 702 LINE",
"438 143 LINE SMOOTH",
"438 67 OFFCURVE",
"393 42 OFFCURVE",
"337 42 CURVE SMOOTH",
"289 42 OFFCURVE",
"239 65 OFFCURVE",
"239 152 CURVE SMOOTH",
"239 224 OFFCURVE",
"262 251 OFFCURVE",
"303 251 CURVE SMOOTH",
"346 251 LINE",
"346 312 LINE",
"321 312 LINE SMOOTH",
"242 312 OFFCURVE",
"234 353 OFFCURVE",
"233 386 CURVE",
"213 373 LINE",
"218 373 OFFCURVE",
"223 373 OFFCURVE",
"228 373 CURVE SMOOTH",
"290 374 OFFCURVE",
"338 398 OFFCURVE",
"338 464 CURVE SMOOTH",
"338 529 OFFCURVE",
"293 562 OFFCURVE",
"213 562 CURVE SMOOTH",
"119 562 OFFCURVE",
"46 508 OFFCURVE",
"46 436 CURVE SMOOTH",
"46 428 LINE SMOOTH",
"46 366 OFFCURVE",
"83 304 OFFCURVE",
"157 286 CURVE",
"157 282 LINE",
"81 262 OFFCURVE",
"49 215 OFFCURVE",
"49 149 CURVE SMOOTH",
"49 37 OFFCURVE",
"157 -12 OFFCURVE",
"343 -12 CURVE SMOOTH"
);
},
{
closed = 1;
nodes = (
"202 417 OFFCURVE",
"187 435 OFFCURVE",
"187 466 CURVE SMOOTH",
"187 497 OFFCURVE",
"202 515 OFFCURVE",
"235 515 CURVE SMOOTH",
"268 515 OFFCURVE",
"283 497 OFFCURVE",
"283 466 CURVE SMOOTH",
"283 435 OFFCURVE",
"268 417 OFFCURVE",
"235 417 CURVE SMOOTH"
);
}
);
width = 703;
}
);
note = uni0EA2;
unicode = 0EA2;
},
{
glyphname = "roRot-lao";
lastChange = "2017-01-30 17:18:59 +0000";
layers = (
{
anchors = (
{
name = bottom;
position = "{433, 0}";
},
{
name = top;
position = "{258, 538}";
}
);
layerId = "169B4CCF-67AF-4042-AA6F-C8E438F95C30";
paths = (
{
closed = 1;
nodes = (
"381 -10 OFFCURVE",
"453 46 OFFCURVE",
"453 144 CURVE SMOOTH",
"453 246 OFFCURVE",
"376 273 OFFCURVE",
"244 323 CURVE SMOOTH",
"135 364 OFFCURVE",
"88 385 OFFCURVE",
"88 439 CURVE SMOOTH",
"88 505 OFFCURVE",
"157 527 OFFCURVE",
"238 527 CURVE SMOOTH",
"344 527 OFFCURVE",
"417 490 OFFCURVE",
"417 408 CURVE",
"440 405 OFFCURVE",
"446 414 OFFCURVE",
"446 432 CURVE SMOOTH",
"446 493 OFFCURVE",
"378 552 OFFCURVE",
"239 552 CURVE SMOOTH",
"128 552 OFFCURVE",
"60 514 OFFCURVE",
"60 438 CURVE SMOOTH",
"60 368 OFFCURVE",
"119 344 OFFCURVE",
"245 296 CURVE SMOOTH",
"365 250 OFFCURVE",
"425 229 OFFCURVE",
"425 144 CURVE SMOOTH",
"425 60 OFFCURVE",
"366 15 OFFCURVE",
"262 15 CURVE SMOOTH",
"175 15 OFFCURVE",
"122 47 OFFCURVE",
"97 88 CURVE",
"107 84 OFFCURVE",
"126 80 OFFCURVE",
"142 80 CURVE SMOOTH",
"184 80 OFFCURVE",
"216 108 OFFCURVE",
"216 156 CURVE SMOOTH",
"216 198 OFFCURVE",
"191 235 OFFCURVE",
"137 235 CURVE SMOOTH",
"89 235 OFFCURVE",
"55 206 OFFCURVE",
"55 152 CURVE SMOOTH",
"55 140 LINE SMOOTH",
"55 75 OFFCURVE",
"118 -10 OFFCURVE",
"263 -10 CURVE SMOOTH"
);
},
{
closed = 1;
nodes = (
"99 103 OFFCURVE",
"83 120 OFFCURVE",
"83 153 CURVE SMOOTH",
"83 186 OFFCURVE",
"99 211 OFFCURVE",
"137 211 CURVE SMOOTH",
"174 211 OFFCURVE",
"188 187 OFFCURVE",
"188 155 CURVE SMOOTH",
"188 120 OFFCURVE",
"171 103 OFFCURVE",
"135 103 CURVE SMOOTH"
);
}
);
width = 508;
},
{
anchors = (
{
name = bottom;
position = "{485, 0}";
},
{
name = top;
position = "{295, 536}";
}
);
layerId = "A12FF52C-901E-4F1C-B651-FD65F325A5D0";
paths = (
{
closed = 1;
nodes = (
"421 -10 OFFCURVE",
"505 54 OFFCURVE",
"505 155 CURVE SMOOTH",
"505 272 OFFCURVE",
"394 307 OFFCURVE",
"296 337 CURVE SMOOTH",
"218 361 OFFCURVE",
"147 384 OFFCURVE",
"147 443 CURVE SMOOTH",
"147 502 OFFCURVE",
"219 509 OFFCURVE",
"265 509 CURVE SMOOTH",
"345 509 OFFCURVE",
"416 488 OFFCURVE",
"416 386 CURVE",
"473 386 OFFCURVE",
"496 401 OFFCURVE",
"496 439 CURVE SMOOTH",
"496 513 OFFCURVE",
"407 558 OFFCURVE",
"260 558 CURVE SMOOTH",
"181 558 OFFCURVE",
"55 545 OFFCURVE",
"55 441 CURVE SMOOTH",
"55 335 OFFCURVE",
"188 320 OFFCURVE",
"292 283 CURVE SMOOTH",
"359 259 OFFCURVE",
"414 225 OFFCURVE",
"414 150 CURVE SMOOTH",
"414 77 OFFCURVE",
"361 39 OFFCURVE",
"268 39 CURVE SMOOTH",
"197 39 OFFCURVE",
"138 61 OFFCURVE",
"128 76 CURVE",
"133 75 OFFCURVE",
"139 74 OFFCURVE",
"149 74 CURVE SMOOTH",
"209 74 OFFCURVE",
"242 110 OFFCURVE",
"242 166 CURVE SMOOTH",
"242 222 OFFCURVE",
"209 259 OFFCURVE",
"147 259 CURVE SMOOTH",
"86 259 OFFCURVE",
"45 224 OFFCURVE",
"45 155 CURVE SMOOTH",
"45 140 LINE SMOOTH",
"45 43 OFFCURVE",
"137 -10 OFFCURVE",
"272 -10 CURVE SMOOTH"
);
},
{
closed = 1;
nodes = (
"111 115 OFFCURVE",
"96 136 OFFCURVE",
"96 167 CURVE SMOOTH",
"96 197 OFFCURVE",
"111 217 OFFCURVE",
"146 217 CURVE SMOOTH",
"180 217 OFFCURVE",
"194 198 OFFCURVE",
"194 167 CURVE SMOOTH",
"194 135 OFFCURVE",
"179 115 OFFCURVE",
"145 115 CURVE SMOOTH"
);
}
);
width = 550;
},
{
anchors = (
{
name = bottom;
position = "{587, 0}";
},
{
name = top;
position = "{340, 536}";
}
);
layerId = "528596C4-5B9B-4A0D-91B5-66A38EFFCD2C";
paths = (
{
closed = 1;
nodes = (
"514 -12 OFFCURVE",
"608 61 OFFCURVE",
"608 174 CURVE SMOOTH",
"608 311 OFFCURVE",
"469 330 OFFCURVE",
"358 354 CURVE SMOOTH",
"284 370 OFFCURVE",
"222 388 OFFCURVE",
"222 445 CURVE SMOOTH",
"222 489 OFFCURVE",
"260 506 OFFCURVE",
"310 506 CURVE SMOOTH",
"394 506 OFFCURVE",
"407 457 OFFCURVE",
"408 394 CURVE",
"504 378 OFFCURVE",
"597 382 OFFCURVE",
"597 453 CURVE SMOOTH",
"597 529 OFFCURVE",
"490 562 OFFCURVE",
"317 562 CURVE SMOOTH",
"142 562 OFFCURVE",
"43 528 OFFCURVE",
"43 423 CURVE SMOOTH",
"43 290 OFFCURVE",
"204 285 OFFCURVE",
"316 251 CURVE SMOOTH",
"376 233 OFFCURVE",
"422 205 OFFCURVE",
"422 145 CURVE SMOOTH",
"422 77 OFFCURVE",
"362 42 OFFCURVE",
"284 42 CURVE SMOOTH",
"254 42 OFFCURVE",
"224 47 OFFCURVE",
"191 63 CURVE",
"195 62 OFFCURVE",
"197 62 OFFCURVE",
"200 62 CURVE SMOOTH",
"246 62 OFFCURVE",
"280 102 OFFCURVE",
"280 158 CURVE SMOOTH",
"280 220 OFFCURVE",
"238 260 OFFCURVE",
"166 260 CURVE SMOOTH",
"104 260 OFFCURVE",
"39 231 OFFCURVE",
"39 143 CURVE SMOOTH",
"39 133 LINE SMOOTH",
"39 28 OFFCURVE",
"162 -12 OFFCURVE",
"312 -12 CURVE SMOOTH"
);
},
{
closed = 1;
nodes = (
"142 107 OFFCURVE",
"126 125 OFFCURVE",
"126 157 CURVE SMOOTH",
"126 187 OFFCURVE",
"141 205 OFFCURVE",
"175 205 CURVE SMOOTH",
"208 205 OFFCURVE",
"222 187 OFFCURVE",
"222 157 CURVE SMOOTH",
"222 125 OFFCURVE",
"207 107 OFFCURVE",
"175 107 CURVE SMOOTH"
);
}
);
width = 653;
}
);
note = uni0EA3;
unicode = 0EA3;
},
{
glyphname = "loLing-lao";
lastChange = "2017-01-30 17:18:59 +0000";
layers = (
{
anchors = (
{
name = bottom;
position = "{463, 0}";
},
{
name = top;
position = "{285, 538}";
}
);
layerId = "169B4CCF-67AF-4042-AA6F-C8E438F95C30";
paths = (
{
closed = 1;
nodes = (
"213 -4 OFFCURVE",
"245 25 OFFCURVE",
"245 69 CURVE SMOOTH",
"245 116 OFFCURVE",
"210 142 OFFCURVE",
"167 142 CURVE SMOOTH",
"140 142 OFFCURVE",
"121 132 OFFCURVE",
"112 123 CURVE",
"112 187 LINE SMOOTH",
"112 262 OFFCURVE",
"149 296 OFFCURVE",
"211 296 CURVE SMOOTH",
"267 296 OFFCURVE",
"296 268 OFFCURVE",
"313 196 CURVE SMOOTH",
"346 57 LINE SMOOTH",
"356 15 OFFCURVE",
"377 -4 OFFCURVE",
"412 -4 CURVE SMOOTH",
"455 -4 OFFCURVE",
"473 24 OFFCURVE",
"473 54 CURVE SMOOTH",
"473 391 LINE SMOOTH",
"473 500 OFFCURVE",
"394 552 OFFCURVE",
"273 552 CURVE SMOOTH",
"146 552 OFFCURVE",
"75 495 OFFCURVE",
"75 432 CURVE SMOOTH",
"75 417 OFFCURVE",
"79 406 OFFCURVE",
"93 406 CURVE SMOOTH",
"96 406 OFFCURVE",
"100 407 OFFCURVE",
"104 408 CURVE",
"104 490 OFFCURVE",
"177 527 OFFCURVE",
"274 527 CURVE SMOOTH",
"382 527 OFFCURVE",
"445 482 OFFCURVE",
"445 389 CURVE SMOOTH",
"445 54 LINE SMOOTH",
"445 32 OFFCURVE",
"431 21 OFFCURVE",
"412 21 CURVE SMOOTH",
"390 21 OFFCURVE",
"380 36 OFFCURVE",
"375 58 CURVE SMOOTH",
"339 207 LINE SMOOTH",
"320 286 OFFCURVE",
"280 321 OFFCURVE",
"210 321 CURVE SMOOTH",
"140 321 OFFCURVE",
"84 286 OFFCURVE",
"84 180 CURVE SMOOTH",
"84 73 LINE SMOOTH",
"84 24 OFFCURVE",
"114 -4 OFFCURVE",
"163 -4 CURVE SMOOTH"
);
},
{
closed = 1;
nodes = (
"131 17 OFFCURVE",
"112 36 OFFCURVE",
"112 69 CURVE SMOOTH",
"112 102 OFFCURVE",
"131 121 OFFCURVE",
"165 121 CURVE SMOOTH",
"198 121 OFFCURVE",
"217 102 OFFCURVE",
"217 69 CURVE SMOOTH",
"217 36 OFFCURVE",
"197 17 OFFCURVE",
"164 17 CURVE SMOOTH"
);
}
);
width = 548;
},
{
anchors = (
{
name = bottom;
position = "{509, 0}";
},
{
name = top;
position = "{301, 536}";
}
);
layerId = "A12FF52C-901E-4F1C-B651-FD65F325A5D0";
paths = (
{
closed = 1;
nodes = (
"211 -10 OFFCURVE",
"248 25 OFFCURVE",
"248 82 CURVE SMOOTH",
"248 139 OFFCURVE",
"212 175 OFFCURVE",
"158 175 CURVE SMOOTH",
"149 175 OFFCURVE",
"140 174 OFFCURVE",
"135 173 CURVE",
"135 199 LINE SMOOTH",
"135 228 OFFCURVE",
"150 264 OFFCURVE",
"205 264 CURVE SMOOTH",
"253 264 OFFCURVE",
"279 236 OFFCURVE",
"288 196 CURVE SMOOTH",
"319 61 LINE SMOOTH",
"331 9 OFFCURVE",
"368 -10 OFFCURVE",
"416 -10 CURVE SMOOTH",
"478 -10 OFFCURVE",
"519 22 OFFCURVE",
"519 107 CURVE SMOOTH",
"519 378 LINE SMOOTH",
"519 500 OFFCURVE",
"428 558 OFFCURVE",
"279 558 CURVE SMOOTH",
"147 558 OFFCURVE",
"45 513 OFFCURVE",
"45 438 CURVE SMOOTH",
"45 405 OFFCURVE",
"64 385 OFFCURVE",
"109 385 CURVE SMOOTH",
"114 385 OFFCURVE",
"119 385 OFFCURVE",
"125 386 CURVE",
"125 477 OFFCURVE",
"179 509 OFFCURVE",
"275 509 CURVE SMOOTH",
"379 509 OFFCURVE",
"428 472 OFFCURVE",
"428 381 CURVE SMOOTH",
"428 76 LINE SMOOTH",
"428 59 OFFCURVE",
"421 45 OFFCURVE",
"401 45 CURVE SMOOTH",
"387 45 OFFCURVE",
"376 52 OFFCURVE",
"371 74 CURVE SMOOTH",
"338 215 LINE SMOOTH",
"324 275 OFFCURVE",
"280 313 OFFCURVE",
"195 313 CURVE SMOOTH",
"106 313 OFFCURVE",
"46 271 OFFCURVE",
"46 173 CURVE SMOOTH",
"46 94 LINE SMOOTH",
"46 26 OFFCURVE",
"87 -10 OFFCURVE",
"150 -10 CURVE SMOOTH"
);
},
{
closed = 1;
nodes = (
"121 31 OFFCURVE",
"104 48 OFFCURVE",
"104 82 CURVE SMOOTH",
"104 116 OFFCURVE",
"120 133 OFFCURVE",
"152 133 CURVE SMOOTH",
"184 133 OFFCURVE",
"200 115 OFFCURVE",
"200 81 CURVE SMOOTH",
"200 47 OFFCURVE",
"185 31 OFFCURVE",
"153 31 CURVE SMOOTH"
);
}
);
width = 584;
},
{
anchors = (
{
name = bottom;
position = "{621, 0}";
},
{
name = top;
position = "{370, 536}";
}
);
layerId = "528596C4-5B9B-4A0D-91B5-66A38EFFCD2C";
paths = (
{
closed = 1;
nodes = (
"261 -12 OFFCURVE",
"307 24 OFFCURVE",
"307 90 CURVE SMOOTH",
"307 146 OFFCURVE",
"274 184 OFFCURVE",
"230 184 CURVE SMOOTH",
"226 184 OFFCURVE",
"222 185 OFFCURVE",
"218 185 CURVE",
"218 216 LINE SMOOTH",
"218 238 OFFCURVE",
"231 254 OFFCURVE",
"257 254 CURVE SMOOTH",
"283 254 OFFCURVE",
"304 239 OFFCURVE",
"311 206 CURVE SMOOTH",
"344 51 LINE SMOOTH",
"354 6 OFFCURVE",
"380 -12 OFFCURVE",
"470 -12 CURVE SMOOTH",
"562 -12 OFFCURVE",
"631 7 OFFCURVE",
"631 105 CURVE SMOOTH",
"631 375 LINE SMOOTH",
"631 516 OFFCURVE",
"521 562 OFFCURVE",
"330 562 CURVE SMOOTH",
"168 562 OFFCURVE",
"49 529 OFFCURVE",
"49 452 CURVE SMOOTH",
"49 402 OFFCURVE",
"98 386 OFFCURVE",
"157 386 CURVE SMOOTH",
"183 386 OFFCURVE",
"211 389 OFFCURVE",
"238 394 CURVE",
"238 486 OFFCURVE",
"286 506 OFFCURVE",
"337 506 CURVE SMOOTH",
"398 506 OFFCURVE",
"442 477 OFFCURVE",
"442 398 CURVE SMOOTH",
"442 70 LINE SMOOTH",
"442 56 OFFCURVE",
"439 43 OFFCURVE",
"424 43 CURVE SMOOTH",
"413 43 OFFCURVE",
"407 51 OFFCURVE",
"404 63 CURVE SMOOTH",
"366 243 LINE SMOOTH",
"356 291 OFFCURVE",
"298 321 OFFCURVE",
"214 321 CURVE SMOOTH",
"118 321 OFFCURVE",
"46 281 OFFCURVE",
"46 212 CURVE SMOOTH",
"46 95 LINE SMOOTH",
"46 31 OFFCURVE",
"78 -12 OFFCURVE",
"174 -12 CURVE SMOOTH"
);
},
{
closed = 1;
nodes = (
"171 42 OFFCURVE",
"156 60 OFFCURVE",
"156 91 CURVE SMOOTH",
"156 122 OFFCURVE",
"171 140 OFFCURVE",
"204 140 CURVE SMOOTH",
"237 140 OFFCURVE",
"252 122 OFFCURVE",
"252 91 CURVE SMOOTH",
"252 60 OFFCURVE",
"237 42 OFFCURVE",
"204 42 CURVE SMOOTH"
);
}
);
width = 697;
}
);
note = uni0EA5;
unicode = 0EA5;
},
{
glyphname = "woWi-lao";
lastChange = "2017-01-30 17:18:59 +0000";
layers = (
{
anchors = (
{
name = bottom;
position = "{423, 0}";
},
{
name = top;
position = "{267, 538}";
}
);
layerId = "169B4CCF-67AF-4042-AA6F-C8E438F95C30";
paths = (
{
closed = 1;
nodes = (
"367 -10 OFFCURVE",
"433 48 OFFCURVE",
"433 158 CURVE SMOOTH",
"433 391 LINE SMOOTH",
"433 500 OFFCURVE",
"364 552 OFFCURVE",
"243 552 CURVE SMOOTH",
"116 552 OFFCURVE",
"55 495 OFFCURVE",
"55 432 CURVE SMOOTH",
"55 417 OFFCURVE",
"58 406 OFFCURVE",
"72 406 CURVE SMOOTH",
"76 406 OFFCURVE",
"79 407 OFFCURVE",
"84 408 CURVE",
"84 490 OFFCURVE",
"147 527 OFFCURVE",
"244 527 CURVE SMOOTH",
"352 527 OFFCURVE",
"405 482 OFFCURVE",
"405 389 CURVE SMOOTH",
"405 156 LINE SMOOTH",
"405 63 OFFCURVE",
"352 15 OFFCURVE",
"245 15 CURVE SMOOTH",
"167 15 OFFCURVE",
"126 41 OFFCURVE",
"97 88 CURVE",
"107 84 OFFCURVE",
"126 80 OFFCURVE",
"142 80 CURVE SMOOTH",
"184 80 OFFCURVE",
"216 108 OFFCURVE",
"216 156 CURVE SMOOTH",
"216 198 OFFCURVE",
"191 235 OFFCURVE",
"137 235 CURVE SMOOTH",
"89 235 OFFCURVE",
"55 206 OFFCURVE",
"55 152 CURVE SMOOTH",
"55 140 LINE SMOOTH",
"55 75 OFFCURVE",
"101 -10 OFFCURVE",
"247 -10 CURVE SMOOTH"
);
},
{
closed = 1;
nodes = (
"99 103 OFFCURVE",
"83 120 OFFCURVE",
"83 153 CURVE SMOOTH",
"83 186 OFFCURVE",
"99 211 OFFCURVE",
"137 211 CURVE SMOOTH",
"174 211 OFFCURVE",
"188 187 OFFCURVE",
"188 155 CURVE SMOOTH",
"188 120 OFFCURVE",
"171 103 OFFCURVE",
"135 103 CURVE SMOOTH"
);
}
);
width = 498;
},
{
anchors = (
{
name = bottom;
position = "{495, 0}";
},
{
name = top;
position = "{287, 536}";
}
);
layerId = "A12FF52C-901E-4F1C-B651-FD65F325A5D0";
paths = (
{
closed = 1;
nodes = (
"411 -10 OFFCURVE",
"500 39 OFFCURVE",
"500 151 CURVE SMOOTH",
"500 378 LINE SMOOTH",
"500 500 OFFCURVE",
"412 558 OFFCURVE",
"267 558 CURVE SMOOTH",
"137 558 OFFCURVE",
"45 512 OFFCURVE",
"45 438 CURVE SMOOTH",
"45 405 OFFCURVE",
"64 385 OFFCURVE",
"109 385 CURVE SMOOTH",
"114 385 OFFCURVE",
"119 385 OFFCURVE",
"125 386 CURVE",
"125 476 OFFCURVE",
"168 509 OFFCURVE",
"262 509 CURVE SMOOTH",
"361 509 OFFCURVE",
"408 473 OFFCURVE",
"408 381 CURVE SMOOTH",
"408 147 LINE SMOOTH",
"408 61 OFFCURVE",
"351 39 OFFCURVE",
"267 39 CURVE SMOOTH",
"182 39 OFFCURVE",
"139 62 OFFCURVE",
"129 76 CURVE",
"135 75 OFFCURVE",
"141 74 OFFCURVE",
"151 74 CURVE SMOOTH",
"210 74 OFFCURVE",
"244 110 OFFCURVE",
"244 166 CURVE SMOOTH",
"244 222 OFFCURVE",
"211 259 OFFCURVE",
"147 259 CURVE SMOOTH",
"89 259 OFFCURVE",
"47 229 OFFCURVE",
"47 160 CURVE SMOOTH",
"47 140 LINE SMOOTH",
"47 43 OFFCURVE",
"125 -10 OFFCURVE",
"271 -10 CURVE SMOOTH"
);
},
{
closed = 1;
nodes = (
"113 115 OFFCURVE",
"98 135 OFFCURVE",
"98 166 CURVE SMOOTH",
"98 197 OFFCURVE",
"113 217 OFFCURVE",
"148 217 CURVE SMOOTH",
"182 217 OFFCURVE",
"196 198 OFFCURVE",
"196 167 CURVE SMOOTH",
"196 135 OFFCURVE",
"181 115 OFFCURVE",
"147 115 CURVE SMOOTH"
);
}
);
width = 560;
},
{
anchors = (
{
name = bottom;
position = "{561, 0}";
},
{
name = top;
position = "{322, 536}";
}
);
layerId = "528596C4-5B9B-4A0D-91B5-66A38EFFCD2C";
paths = (
{
closed = 1;
nodes = (
"464 -12 OFFCURVE",
"571 35 OFFCURVE",
"571 154 CURVE SMOOTH",
"571 365 LINE SMOOTH",
"571 505 OFFCURVE",
"480 562 OFFCURVE",
"302 562 CURVE SMOOTH",
"145 562 OFFCURVE",
"46 518 OFFCURVE",
"46 448 CURVE SMOOTH",
"46 397 OFFCURVE",
"98 380 OFFCURVE",
"163 380 CURVE SMOOTH",
"186 380 OFFCURVE",
"211 382 OFFCURVE",
"235 386 CURVE",
"235 470 OFFCURVE",
"254 506 OFFCURVE",
"308 506 CURVE SMOOTH",
"364 506 OFFCURVE",
"382 467 OFFCURVE",
"382 388 CURVE SMOOTH",
"382 143 LINE SMOOTH",
"382 66 OFFCURVE",
"350 42 OFFCURVE",
"268 42 CURVE SMOOTH",
"190 42 OFFCURVE",
"151 55 OFFCURVE",
"151 86 CURVE",
"155 86 OFFCURVE",
"158 86 OFFCURVE",
"162 86 CURVE SMOOTH",
"224 86 OFFCURVE",
"271 115 OFFCURVE",
"271 182 CURVE SMOOTH",
"271 233 OFFCURVE",
"243 275 OFFCURVE",
"167 275 CURVE SMOOTH",
"95 275 OFFCURVE",
"51 237 OFFCURVE",
"51 162 CURVE SMOOTH",
"51 131 LINE SMOOTH",
"51 49 OFFCURVE",
"95 -12 OFFCURVE",
"292 -12 CURVE SMOOTH"
);
},
{
closed = 1;
nodes = (
"135 127 OFFCURVE",
"120 144 OFFCURVE",
"120 175 CURVE SMOOTH",
"120 206 OFFCURVE",
"135 223 OFFCURVE",
"169 223 CURVE SMOOTH",
"202 223 OFFCURVE",
"216 207 OFFCURVE",
"216 176 CURVE SMOOTH",
"216 145 OFFCURVE",
"202 127 OFFCURVE",
"168 127 CURVE SMOOTH"
);
}
);
width = 637;
}
);
note = uni0EA7;
unicode = 0EA7;
},
{
glyphname = "soSeua-lao";
lastChange = "2017-01-30 17:18:59 +0000";
layers = (
{
anchors = (
{
name = bottom;
position = "{471, 0}";
},
{
name = top;
position = "{286, 538}";
}
);
layerId = "169B4CCF-67AF-4042-AA6F-C8E438F95C30";
paths = (
{
closed = 1;
nodes = (
"213 -4 OFFCURVE",
"245 25 OFFCURVE",
"245 69 CURVE SMOOTH",
"245 116 OFFCURVE",
"210 142 OFFCURVE",
"167 142 CURVE SMOOTH",
"140 142 OFFCURVE",
"121 132 OFFCURVE",
"112 123 CURVE",
"112 187 LINE SMOOTH",
"112 262 OFFCURVE",
"151 296 OFFCURVE",
"213 296 CURVE SMOOTH",
"269 296 OFFCURVE",
"300 268 OFFCURVE",
"317 196 CURVE SMOOTH",
"350 57 LINE SMOOTH",
"360 15 OFFCURVE",
"383 -4 OFFCURVE",
"418 -4 CURVE SMOOTH",
"463 -4 OFFCURVE",
"481 24 OFFCURVE",
"481 54 CURVE SMOOTH",
"481 348 LINE SMOOTH",
"481 481 OFFCURVE",
"406 552 OFFCURVE",
"258 552 CURVE SMOOTH",
"150 552 OFFCURVE",
"75 514 OFFCURVE",
"75 457 CURVE SMOOTH",
"75 399 OFFCURVE",
"155 368 OFFCURVE",
"251 368 CURVE SMOOTH",
"409 368 OFFCURVE",
"488 450 OFFCURVE",
"488 541 CURVE SMOOTH",
"488 561 OFFCURVE",
"484 571 OFFCURVE",
"469 571 CURVE SMOOTH",
"464 571 OFFCURVE",
"460 570 OFFCURVE",
"457 569 CURVE",
"458 565 OFFCURVE",
"460 551 OFFCURVE",
"460 537 CURVE SMOOTH",
"460 455 OFFCURVE",
"388 393 OFFCURVE",
"251 393 CURVE SMOOTH",
"175 393 OFFCURVE",
"103 413 OFFCURVE",
"103 459 CURVE SMOOTH",
"103 505 OFFCURVE",
"174 527 OFFCURVE",
"257 527 CURVE SMOOTH",
"400 527 OFFCURVE",
"453 463 OFFCURVE",
"453 345 CURVE SMOOTH",
"453 54 LINE SMOOTH",
"453 32 OFFCURVE",
"439 21 OFFCURVE",
"418 21 CURVE SMOOTH",
"396 21 OFFCURVE",
"384 36 OFFCURVE",
"379 58 CURVE SMOOTH",
"343 207 LINE SMOOTH",
"324 286 OFFCURVE",
"282 321 OFFCURVE",
"212 321 CURVE SMOOTH",
"142 321 OFFCURVE",
"84 286 OFFCURVE",
"84 180 CURVE SMOOTH",
"84 73 LINE SMOOTH",
"84 24 OFFCURVE",
"114 -4 OFFCURVE",
"163 -4 CURVE SMOOTH"
);
},
{
closed = 1;
nodes = (
"131 17 OFFCURVE",
"112 36 OFFCURVE",
"112 69 CURVE SMOOTH",
"112 102 OFFCURVE",
"131 121 OFFCURVE",
"165 121 CURVE SMOOTH",
"198 121 OFFCURVE",
"217 102 OFFCURVE",
"217 69 CURVE SMOOTH",
"217 36 OFFCURVE",
"197 17 OFFCURVE",
"164 17 CURVE SMOOTH"
);
}
);
width = 563;
},
{
anchors = (
{
name = bottom;
position = "{523, 0}";
},
{
name = top;
position = "{299, 536}";
}
);
layerId = "A12FF52C-901E-4F1C-B651-FD65F325A5D0";
paths = (
{
closed = 1;
nodes = (
"225 -10 OFFCURVE",
"262 25 OFFCURVE",
"262 82 CURVE SMOOTH",
"262 139 OFFCURVE",
"226 175 OFFCURVE",
"172 175 CURVE SMOOTH",
"163 175 OFFCURVE",
"154 174 OFFCURVE",
"149 173 CURVE",
"149 199 LINE SMOOTH",
"149 228 OFFCURVE",
"164 264 OFFCURVE",
"219 264 CURVE SMOOTH",
"267 264 OFFCURVE",
"293 236 OFFCURVE",
"302 196 CURVE SMOOTH",
"333 61 LINE SMOOTH",
"345 9 OFFCURVE",
"382 -10 OFFCURVE",
"430 -10 CURVE SMOOTH",
"492 -10 OFFCURVE",
"533 22 OFFCURVE",
"533 107 CURVE SMOOTH",
"533 378 LINE SMOOTH",
"533 505 OFFCURVE",
"413 558 OFFCURVE",
"271 558 CURVE SMOOTH",
"162 558 OFFCURVE",
"60 526 OFFCURVE",
"60 453 CURVE SMOOTH",
"60 377 OFFCURVE",
"172 354 OFFCURVE",
"261 354 CURVE SMOOTH",
"409 354 OFFCURVE",
"548 437 OFFCURVE",
"548 539 CURVE SMOOTH",
"548 579 OFFCURVE",
"519 591 OFFCURVE",
"492 591 CURVE SMOOTH",
"484 591 OFFCURVE",
"476 590 OFFCURVE",
"469 587 CURVE",
"471 577 OFFCURVE",
"473 567 OFFCURVE",
"473 556 CURVE SMOOTH",
"473 447 OFFCURVE",
"362 400 OFFCURVE",
"265 400 CURVE SMOOTH",
"186 400 OFFCURVE",
"139 418 OFFCURVE",
"139 450 CURVE SMOOTH",
"139 490 OFFCURVE",
"210 509 OFFCURVE",
"276 509 CURVE SMOOTH",
"344 509 OFFCURVE",
"441 484 OFFCURVE",
"441 433 CURVE SMOOTH",
"441 75 LINE SMOOTH",
"441 58 OFFCURVE",
"435 45 OFFCURVE",
"415 45 CURVE SMOOTH",
"401 45 OFFCURVE",
"390 52 OFFCURVE",
"385 74 CURVE SMOOTH",
"352 215 LINE SMOOTH",
"338 275 OFFCURVE",
"294 313 OFFCURVE",
"209 313 CURVE SMOOTH",
"120 313 OFFCURVE",
"60 271 OFFCURVE",
"60 173 CURVE SMOOTH",
"60 94 LINE SMOOTH",
"60 26 OFFCURVE",
"101 -10 OFFCURVE",
"164 -10 CURVE SMOOTH"
);
},
{
closed = 1;
nodes = (
"135 31 OFFCURVE",
"118 48 OFFCURVE",
"118 82 CURVE SMOOTH",
"118 116 OFFCURVE",
"134 133 OFFCURVE",
"166 133 CURVE SMOOTH",
"198 133 OFFCURVE",
"214 115 OFFCURVE",
"214 81 CURVE SMOOTH",
"214 47 OFFCURVE",
"199 31 OFFCURVE",
"167 31 CURVE SMOOTH"
);
}
);
width = 603;
},
{
anchors = (
{
name = bottom;
position = "{642, 0}";
},
{
name = top;
position = "{371, 536}";
}
);
layerId = "528596C4-5B9B-4A0D-91B5-66A38EFFCD2C";
paths = (
{
closed = 1;
nodes = (
"282 -12 OFFCURVE",
"329 24 OFFCURVE",
"329 90 CURVE SMOOTH",
"329 148 OFFCURVE",
"294 181 OFFCURVE",
"246 185 CURVE SMOOTH",
"244 185 OFFCURVE",
"242 185 OFFCURVE",
"239 185 CURVE",
"239 216 LINE SMOOTH",
"239 235 OFFCURVE",
"250 254 OFFCURVE",
"279 254 CURVE SMOOTH",
"302 254 OFFCURVE",
"324 242 OFFCURVE",
"332 206 CURVE SMOOTH",
"366 51 LINE SMOOTH",
"376 6 OFFCURVE",
"401 -12 OFFCURVE",
"491 -12 CURVE SMOOTH",
"584 -12 OFFCURVE",
"652 7 OFFCURVE",
"652 105 CURVE SMOOTH",
"652 375 LINE SMOOTH",
"652 513 OFFCURVE",
"543 562 OFFCURVE",
"361 562 CURVE SMOOTH",
"205 562 OFFCURVE",
"63 526 OFFCURVE",
"63 452 CURVE SMOOTH",
"63 376 OFFCURVE",
"212 358 OFFCURVE",
"302 358 CURVE SMOOTH",
"499 358 OFFCURVE",
"684 443 OFFCURVE",
"684 535 CURVE SMOOTH",
"684 576 OFFCURVE",
"648 588 OFFCURVE",
"616 588 CURVE SMOOTH",
"603 588 OFFCURVE",
"585 586 OFFCURVE",
"576 584 CURVE",
"579 573 OFFCURVE",
"581 562 OFFCURVE",
"581 552 CURVE SMOOTH",
"581 469 OFFCURVE",
"461 403 OFFCURVE",
"302 403 CURVE SMOOTH",
"229 403 OFFCURVE",
"162 417 OFFCURVE",
"162 455 CURVE SMOOTH",
"162 489 OFFCURVE",
"217 508 OFFCURVE",
"296 508 CURVE SMOOTH",
"397 508 OFFCURVE",
"463 477 OFFCURVE",
"463 398 CURVE SMOOTH",
"463 70 LINE SMOOTH",
"463 57 OFFCURVE",
"460 43 OFFCURVE",
"446 43 CURVE SMOOTH",
"435 43 OFFCURVE",
"428 51 OFFCURVE",
"425 63 CURVE SMOOTH",
"387 243 LINE SMOOTH",
"378 288 OFFCURVE",
"324 321 OFFCURVE",
"236 321 CURVE SMOOTH",
"139 321 OFFCURVE",
"68 281 OFFCURVE",
"68 212 CURVE SMOOTH",
"68 95 LINE SMOOTH",
"68 31 OFFCURVE",
"100 -12 OFFCURVE",
"195 -12 CURVE SMOOTH"
);
},
{
closed = 1;
nodes = (
"192 42 OFFCURVE",
"177 60 OFFCURVE",
"177 91 CURVE SMOOTH",
"177 122 OFFCURVE",
"192 140 OFFCURVE",
"225 140 CURVE SMOOTH",
"258 140 OFFCURVE",
"273 122 OFFCURVE",
"273 91 CURVE SMOOTH",
"273 60 OFFCURVE",
"258 42 OFFCURVE",
"225 42 CURVE SMOOTH"
);
}
);
width = 734;
}
);
note = uni0EAA;
unicode = 0EAA;
},
{
glyphname = "hoHaan-lao";
lastChange = "2017-01-30 17:18:59 +0000";
layers = (
{
anchors = (
{
name = bottom;
position = "{618, 0}";
},
{
name = top;
position = "{418, 538}";
}
);
layerId = "169B4CCF-67AF-4042-AA6F-C8E438F95C30";
paths = (
{
closed = 1;
nodes = (
"371 -10 OFFCURVE",
"406 47 OFFCURVE",
"406 128 CURVE SMOOTH",
"406 468 LINE SMOOTH",
"406 529 OFFCURVE",
"375 552 OFFCURVE",
"331 552 CURVE SMOOTH",
"287 552 OFFCURVE",
"257 527 OFFCURVE",
"257 485 CURVE SMOOTH",
"257 445 OFFCURVE",
"284 418 OFFCURVE",
"323 418 CURVE SMOOTH",
"343 418 OFFCURVE",
"363 425 OFFCURVE",
"375 438 CURVE",
"378 437 LINE",
"378 126 LINE SMOOTH",
"378 60 OFFCURVE",
"350 15 OFFCURVE",
"284 15 CURVE SMOOTH",
"221 15 OFFCURVE",
"194 57 OFFCURVE",
"194 126 CURVE SMOOTH",
"194 478 LINE SMOOTH",
"194 524 OFFCURVE",
"164 552 OFFCURVE",
"114 552 CURVE SMOOTH",
"66 552 OFFCURVE",
"35 526 OFFCURVE",
"35 479 CURVE SMOOTH",
"35 431 OFFCURVE",
"67 404 OFFCURVE",
"112 404 CURVE SMOOTH",
"133 404 OFFCURVE",
"151 410 OFFCURVE",
"163 424 CURVE",
"166 423 LINE",
"166 128 LINE SMOOTH",
"166 43 OFFCURVE",
"203 -10 OFFCURVE",
"285 -10 CURVE SMOOTH"
);
},
{
closed = 1;
nodes = (
"80 426 OFFCURVE",
"61 445 OFFCURVE",
"61 478 CURVE SMOOTH",
"61 511 OFFCURVE",
"81 530 OFFCURVE",
"114 530 CURVE SMOOTH",
"147 530 OFFCURVE",
"166 511 OFFCURVE",
"166 478 CURVE SMOOTH",
"166 445 OFFCURVE",
"147 426 OFFCURVE",
"113 426 CURVE SMOOTH"
);
},
{
closed = 1;
nodes = (
"297 440 OFFCURVE",
"283 460 OFFCURVE",
"283 485 CURVE SMOOTH",
"283 509 OFFCURVE",
"295 530 OFFCURVE",
"332 530 CURVE SMOOTH",
"366 530 OFFCURVE",
"378 506 OFFCURVE",
"378 476 CURVE SMOOTH",
"378 466 LINE",
"361 448 OFFCURVE",
"344 440 OFFCURVE",
"326 440 CURVE SMOOTH"
);
},
{
closed = 1;
nodes = (
"598 -4 LINE",
"618 21 LINE",
"618 438 LINE SMOOTH",
"618 510 OFFCURVE",
"594 552 OFFCURVE",
"527 552 CURVE SMOOTH",
"480 552 OFFCURVE",
"442 531 OFFCURVE",
"395 481 CURVE",
"400 454 LINE",
"447 507 OFFCURVE",
"488 527 OFFCURVE",
"527 527 CURVE SMOOTH",
"572 527 OFFCURVE",
"590 500 OFFCURVE",
"590 440 CURVE SMOOTH",
"590 -4 LINE"
);
}
);
width = 693;
},
{
anchors = (
{
name = bottom;
position = "{694, 0}";
},
{
name = top;
position = "{479, 536}";
}
);
layerId = "A12FF52C-901E-4F1C-B651-FD65F325A5D0";
paths = (
{
closed = 1;
nodes = (
"410 -10 OFFCURVE",
"455 46 OFFCURVE",
"455 120 CURVE SMOOTH",
"455 461 LINE SMOOTH",
"455 524 OFFCURVE",
"424 558 OFFCURVE",
"364 558 CURVE SMOOTH",
"305 558 OFFCURVE",
"276 526 OFFCURVE",
"276 483 CURVE SMOOTH",
"276 443 OFFCURVE",
"300 412 OFFCURVE",
"344 412 CURVE SMOOTH",
"364 412 OFFCURVE",
"379 419 OFFCURVE",
"386 426 CURVE",
"376 446 LINE",
"376 112 LINE SMOOTH",
"376 64 OFFCURVE",
"348 39 OFFCURVE",
"303 39 CURVE SMOOTH",
"259 39 OFFCURVE",
"230 64 OFFCURVE",
"230 112 CURVE SMOOTH",
"230 454 LINE SMOOTH",
"230 522 OFFCURVE",
"185 558 OFFCURVE",
"122 558 CURVE SMOOTH",
"61 558 OFFCURVE",
"25 524 OFFCURVE",
"25 467 CURVE SMOOTH",
"25 406 OFFCURVE",
"65 374 OFFCURVE",
"114 374 CURVE SMOOTH",
"130 374 OFFCURVE",
"143 377 OFFCURVE",
"148 378 CURVE",
"138 397 LINE",
"138 120 LINE SMOOTH",
"138 46 OFFCURVE",
"186 -10 OFFCURVE",
"298 -10 CURVE SMOOTH"
);
},
{
closed = 1;
nodes = (
"89 416 OFFCURVE",
"73 433 OFFCURVE",
"73 467 CURVE SMOOTH",
"73 501 OFFCURVE",
"89 519 OFFCURVE",
"120 519 CURVE SMOOTH",
"152 519 OFFCURVE",
"168 501 OFFCURVE",
"168 467 CURVE SMOOTH",
"168 433 OFFCURVE",
"152 416 OFFCURVE",
"120 416 CURVE SMOOTH"
);
},
{
closed = 1;
nodes = (
"326 447 OFFCURVE",
"313 461 OFFCURVE",
"313 484 CURVE SMOOTH",
"313 507 OFFCURVE",
"326 519 OFFCURVE",
"350 519 CURVE SMOOTH",
"376 519 OFFCURVE",
"385 504 OFFCURVE",
"385 467 CURVE SMOOTH",
"385 460 LINE",
"373 451 OFFCURVE",
"360 447 OFFCURVE",
"348 447 CURVE SMOOTH"
);
},
{
closed = 1;
nodes = (
"640 -6 LINE",
"694 52 LINE",
"694 438 LINE SMOOTH",
"694 502 OFFCURVE",
"655 558 OFFCURVE",
"564 558 CURVE SMOOTH",
"505 558 OFFCURVE",
"464 535 OFFCURVE",
"436 510 CURVE",
"445 472 LINE",
"468 493 OFFCURVE",
"500 509 OFFCURVE",
"535 509 CURVE SMOOTH",
"581 509 OFFCURVE",
"602 482 OFFCURVE",
"602 440 CURVE SMOOTH",
"602 -6 LINE"
);
}
);
width = 759;
},
{
anchors = (
{
name = bottom;
position = "{856, 0}";
},
{
name = top;
position = "{582, 536}";
}
);
layerId = "528596C4-5B9B-4A0D-91B5-66A38EFFCD2C";
paths = (
{
closed = 1;
nodes = (
"438 -12 OFFCURVE",
"543 14 OFFCURVE",
"543 117 CURVE SMOOTH",
"543 457 LINE SMOOTH",
"543 519 OFFCURVE",
"495 562 OFFCURVE",
"420 562 CURVE SMOOTH",
"353 562 OFFCURVE",
"313 527 OFFCURVE",
"313 476 CURVE SMOOTH",
"313 436 OFFCURVE",
"338 401 OFFCURVE",
"387 401 CURVE SMOOTH",
"408 401 OFFCURVE",
"421 407 OFFCURVE",
"439 420 CURVE",
"424 437 LINE",
"424 100 LINE SMOOTH",
"424 68 OFFCURVE",
"402 51 OFFCURVE",
"356 51 CURVE SMOOTH",
"312 51 OFFCURVE",
"287 66 OFFCURVE",
"287 96 CURVE SMOOTH",
"287 425 LINE SMOOTH",
"287 513 OFFCURVE",
"237 562 OFFCURVE",
"145 562 CURVE SMOOTH",
"66 562 OFFCURVE",
"20 525 OFFCURVE",
"20 458 CURVE SMOOTH",
"20 392 OFFCURVE",
"64 365 OFFCURVE",
"101 365 CURVE SMOOTH",
"105 365 OFFCURVE",
"114 365 OFFCURVE",
"118 365 CURVE",
"98 387 LINE",
"98 119 LINE SMOOTH",
"98 23 OFFCURVE",
"202 -12 OFFCURVE",
"329 -12 CURVE SMOOTH"
);
},
{
closed = 1;
nodes = (
"90 410 OFFCURVE",
"76 428 OFFCURVE",
"76 459 CURVE SMOOTH",
"76 490 OFFCURVE",
"90 508 OFFCURVE",
"123 508 CURVE SMOOTH",
"156 508 OFFCURVE",
"171 490 OFFCURVE",
"171 459 CURVE SMOOTH",
"171 428 OFFCURVE",
"156 410 OFFCURVE",
"123 410 CURVE SMOOTH"
);
},
{
closed = 1;
nodes = (
"372 441 OFFCURVE",
"359 454 OFFCURVE",
"359 476 CURVE SMOOTH",
"359 494 OFFCURVE",
"368 508 OFFCURVE",
"388 508 CURVE SMOOTH",
"409 508 OFFCURVE",
"429 492 OFFCURVE",
"429 459 CURVE SMOOTH",
"429 454 LINE",
"417 446 OFFCURVE",
"405 441 OFFCURVE",
"392 441 CURVE SMOOTH"
);
},
{
closed = 1;
nodes = (
"794 -6 LINE",
"856 66 LINE",
"856 383 LINE SMOOTH",
"856 501 OFFCURVE",
"759 562 OFFCURVE",
"655 562 CURVE SMOOTH",
"598 562 OFFCURVE",
"546 544 OFFCURVE",
"514 514 CURVE",
"533 467 LINE",
"552 484 OFFCURVE",
"577 499 OFFCURVE",
"603 499 CURVE SMOOTH",
"639 499 OFFCURVE",
"667 469 OFFCURVE",
"667 372 CURVE SMOOTH",
"667 -6 LINE"
);
}
);
width = 922;
}
);
note = uni0EAB;
unicode = 0EAB;
},
{
glyphname = "oO-lao";
lastChange = "2017-01-30 17:18:59 +0000";
layers = (
{
anchors = (
{
name = bottom;
position = "{443, 0}";
},
{
name = top;
position = "{264, 538}";
}
);
layerId = "169B4CCF-67AF-4042-AA6F-C8E438F95C30";
paths = (
{
closed = 1;
nodes = (
"377 -10 OFFCURVE",
"453 48 OFFCURVE",
"453 158 CURVE SMOOTH",
"453 391 LINE SMOOTH",
"453 500 OFFCURVE",
"374 552 OFFCURVE",
"248 552 CURVE SMOOTH",
"142 552 OFFCURVE",
"55 515 OFFCURVE",
"55 456 CURVE SMOOTH",
"55 402 OFFCURVE",
"128 367 OFFCURVE",
"232 367 CURVE SMOOTH",
"335 367 OFFCURVE",
"398 402 OFFCURVE",
"434 451 CURVE",
"418 474 LINE",
"390 426 OFFCURVE",
"332 392 OFFCURVE",
"232 392 CURVE SMOOTH",
"149 392 OFFCURVE",
"83 415 OFFCURVE",
"83 458 CURVE SMOOTH",
"83 506 OFFCURVE",
"167 527 OFFCURVE",
"245 527 CURVE SMOOTH",
"360 527 OFFCURVE",
"425 482 OFFCURVE",
"425 389 CURVE SMOOTH",
"425 156 LINE SMOOTH",
"425 63 OFFCURVE",
"362 15 OFFCURVE",
"255 15 CURVE SMOOTH",
"177 15 OFFCURVE",
"126 41 OFFCURVE",
"97 88 CURVE",
"107 84 OFFCURVE",
"126 80 OFFCURVE",
"142 80 CURVE SMOOTH",
"184 80 OFFCURVE",
"216 108 OFFCURVE",
"216 156 CURVE SMOOTH",
"216 198 OFFCURVE",
"191 235 OFFCURVE",
"137 235 CURVE SMOOTH",
"89 235 OFFCURVE",
"55 206 OFFCURVE",
"55 152 CURVE SMOOTH",
"55 140 LINE SMOOTH",
"55 75 OFFCURVE",
"111 -10 OFFCURVE",
"257 -10 CURVE SMOOTH"
);
},
{
closed = 1;
nodes = (
"99 103 OFFCURVE",
"83 120 OFFCURVE",
"83 153 CURVE SMOOTH",
"83 186 OFFCURVE",
"99 211 OFFCURVE",
"137 211 CURVE SMOOTH",
"174 211 OFFCURVE",
"188 187 OFFCURVE",
"188 155 CURVE SMOOTH",
"188 120 OFFCURVE",
"171 103 OFFCURVE",
"135 103 CURVE SMOOTH"
);
}
);
width = 518;
},
{
anchors = (
{
name = bottom;
position = "{513, 0}";
},
{
name = top;
position = "{293, 536}";
}
);
layerId = "A12FF52C-901E-4F1C-B651-FD65F325A5D0";
paths = (
{
closed = 1;
nodes = (
"421 -10 OFFCURVE",
"518 39 OFFCURVE",
"518 151 CURVE SMOOTH",
"518 389 LINE SMOOTH",
"518 504 OFFCURVE",
"399 558 OFFCURVE",
"268 558 CURVE SMOOTH",
"149 558 OFFCURVE",
"49 514 OFFCURVE",
"49 427 CURVE SMOOTH",
"49 332 OFFCURVE",
"167 295 OFFCURVE",
"261 295 CURVE SMOOTH",
"329 295 OFFCURVE",
"390 314 OFFCURVE",
"438 344 CURVE",
"435 411 LINE",
"401 366 OFFCURVE",
"335 342 OFFCURVE",
"265 342 CURVE SMOOTH",
"187 342 OFFCURVE",
"129 373 OFFCURVE",
"129 428 CURVE SMOOTH",
"129 483 OFFCURVE",
"187 509 OFFCURVE",
"264 509 CURVE SMOOTH",
"377 509 OFFCURVE",
"426 452 OFFCURVE",
"426 401 CURVE SMOOTH",
"426 147 LINE SMOOTH",
"426 61 OFFCURVE",
"361 39 OFFCURVE",
"275 39 CURVE SMOOTH",
"193 39 OFFCURVE",
"146 59 OFFCURVE",
"127 76 CURVE",
"133 75 OFFCURVE",
"139 74 OFFCURVE",
"149 74 CURVE SMOOTH",
"208 74 OFFCURVE",
"242 110 OFFCURVE",
"242 167 CURVE SMOOTH",
"242 222 OFFCURVE",
"210 259 OFFCURVE",
"145 259 CURVE SMOOTH",
"87 259 OFFCURVE",
"45 229 OFFCURVE",
"45 160 CURVE SMOOTH",
"45 140 LINE SMOOTH",
"45 46 OFFCURVE",
"134 -10 OFFCURVE",
"282 -10 CURVE SMOOTH"
);
},
{
closed = 1;
nodes = (
"111 115 OFFCURVE",
"96 136 OFFCURVE",
"96 167 CURVE SMOOTH",
"96 197 OFFCURVE",
"111 217 OFFCURVE",
"146 217 CURVE SMOOTH",
"180 217 OFFCURVE",
"194 198 OFFCURVE",
"194 167 CURVE SMOOTH",
"194 135 OFFCURVE",
"179 115 OFFCURVE",
"145 115 CURVE SMOOTH"
);
}
);
width = 578;
},
{
anchors = (
{
name = bottom;
position = "{584, 0}";
},
{
name = top;
position = "{339, 536}";
}
);
layerId = "528596C4-5B9B-4A0D-91B5-66A38EFFCD2C";
paths = (
{
closed = 1;
nodes = (
"476 -12 OFFCURVE",
"594 34 OFFCURVE",
"594 154 CURVE SMOOTH",
"594 375 LINE SMOOTH",
"594 515 OFFCURVE",
"499 562 OFFCURVE",
"309 562 CURVE SMOOTH",
"89 562 OFFCURVE",
"31 499 OFFCURVE",
"31 434 CURVE SMOOTH",
"31 338 OFFCURVE",
"156 304 OFFCURVE",
"264 304 CURVE SMOOTH",
"346 304 OFFCURVE",
"410 324 OFFCURVE",
"487 376 CURVE",
"459 412 LINE",
"408 372 OFFCURVE",
"346 349 OFFCURVE",
"269 349 CURVE SMOOTH",
"179 349 OFFCURVE",
"130 381 OFFCURVE",
"130 431 CURVE SMOOTH",
"130 466 OFFCURVE",
"155 508 OFFCURVE",
"259 508 CURVE SMOOTH",
"351 508 OFFCURVE",
"405 475 OFFCURVE",
"405 398 CURVE SMOOTH",
"405 143 LINE SMOOTH",
"405 67 OFFCURVE",
"365 42 OFFCURVE",
"281 42 CURVE SMOOTH",
"199 42 OFFCURVE",
"138 53 OFFCURVE",
"138 86 CURVE",
"142 86 OFFCURVE",
"145 86 OFFCURVE",
"149 86 CURVE SMOOTH",
"211 86 OFFCURVE",
"258 115 OFFCURVE",
"258 182 CURVE SMOOTH",
"258 233 OFFCURVE",
"230 275 OFFCURVE",
"154 275 CURVE SMOOTH",
"82 275 OFFCURVE",
"38 237 OFFCURVE",
"38 162 CURVE SMOOTH",
"38 131 LINE SMOOTH",
"38 51 OFFCURVE",
"106 -12 OFFCURVE",
"306 -12 CURVE SMOOTH"
);
},
{
closed = 1;
nodes = (
"122 127 OFFCURVE",
"107 144 OFFCURVE",
"107 175 CURVE SMOOTH",
"107 206 OFFCURVE",
"122 223 OFFCURVE",
"156 223 CURVE SMOOTH",
"189 223 OFFCURVE",
"203 207 OFFCURVE",
"203 176 CURVE SMOOTH",
"203 145 OFFCURVE",
"189 127 OFFCURVE",
"155 127 CURVE SMOOTH"
);
}
);
width = 660;
}
);
note = uni0EAD;
unicode = 0EAD;
},
{
glyphname = "hoHeuan-lao";
lastChange = "2017-01-30 17:18:59 +0000";
layers = (
{
anchors = (
{
name = bottom;
position = "{435, 0}";
},
{
name = top;
position = "{274, 538}";
}
);
layerId = "169B4CCF-67AF-4042-AA6F-C8E438F95C30";
paths = (
{
closed = 1;
nodes = (
"382 -10 OFFCURVE",
"453 46 OFFCURVE",
"453 145 CURVE SMOOTH",
"453 258 OFFCURVE",
"362 297 OFFCURVE",
"244 346 CURVE SMOOTH",
"135 391 OFFCURVE",
"88 412 OFFCURVE",
"88 469 CURVE SMOOTH",
"88 504 OFFCURVE",
"106 527 OFFCURVE",
"155 527 CURVE SMOOTH",
"236 527 OFFCURVE",
"290 464 OFFCURVE",
"370 464 CURVE SMOOTH",
"432 464 OFFCURVE",
"455 501 OFFCURVE",
"455 534 CURVE SMOOTH",
"455 552 OFFCURVE",
"448 558 OFFCURVE",
"430 558 CURVE",
"430 524 OFFCURVE",
"418 489 OFFCURVE",
"368 489 CURVE SMOOTH",
"301 489 OFFCURVE",
"245 552 OFFCURVE",
"155 552 CURVE SMOOTH",
"84 552 OFFCURVE",
"60 512 OFFCURVE",
"60 469 CURVE SMOOTH",
"60 393 OFFCURVE",
"133 363 OFFCURVE",
"245 319 CURVE SMOOTH",
"336 283 OFFCURVE",
"425 246 OFFCURVE",
"425 144 CURVE SMOOTH",
"425 60 OFFCURVE",
"365 15 OFFCURVE",
"262 15 CURVE SMOOTH",
"184 15 OFFCURVE",
"126 41 OFFCURVE",
"97 88 CURVE",
"107 84 OFFCURVE",
"126 80 OFFCURVE",
"142 80 CURVE SMOOTH",
"184 80 OFFCURVE",
"216 108 OFFCURVE",
"216 156 CURVE SMOOTH",
"216 198 OFFCURVE",
"191 235 OFFCURVE",
"137 235 CURVE SMOOTH",
"89 235 OFFCURVE",
"55 206 OFFCURVE",
"55 152 CURVE SMOOTH",
"55 140 LINE SMOOTH",
"55 75 OFFCURVE",
"118 -10 OFFCURVE",
"264 -10 CURVE SMOOTH"
);
},
{
closed = 1;
nodes = (
"99 103 OFFCURVE",
"83 120 OFFCURVE",
"83 153 CURVE SMOOTH",
"83 186 OFFCURVE",
"99 211 OFFCURVE",
"137 211 CURVE SMOOTH",
"174 211 OFFCURVE",
"188 187 OFFCURVE",
"188 155 CURVE SMOOTH",
"188 120 OFFCURVE",
"171 103 OFFCURVE",
"135 103 CURVE SMOOTH"
);
}
);
width = 510;
},
{
anchors = (
{
name = bottom;
position = "{487, 0}";
},
{
name = top;
position = "{296, 536}";
}
);
layerId = "A12FF52C-901E-4F1C-B651-FD65F325A5D0";
paths = (
{
closed = 1;
nodes = (
"421 -10 OFFCURVE",
"507 55 OFFCURVE",
"507 156 CURVE SMOOTH",
"507 265 OFFCURVE",
"407 311 OFFCURVE",
"311 349 CURVE SMOOTH",
"222 384 OFFCURVE",
"137 411 OFFCURVE",
"137 472 CURVE SMOOTH",
"137 497 OFFCURVE",
"152 509 OFFCURVE",
"175 509 CURVE SMOOTH",
"243 509 OFFCURVE",
"315 409 OFFCURVE",
"407 409 CURVE SMOOTH",
"457 409 OFFCURVE",
"507 439 OFFCURVE",
"507 497 CURVE SMOOTH",
"507 548 OFFCURVE",
"468 557 OFFCURVE",
"416 558 CURVE",
"416 510 OFFCURVE",
"408 485 OFFCURVE",
"376 485 CURVE SMOOTH",
"322 485 OFFCURVE",
"261 558 OFFCURVE",
"159 558 CURVE SMOOTH",
"94 558 OFFCURVE",
"45 528 OFFCURVE",
"45 468 CURVE SMOOTH",
"45 367 OFFCURVE",
"184 343 OFFCURVE",
"292 296 CURVE SMOOTH",
"360 266 OFFCURVE",
"416 227 OFFCURVE",
"416 153 CURVE SMOOTH",
"416 76 OFFCURVE",
"356 39 OFFCURVE",
"267 39 CURVE SMOOTH",
"199 39 OFFCURVE",
"137 61 OFFCURVE",
"127 76 CURVE",
"133 75 OFFCURVE",
"139 74 OFFCURVE",
"149 74 CURVE SMOOTH",
"208 74 OFFCURVE",
"242 110 OFFCURVE",
"242 166 CURVE SMOOTH",
"242 222 OFFCURVE",
"209 259 OFFCURVE",
"145 259 CURVE SMOOTH",
"87 259 OFFCURVE",
"45 229 OFFCURVE",
"45 160 CURVE SMOOTH",
"45 140 LINE SMOOTH",
"45 43 OFFCURVE",
"139 -10 OFFCURVE",
"273 -10 CURVE SMOOTH"
);
},
{
closed = 1;
nodes = (
"111 115 OFFCURVE",
"96 135 OFFCURVE",
"96 166 CURVE SMOOTH",
"96 197 OFFCURVE",
"111 217 OFFCURVE",
"146 217 CURVE SMOOTH",
"180 217 OFFCURVE",
"194 198 OFFCURVE",
"194 167 CURVE SMOOTH",
"194 135 OFFCURVE",
"179 115 OFFCURVE",
"145 115 CURVE SMOOTH"
);
}
);
width = 552;
},
{
anchors = (
{
name = bottom;
position = "{588, 0}";
},
{
name = top;
position = "{347, 536}";
}
);
layerId = "528596C4-5B9B-4A0D-91B5-66A38EFFCD2C";
paths = (
{
closed = 1;
nodes = (
"513 -12 OFFCURVE",
"608 62 OFFCURVE",
"608 171 CURVE SMOOTH",
"608 300 OFFCURVE",
"474 324 OFFCURVE",
"363 350 CURVE SMOOTH",
"285 368 OFFCURVE",
"218 385 OFFCURVE",
"218 439 CURVE SMOOTH",
"218 470 OFFCURVE",
"240 485 OFFCURVE",
"264 485 CURVE SMOOTH",
"333 485 OFFCURVE",
"390 365 OFFCURVE",
"507 365 CURVE SMOOTH",
"572 365 OFFCURVE",
"608 402 OFFCURVE",
"608 456 CURVE SMOOTH",
"608 507 OFFCURVE",
"577 562 OFFCURVE",
"482 562 CURVE",
"482 527 OFFCURVE",
"481 491 OFFCURVE",
"438 491 CURVE SMOOTH",
"378 491 OFFCURVE",
"307 562 OFFCURVE",
"193 562 CURVE SMOOTH",
"96 562 OFFCURVE",
"45 511 OFFCURVE",
"45 442 CURVE SMOOTH",
"45 326 OFFCURVE",
"187 304 OFFCURVE",
"297 266 CURVE SMOOTH",
"366 242 OFFCURVE",
"422 211 OFFCURVE",
"422 145 CURVE SMOOTH",
"422 77 OFFCURVE",
"362 42 OFFCURVE",
"284 42 CURVE SMOOTH",
"254 42 OFFCURVE",
"224 47 OFFCURVE",
"191 63 CURVE",
"195 62 OFFCURVE",
"197 62 OFFCURVE",
"200 62 CURVE SMOOTH",
"246 62 OFFCURVE",
"280 102 OFFCURVE",
"280 158 CURVE SMOOTH",
"280 220 OFFCURVE",
"238 260 OFFCURVE",
"166 260 CURVE SMOOTH",
"104 260 OFFCURVE",
"39 231 OFFCURVE",
"39 143 CURVE SMOOTH",
"39 133 LINE SMOOTH",
"39 28 OFFCURVE",
"162 -12 OFFCURVE",
"311 -12 CURVE SMOOTH"
);
},
{
closed = 1;
nodes = (
"142 107 OFFCURVE",
"126 125 OFFCURVE",
"126 157 CURVE SMOOTH",
"126 187 OFFCURVE",
"141 205 OFFCURVE",
"175 205 CURVE SMOOTH",
"208 205 OFFCURVE",
"222 187 OFFCURVE",
"222 157 CURVE SMOOTH",
"222 125 OFFCURVE",
"207 107 OFFCURVE",
"175 107 CURVE SMOOTH"
);
}
);
width = 654;
}
);
note = uni0EAE;
unicode = 0EAE;
},
{
glyphname = "khmuGo-lao";
lastChange = "2017-01-30 17:18:59 +0000";
layers = (
{
anchors = (
{
name = bottom;
position = "{506, 0}";
},
{
name = top;
position = "{339, 538}";
}
);
layerId = "169B4CCF-67AF-4042-AA6F-C8E438F95C30";
paths = (
{
closed = 1;
nodes = (
"188 -10 OFFCURVE",
"217 28 OFFCURVE",
"217 77 CURVE SMOOTH",
"217 461 LINE",
"263 502 OFFCURVE",
"318 527 OFFCURVE",
"373 527 CURVE SMOOTH",
"429 527 OFFCURVE",
"478 501 OFFCURVE",
"478 435 CURVE SMOOTH",
"478 -4 LINE",
"486 -4 LINE",
"506 21 LINE",
"506 431 LINE SMOOTH",
"506 520 OFFCURVE",
"442 552 OFFCURVE",
"376 552 CURVE SMOOTH",
"314 552 OFFCURVE",
"254 524 OFFCURVE",
"212 487 CURVE",
"208 528 OFFCURVE",
"180 552 OFFCURVE",
"134 552 CURVE SMOOTH",
"85 552 OFFCURVE",
"55 523 OFFCURVE",
"55 478 CURVE SMOOTH",
"55 431 OFFCURVE",
"87 404 OFFCURVE",
"130 404 CURVE SMOOTH",
"154 404 OFFCURVE",
"174 412 OFFCURVE",
"186 425 CURVE",
"189 424 LINE",
"189 119 LINE",
"186 118 LINE",
"174 131 OFFCURVE",
"154 138 OFFCURVE",
"131 138 CURVE SMOOTH",
"87 138 OFFCURVE",
"55 111 OFFCURVE",
"55 64 CURVE SMOOTH",
"55 19 OFFCURVE",
"85 -10 OFFCURVE",
"133 -10 CURVE SMOOTH"
);
},
{
closed = 1;
nodes = (
"102 12 OFFCURVE",
"81 31 OFFCURVE",
"81 64 CURVE SMOOTH",
"81 97 OFFCURVE",
"101 116 OFFCURVE",
"134 116 CURVE SMOOTH",
"168 116 OFFCURVE",
"188 97 OFFCURVE",
"188 64 CURVE SMOOTH",
"188 31 OFFCURVE",
"168 12 OFFCURVE",
"135 12 CURVE SMOOTH"
);
},
{
closed = 1;
nodes = (
"100 426 OFFCURVE",
"81 445 OFFCURVE",
"81 478 CURVE SMOOTH",
"81 511 OFFCURVE",
"101 530 OFFCURVE",
"134 530 CURVE SMOOTH",
"167 530 OFFCURVE",
"186 511 OFFCURVE",
"186 478 CURVE SMOOTH",
"186 445 OFFCURVE",
"167 426 OFFCURVE",
"133 426 CURVE SMOOTH"
);
},
{
closed = 1;
nodes = (
"518 221 OFFCURVE",
"593 269 OFFCURVE",
"593 320 CURVE SMOOTH",
"593 335 OFFCURVE",
"586 341 OFFCURVE",
"569 339 CURVE",
"569 276 OFFCURVE",
"500 247 OFFCURVE",
"433 243 CURVE",
"427 242 OFFCURVE",
"418 241 OFFCURVE",
"411 242 CURVE",
"411 243 LINE",
"430 255 OFFCURVE",
"441 270 OFFCURVE",
"441 297 CURVE SMOOTH",
"441 336 OFFCURVE",
"417 361 OFFCURVE",
"378 361 CURVE SMOOTH",
"338 361 OFFCURVE",
"313 336 OFFCURVE",
"313 296 CURVE SMOOTH",
"313 252 OFFCURVE",
"343 221 OFFCURVE",
"421 221 CURVE SMOOTH"
);
},
{
closed = 1;
nodes = (
"350 249 OFFCURVE",
"337 268 OFFCURVE",
"337 296 CURVE SMOOTH",
"337 323 OFFCURVE",
"350 340 OFFCURVE",
"377 340 CURVE SMOOTH",
"404 340 OFFCURVE",
"417 322 OFFCURVE",
"417 296 CURVE SMOOTH",
"417 268 OFFCURVE",
"403 249 OFFCURVE",
"377 249 CURVE SMOOTH"
);
}
);
width = 611;
},
{
anchors = (
{
name = bottom;
position = "{576, 0}";
},
{
name = top;
position = "{368, 536}";
}
);
layerId = "A12FF52C-901E-4F1C-B651-FD65F325A5D0";
paths = (
{
closed = 1;
nodes = (
"206 -10 OFFCURVE",
"250 26 OFFCURVE",
"250 94 CURVE SMOOTH",
"250 445 LINE",
"296 487 OFFCURVE",
"343 509 OFFCURVE",
"394 509 CURVE SMOOTH",
"470 509 OFFCURVE",
"484 464 OFFCURVE",
"484 392 CURVE SMOOTH",
"484 -6 LINE",
"522 -6 LINE",
"576 52 LINE",
"576 401 LINE SMOOTH",
"576 497 OFFCURVE",
"525 558 OFFCURVE",
"417 558 CURVE SMOOTH",
"341 558 OFFCURVE",
"288 528 OFFCURVE",
"244 493 CURVE",
"230 536 OFFCURVE",
"193 558 OFFCURVE",
"143 558 CURVE SMOOTH",
"82 558 OFFCURVE",
"45 524 OFFCURVE",
"45 466 CURVE SMOOTH",
"45 406 OFFCURVE",
"85 374 OFFCURVE",
"135 374 CURVE SMOOTH",
"149 374 OFFCURVE",
"163 374 OFFCURVE",
"172 380 CURVE",
"158 389 LINE",
"158 158 LINE",
"172 171 LINE",
"163 173 OFFCURVE",
"149 175 OFFCURVE",
"135 175 CURVE SMOOTH",
"85 175 OFFCURVE",
"45 142 OFFCURVE",
"45 82 CURVE SMOOTH",
"45 24 OFFCURVE",
"82 -10 OFFCURVE",
"143 -10 CURVE SMOOTH"
);
},
{
closed = 1;
nodes = (
"109 29 OFFCURVE",
"93 47 OFFCURVE",
"93 81 CURVE SMOOTH",
"93 115 OFFCURVE",
"109 133 OFFCURVE",
"141 133 CURVE SMOOTH",
"173 133 OFFCURVE",
"189 115 OFFCURVE",
"189 81 CURVE SMOOTH",
"189 47 OFFCURVE",
"173 29 OFFCURVE",
"141 29 CURVE SMOOTH"
);
},
{
closed = 1;
nodes = (
"109 416 OFFCURVE",
"93 433 OFFCURVE",
"93 467 CURVE SMOOTH",
"93 501 OFFCURVE",
"109 519 OFFCURVE",
"141 519 CURVE SMOOTH",
"173 519 OFFCURVE",
"189 501 OFFCURVE",
"189 467 CURVE SMOOTH",
"189 433 OFFCURVE",
"173 416 OFFCURVE",
"141 416 CURVE SMOOTH"
);
},
{
closed = 1;
nodes = (
"584 194 OFFCURVE",
"679 234 OFFCURVE",
"679 308 CURVE SMOOTH",
"679 346 OFFCURVE",
"656 352 OFFCURVE",
"613 352 CURVE",
"613 268 OFFCURVE",
"575 230 OFFCURVE",
"466 230 CURVE SMOOTH",
"451 230 OFFCURVE",
"428 231 OFFCURVE",
"413 235 CURVE",
"413 238 LINE",
"428 246 OFFCURVE",
"448 260 OFFCURVE",
"448 291 CURVE SMOOTH",
"448 331 OFFCURVE",
"417 355 OFFCURVE",
"374 355 CURVE SMOOTH",
"331 355 OFFCURVE",
"300 332 OFFCURVE",
"300 291 CURVE SMOOTH",
"300 229 OFFCURVE",
"372 194 OFFCURVE",
"474 194 CURVE SMOOTH"
);
},
{
closed = 1;
nodes = (
"353 257 OFFCURVE",
"342 270 OFFCURVE",
"342 290 CURVE SMOOTH",
"342 310 OFFCURVE",
"353 324 OFFCURVE",
"373 324 CURVE SMOOTH",
"394 324 OFFCURVE",
"404 310 OFFCURVE",
"404 290 CURVE SMOOTH",
"404 270 OFFCURVE",
"394 257 OFFCURVE",
"373 257 CURVE SMOOTH"
);
}
);
width = 701;
},
{
anchors = (
{
name = bottom;
position = "{677, 0}";
},
{
name = top;
position = "{425, 536}";
}
);
layerId = "528596C4-5B9B-4A0D-91B5-66A38EFFCD2C";
paths = (
{
closed = 1;
nodes = (
"269 -12 OFFCURVE",
"318 37 OFFCURVE",
"318 125 CURVE SMOOTH",
"318 450 LINE",
"342 479 OFFCURVE",
"395 500 OFFCURVE",
"420 500 CURVE SMOOTH",
"451 500 OFFCURVE",
"488 484 OFFCURVE",
"488 443 CURVE SMOOTH",
"488 -6 LINE",
"615 -6 LINE",
"677 66 LINE",
"677 383 LINE SMOOTH",
"677 501 OFFCURVE",
"581 562 OFFCURVE",
"466 562 CURVE SMOOTH",
"400 562 OFFCURVE",
"332 538 OFFCURVE",
"302 500 CURVE",
"280 540 OFFCURVE",
"238 562 OFFCURVE",
"177 562 CURVE SMOOTH",
"98 562 OFFCURVE",
"52 525 OFFCURVE",
"52 457 CURVE SMOOTH",
"52 391 OFFCURVE",
"96 365 OFFCURVE",
"134 365 CURVE SMOOTH",
"137 365 OFFCURVE",
"140 365 OFFCURVE",
"143 365 CURVE",
"129 386 LINE",
"129 166 LINE",
"143 185 LINE",
"141 185 OFFCURVE",
"139 185 OFFCURVE",
"136 185 CURVE SMOOTH",
"98 185 OFFCURVE",
"52 160 OFFCURVE",
"52 93 CURVE SMOOTH",
"52 25 OFFCURVE",
"98 -12 OFFCURVE",
"177 -12 CURVE SMOOTH"
);
},
{
closed = 1;
nodes = (
"122 42 OFFCURVE",
"107 60 OFFCURVE",
"107 91 CURVE SMOOTH",
"107 122 OFFCURVE",
"122 140 OFFCURVE",
"155 140 CURVE SMOOTH",
"188 140 OFFCURVE",
"203 122 OFFCURVE",
"203 91 CURVE SMOOTH",
"203 60 OFFCURVE",
"188 42 OFFCURVE",
"155 42 CURVE SMOOTH"
);
},
{
closed = 1;
nodes = (
"122 410 OFFCURVE",
"107 428 OFFCURVE",
"107 459 CURVE SMOOTH",
"107 490 OFFCURVE",
"122 508 OFFCURVE",
"155 508 CURVE SMOOTH",
"188 508 OFFCURVE",
"203 490 OFFCURVE",
"203 459 CURVE SMOOTH",
"203 428 OFFCURVE",
"188 410 OFFCURVE",
"155 410 CURVE SMOOTH"
);
},
{
closed = 1;
nodes = (
"631 162 OFFCURVE",
"757 196 OFFCURVE",
"757 284 CURVE SMOOTH",
"757 319 OFFCURVE",
"737 343 OFFCURVE",
"702 353 CURVE",
"683 261 OFFCURVE",
"592 229 OFFCURVE",
"515 229 CURVE SMOOTH",
"492 229 OFFCURVE",
"470 232 OFFCURVE",
"452 237 CURVE",
"452 241 LINE",
"470 256 OFFCURVE",
"479 283 OFFCURVE",
"479 310 CURVE SMOOTH",
"479 365 OFFCURVE",
"443 391 OFFCURVE",
"391 391 CURVE SMOOTH",
"333 391 OFFCURVE",
"301 358 OFFCURVE",
"301 306 CURVE SMOOTH",
"301 214 OFFCURVE",
"404 162 OFFCURVE",
"530 162 CURVE SMOOTH"
);
},
{
closed = 1;
nodes = (
"361 261 OFFCURVE",
"344 277 OFFCURVE",
"344 306 CURVE SMOOTH",
"344 335 OFFCURVE",
"361 351 OFFCURVE",
"391 351 CURVE SMOOTH",
"422 351 OFFCURVE",
"436 335 OFFCURVE",
"436 306 CURVE SMOOTH",
"436 277 OFFCURVE",
"421 261 OFFCURVE",
"391 261 CURVE SMOOTH"
);
}
);
width = 767;
}
);
note = .notdef.026;
unicode = 0EDE;
},
{
glyphname = "khmuNyo-lao";
lastChange = "2017-01-30 17:18:59 +0000";
layers = (
{
anchors = (
{
name = bottom;
position = "{432, 0}";
},
{
name = top;
position = "{286, 538}";
}
);
layerId = "169B4CCF-67AF-4042-AA6F-C8E438F95C30";
paths = (
{
closed = 1;
nodes = (
"370 -10 OFFCURVE",
"442 39 OFFCURVE",
"442 176 CURVE SMOOTH",
"442 548 LINE",
"434 548 LINE",
"414 523 LINE",
"414 171 LINE SMOOTH",
"414 62 OFFCURVE",
"359 15 OFFCURVE",
"248 15 CURVE SMOOTH",
"125 15 OFFCURVE",
"89 78 OFFCURVE",
"89 154 CURVE SMOOTH",
"89 234 OFFCURVE",
"124 274 OFFCURVE",
"221 274 CURVE SMOOTH",
"263 274 LINE",
"263 297 LINE",
"221 297 LINE SMOOTH",
"141 297 OFFCURVE",
"87 371 OFFCURVE",
"84 426 CURVE",
"87 427 LINE",
"101 410 OFFCURVE",
"122 401 OFFCURVE",
"148 401 CURVE SMOOTH",
"196 401 OFFCURVE",
"226 432 OFFCURVE",
"226 477 CURVE SMOOTH",
"226 521 OFFCURVE",
"198 552 OFFCURVE",
"144 552 CURVE SMOOTH",
"88 552 OFFCURVE",
"55 518 OFFCURVE",
"55 457 CURVE SMOOTH",
"55 439 LINE SMOOTH",
"55 378 OFFCURVE",
"98 312 OFFCURVE",
"157 290 CURVE",
"157 287 LINE",
"96 280 OFFCURVE",
"58 235 OFFCURVE",
"58 153 CURVE SMOOTH",
"58 45 OFFCURVE",
"128 -10 OFFCURVE",
"250 -10 CURVE SMOOTH"
);
},
{
closed = 1;
nodes = (
"111 424 OFFCURVE",
"91 443 OFFCURVE",
"91 476 CURVE SMOOTH",
"91 510 OFFCURVE",
"111 528 OFFCURVE",
"144 528 CURVE SMOOTH",
"177 528 OFFCURVE",
"198 509 OFFCURVE",
"198 476 CURVE SMOOTH",
"198 443 OFFCURVE",
"178 424 OFFCURVE",
"145 424 CURVE SMOOTH"
);
},
{
closed = 1;
nodes = (
"458 221 OFFCURVE",
"533 269 OFFCURVE",
"533 320 CURVE SMOOTH",
"533 335 OFFCURVE",
"526 341 OFFCURVE",
"509 339 CURVE",
"509 276 OFFCURVE",
"440 247 OFFCURVE",
"373 243 CURVE",
"367 242 OFFCURVE",
"358 241 OFFCURVE",
"351 242 CURVE",
"351 243 LINE",
"370 255 OFFCURVE",
"381 270 OFFCURVE",
"381 297 CURVE SMOOTH",
"381 336 OFFCURVE",
"357 361 OFFCURVE",
"318 361 CURVE SMOOTH",
"278 361 OFFCURVE",
"253 336 OFFCURVE",
"253 296 CURVE SMOOTH",
"253 252 OFFCURVE",
"283 221 OFFCURVE",
"361 221 CURVE SMOOTH"
);
},
{
closed = 1;
nodes = (
"290 249 OFFCURVE",
"277 268 OFFCURVE",
"277 296 CURVE SMOOTH",
"277 323 OFFCURVE",
"290 340 OFFCURVE",
"317 340 CURVE SMOOTH",
"344 340 OFFCURVE",
"357 322 OFFCURVE",
"357 296 CURVE SMOOTH",
"357 268 OFFCURVE",
"343 249 OFFCURVE",
"317 249 CURVE SMOOTH"
);
}
);
width = 547;
},
{
anchors = (
{
name = bottom;
position = "{498, 0}";
},
{
name = top;
position = "{319, 536}";
}
);
layerId = "A12FF52C-901E-4F1C-B651-FD65F325A5D0";
paths = (
{
closed = 1;
nodes = (
"426 -10 OFFCURVE",
"508 49 OFFCURVE",
"508 166 CURVE SMOOTH",
"508 554 LINE",
"470 554 LINE",
"416 497 LINE",
"416 183 LINE SMOOTH",
"416 84 OFFCURVE",
"373 39 OFFCURVE",
"272 39 CURVE SMOOTH",
"195 39 OFFCURVE",
"137 72 OFFCURVE",
"137 150 CURVE SMOOTH",
"137 227 OFFCURVE",
"184 254 OFFCURVE",
"246 254 CURVE SMOOTH",
"267 254 LINE",
"267 303 LINE",
"246 303 LINE SMOOTH",
"164 303 OFFCURVE",
"129 339 OFFCURVE",
"139 391 CURVE",
"132 380 LINE",
"136 378 OFFCURVE",
"142 374 OFFCURVE",
"157 374 CURVE SMOOTH",
"210 374 OFFCURVE",
"246 409 OFFCURVE",
"246 466 CURVE SMOOTH",
"246 523 OFFCURVE",
"209 558 OFFCURVE",
"148 558 CURVE SMOOTH",
"85 558 OFFCURVE",
"45 517 OFFCURVE",
"45 449 CURVE SMOOTH",
"45 425 LINE SMOOTH",
"45 354 OFFCURVE",
"80 304 OFFCURVE",
"133 280 CURVE",
"133 277 LINE",
"85 257 OFFCURVE",
"45 215 OFFCURVE",
"45 145 CURVE SMOOTH",
"45 45 OFFCURVE",
"131 -10 OFFCURVE",
"273 -10 CURVE SMOOTH"
);
},
{
closed = 1;
nodes = (
"119 416 OFFCURVE",
"102 432 OFFCURVE",
"102 466 CURVE SMOOTH",
"102 500 OFFCURVE",
"120 517 OFFCURVE",
"152 517 CURVE SMOOTH",
"183 517 OFFCURVE",
"199 501 OFFCURVE",
"199 467 CURVE SMOOTH",
"199 433 OFFCURVE",
"182 416 OFFCURVE",
"150 416 CURVE SMOOTH"
);
},
{
closed = 1;
nodes = (
"522 194 OFFCURVE",
"617 234 OFFCURVE",
"617 308 CURVE SMOOTH",
"617 346 OFFCURVE",
"594 352 OFFCURVE",
"551 352 CURVE",
"551 268 OFFCURVE",
"513 230 OFFCURVE",
"404 230 CURVE SMOOTH",
"389 230 OFFCURVE",
"366 231 OFFCURVE",
"351 235 CURVE",
"351 238 LINE",
"366 246 OFFCURVE",
"386 260 OFFCURVE",
"386 291 CURVE SMOOTH",
"386 331 OFFCURVE",
"355 355 OFFCURVE",
"312 355 CURVE SMOOTH",
"269 355 OFFCURVE",
"238 332 OFFCURVE",
"238 291 CURVE SMOOTH",
"238 229 OFFCURVE",
"310 194 OFFCURVE",
"412 194 CURVE SMOOTH"
);
},
{
closed = 1;
nodes = (
"291 257 OFFCURVE",
"280 270 OFFCURVE",
"280 290 CURVE SMOOTH",
"280 310 OFFCURVE",
"291 324 OFFCURVE",
"311 324 CURVE SMOOTH",
"332 324 OFFCURVE",
"342 310 OFFCURVE",
"342 290 CURVE SMOOTH",
"342 270 OFFCURVE",
"332 257 OFFCURVE",
"311 257 CURVE SMOOTH"
);
}
);
width = 635;
},
{
anchors = (
{
name = bottom;
position = "{632, 0}";
},
{
name = top;
position = "{387, 536}";
}
);
layerId = "528596C4-5B9B-4A0D-91B5-66A38EFFCD2C";
paths = (
{
closed = 1;
nodes = (
"569 -12 OFFCURVE",
"642 43 OFFCURVE",
"642 176 CURVE SMOOTH",
"642 552 LINE",
"515 552 LINE",
"453 480 LINE",
"453 143 LINE SMOOTH",
"453 70 OFFCURVE",
"421 42 OFFCURVE",
"352 42 CURVE SMOOTH",
"290 42 OFFCURVE",
"239 65 OFFCURVE",
"239 158 CURVE SMOOTH",
"239 221 OFFCURVE",
"262 251 OFFCURVE",
"303 251 CURVE SMOOTH",
"316 251 LINE",
"316 312 LINE",
"295 312 LINE SMOOTH",
"245 312 OFFCURVE",
"234 353 OFFCURVE",
"233 386 CURVE",
"213 373 LINE",
"218 373 OFFCURVE",
"223 373 OFFCURVE",
"228 373 CURVE SMOOTH",
"288 373 OFFCURVE",
"338 398 OFFCURVE",
"338 465 CURVE SMOOTH",
"338 529 OFFCURVE",
"292 562 OFFCURVE",
"216 562 CURVE SMOOTH",
"118 562 OFFCURVE",
"46 508 OFFCURVE",
"46 436 CURVE SMOOTH",
"46 428 LINE SMOOTH",
"46 366 OFFCURVE",
"83 304 OFFCURVE",
"157 286 CURVE",
"157 282 LINE",
"83 263 OFFCURVE",
"49 215 OFFCURVE",
"49 151 CURVE SMOOTH",
"49 34 OFFCURVE",
"165 -12 OFFCURVE",
"358 -12 CURVE SMOOTH"
);
},
{
closed = 1;
nodes = (
"202 417 OFFCURVE",
"187 435 OFFCURVE",
"187 466 CURVE SMOOTH",
"187 497 OFFCURVE",
"202 515 OFFCURVE",
"235 515 CURVE SMOOTH",
"268 515 OFFCURVE",
"283 497 OFFCURVE",
"283 466 CURVE SMOOTH",
"283 435 OFFCURVE",
"268 417 OFFCURVE",
"235 417 CURVE SMOOTH"
);
},
{
closed = 1;
nodes = (
"605 162 OFFCURVE",
"731 196 OFFCURVE",
"731 284 CURVE SMOOTH",
"731 319 OFFCURVE",
"711 343 OFFCURVE",
"676 353 CURVE",
"657 261 OFFCURVE",
"566 229 OFFCURVE",
"489 229 CURVE SMOOTH",
"466 229 OFFCURVE",
"438 232 OFFCURVE",
"420 237 CURVE",
"420 241 LINE",
"438 256 OFFCURVE",
"447 283 OFFCURVE",
"447 311 CURVE SMOOTH",
"447 365 OFFCURVE",
"414 391 OFFCURVE",
"365 391 CURVE SMOOTH",
"310 391 OFFCURVE",
"275 358 OFFCURVE",
"275 305 CURVE SMOOTH",
"275 214 OFFCURVE",
"379 162 OFFCURVE",
"504 162 CURVE SMOOTH"
);
},
{
closed = 1;
nodes = (
"332 261 OFFCURVE",
"318 277 OFFCURVE",
"318 306 CURVE SMOOTH",
"318 335 OFFCURVE",
"332 351 OFFCURVE",
"362 351 CURVE SMOOTH",
"393 351 OFFCURVE",
"404 335 OFFCURVE",
"404 306 CURVE SMOOTH",
"404 277 OFFCURVE",
"392 261 OFFCURVE",
"362 261 CURVE SMOOTH"
);
}
);
width = 740;
}
);
note = .notdef.018;
unicode = 0EDF;
},
{
glyphname = "aVowel-lao";
lastChange = "2017-01-30 17:18:59 +0000";
layers = (
{
layerId = "169B4CCF-67AF-4042-AA6F-C8E438F95C30";
paths = (
{
closed = 1;
nodes = (
"299 322 OFFCURVE",
"348 384 OFFCURVE",
"348 440 CURVE SMOOTH",
"348 456 OFFCURVE",
"344 469 OFFCURVE",
"331 469 CURVE SMOOTH",
"328 469 OFFCURVE",
"324 468 OFFCURVE",
"319 466 CURVE",
"319 450 LINE SMOOTH",
"319 382 OFFCURVE",
"258 346 OFFCURVE",
"183 346 CURVE SMOOTH",
"180 346 OFFCURVE",
"178 346 OFFCURVE",
"175 346 CURVE",
"175 348 LINE",
"198 362 OFFCURVE",
"211 382 OFFCURVE",
"211 414 CURVE SMOOTH",
"211 462 OFFCURVE",
"182 492 OFFCURVE",
"135 492 CURVE SMOOTH",
"89 492 OFFCURVE",
"55 464 OFFCURVE",
"55 413 CURVE SMOOTH",
"55 356 OFFCURVE",
"99 322 OFFCURVE",
"184 322 CURVE SMOOTH"
);
},
{
closed = 1;
nodes = (
"100 354 OFFCURVE",
"81 377 OFFCURVE",
"81 412 CURVE SMOOTH",
"81 447 OFFCURVE",
"100 470 OFFCURVE",
"134 470 CURVE SMOOTH",
"168 470 OFFCURVE",
"185 446 OFFCURVE",
"185 412 CURVE SMOOTH",
"185 377 OFFCURVE",
"166 354 OFFCURVE",
"133 354 CURVE SMOOTH"
);
},
{
closed = 1;
nodes = (
"299 54 OFFCURVE",
"348 116 OFFCURVE",
"348 172 CURVE SMOOTH",
"348 188 OFFCURVE",
"344 201 OFFCURVE",
"331 201 CURVE SMOOTH",
"328 201 OFFCURVE",
"324 200 OFFCURVE",
"319 198 CURVE",
"319 182 LINE SMOOTH",
"319 114 OFFCURVE",
"258 78 OFFCURVE",
"183 78 CURVE SMOOTH",
"180 78 OFFCURVE",
"178 78 OFFCURVE",
"175 78 CURVE",
"175 80 LINE",
"198 94 OFFCURVE",
"211 114 OFFCURVE",
"211 146 CURVE SMOOTH",
"211 194 OFFCURVE",
"182 224 OFFCURVE",
"135 224 CURVE SMOOTH",
"89 224 OFFCURVE",
"55 196 OFFCURVE",
"55 145 CURVE SMOOTH",
"55 88 OFFCURVE",
"99 54 OFFCURVE",
"184 54 CURVE SMOOTH"
);
},
{
closed = 1;
nodes = (
"100 86 OFFCURVE",
"81 109 OFFCURVE",
"81 144 CURVE SMOOTH",
"81 179 OFFCURVE",
"100 202 OFFCURVE",
"134 202 CURVE SMOOTH",
"168 202 OFFCURVE",
"185 178 OFFCURVE",
"185 144 CURVE SMOOTH",
"185 109 OFFCURVE",
"166 86 OFFCURVE",
"133 86 CURVE SMOOTH"
);
}
);
width = 403;
},
{
layerId = "A12FF52C-901E-4F1C-B651-FD65F325A5D0";
paths = (
{
closed = 1;
nodes = (
"334 316 OFFCURVE",
"423 367 OFFCURVE",
"423 448 CURVE SMOOTH",
"423 486 OFFCURVE",
"404 504 OFFCURVE",
"369 504 CURVE SMOOTH",
"361 504 OFFCURVE",
"352 503 OFFCURVE",
"342 501 CURVE",
"342 472 LINE SMOOTH",
"342 381 OFFCURVE",
"267 356 OFFCURVE",
"195 356 CURVE SMOOTH",
"189 356 OFFCURVE",
"183 356 OFFCURVE",
"176 356 CURVE",
"176 359 LINE",
"194 370 OFFCURVE",
"214 386 OFFCURVE",
"214 423 CURVE SMOOTH",
"214 471 OFFCURVE",
"180 500 OFFCURVE",
"128 500 CURVE SMOOTH",
"79 500 OFFCURVE",
"45 474 OFFCURVE",
"45 421 CURVE SMOOTH",
"45 329 OFFCURVE",
"149 316 OFFCURVE",
"211 316 CURVE SMOOTH"
);
},
{
closed = 1;
nodes = (
"101 378 OFFCURVE",
"85 396 OFFCURVE",
"85 422 CURVE SMOOTH",
"85 449 OFFCURVE",
"101 466 OFFCURVE",
"128 466 CURVE SMOOTH",
"156 466 OFFCURVE",
"172 449 OFFCURVE",
"172 422 CURVE SMOOTH",
"172 396 OFFCURVE",
"156 378 OFFCURVE",
"128 378 CURVE SMOOTH"
);
},
{
closed = 1;
nodes = (
"334 39 OFFCURVE",
"423 90 OFFCURVE",
"423 171 CURVE SMOOTH",
"423 209 OFFCURVE",
"404 228 OFFCURVE",
"368 228 CURVE SMOOTH",
"360 228 OFFCURVE",
"352 227 OFFCURVE",
"342 225 CURVE",
"342 195 LINE SMOOTH",
"342 104 OFFCURVE",
"267 79 OFFCURVE",
"195 79 CURVE SMOOTH",
"189 79 OFFCURVE",
"183 79 OFFCURVE",
"176 80 CURVE",
"176 83 LINE",
"194 93 OFFCURVE",
"214 109 OFFCURVE",
"214 146 CURVE SMOOTH",
"214 194 OFFCURVE",
"180 224 OFFCURVE",
"128 224 CURVE SMOOTH",
"79 224 OFFCURVE",
"45 197 OFFCURVE",
"45 144 CURVE SMOOTH",
"45 52 OFFCURVE",
"150 39 OFFCURVE",
"212 39 CURVE SMOOTH"
);
},
{
closed = 1;
nodes = (
"101 102 OFFCURVE",
"85 119 OFFCURVE",
"85 146 CURVE SMOOTH",
"85 172 OFFCURVE",
"101 189 OFFCURVE",
"128 189 CURVE SMOOTH",
"156 189 OFFCURVE",
"172 172 OFFCURVE",
"172 146 CURVE SMOOTH",
"172 119 OFFCURVE",
"156 102 OFFCURVE",
"128 102 CURVE SMOOTH"
);
}
);
width = 468;
},
{
layerId = "528596C4-5B9B-4A0D-91B5-66A38EFFCD2C";
paths = (
{
closed = 1;
nodes = (
"422 295 OFFCURVE",
"512 352 OFFCURVE",
"512 427 CURVE SMOOTH",
"512 475 OFFCURVE",
"475 504 OFFCURVE",
"413 504 CURVE SMOOTH",
"393 504 OFFCURVE",
"371 501 OFFCURVE",
"347 495 CURVE",
"347 474 LINE SMOOTH",
"347 393 OFFCURVE",
"313 341 OFFCURVE",
"262 341 CURVE SMOOTH",
"255 341 OFFCURVE",
"248 342 OFFCURVE",
"245 343 CURVE",
"245 349 LINE",
"264 361 OFFCURVE",
"278 384 OFFCURVE",
"278 417 CURVE SMOOTH",
"278 483 OFFCURVE",
"224 511 OFFCURVE",
"155 511 CURVE SMOOTH",
"83 511 OFFCURVE",
"34 481 OFFCURVE",
"34 418 CURVE SMOOTH",
"34 325 OFFCURVE",
"140 295 OFFCURVE",
"259 295 CURVE SMOOTH"
);
},
{
closed = 1;
nodes = (
"122 374 OFFCURVE",
"108 391 OFFCURVE",
"108 418 CURVE SMOOTH",
"108 445 OFFCURVE",
"122 462 OFFCURVE",
"151 462 CURVE SMOOTH",
"181 462 OFFCURVE",
"195 445 OFFCURVE",
"195 418 CURVE SMOOTH",
"195 391 OFFCURVE",
"181 374 OFFCURVE",
"151 374 CURVE SMOOTH"
);
},
{
closed = 1;
nodes = (
"422 18 OFFCURVE",
"512 75 OFFCURVE",
"512 150 CURVE SMOOTH",
"512 198 OFFCURVE",
"475 227 OFFCURVE",
"413 227 CURVE SMOOTH",
"393 227 OFFCURVE",
"371 224 OFFCURVE",
"347 218 CURVE",
"347 197 LINE SMOOTH",
"347 116 OFFCURVE",
"313 64 OFFCURVE",
"262 64 CURVE SMOOTH",
"255 64 OFFCURVE",
"248 65 OFFCURVE",
"245 66 CURVE",
"245 72 LINE",
"264 84 OFFCURVE",
"278 107 OFFCURVE",
"278 140 CURVE SMOOTH",
"278 206 OFFCURVE",
"224 234 OFFCURVE",
"155 234 CURVE SMOOTH",
"83 234 OFFCURVE",
"34 204 OFFCURVE",
"34 141 CURVE SMOOTH",
"34 48 OFFCURVE",
"140 18 OFFCURVE",
"259 18 CURVE SMOOTH"
);
},
{
closed = 1;
nodes = (
"122 97 OFFCURVE",
"108 114 OFFCURVE",
"108 141 CURVE SMOOTH",
"108 168 OFFCURVE",
"122 185 OFFCURVE",
"151 185 CURVE SMOOTH",
"181 185 OFFCURVE",
"195 168 OFFCURVE",
"195 141 CURVE SMOOTH",
"195 114 OFFCURVE",
"181 97 OFFCURVE",
"151 97 CURVE SMOOTH"
);
}
);
width = 546;
}
);
note = uni0EB0;
unicode = 0EB0;
},
{
glyphname = "aaVowel-lao";
lastChange = "2017-01-30 17:18:59 +0000";
layers = (
{
layerId = "169B4CCF-67AF-4042-AA6F-C8E438F95C30";
paths = (
{
closed = 1;
nodes = (
"333 -4 LINE",
"353 21 LINE",
"353 379 LINE SMOOTH",
"353 489 OFFCURVE",
"310 552 OFFCURVE",
"201 552 CURVE SMOOTH",
"81 552 OFFCURVE",
"35 475 OFFCURVE",
"35 409 CURVE SMOOTH",
"35 398 LINE SMOOTH",
"35 345 OFFCURVE",
"68 317 OFFCURVE",
"115 317 CURVE SMOOTH",
"168 317 OFFCURVE",
"192 353 OFFCURVE",
"192 394 CURVE SMOOTH",
"192 441 OFFCURVE",
"161 468 OFFCURVE",
"121 468 CURVE SMOOTH",
"102 468 OFFCURVE",
"81 462 OFFCURVE",
"71 457 CURVE",
"70 458 LINE",
"93 503 OFFCURVE",
"135 527 OFFCURVE",
"199 527 CURVE SMOOTH",
"294 527 OFFCURVE",
"325 475 OFFCURVE",
"325 381 CURVE SMOOTH",
"325 -4 LINE"
);
},
{
closed = 1;
nodes = (
"78 340 OFFCURVE",
"62 365 OFFCURVE",
"62 397 CURVE SMOOTH",
"62 429 OFFCURVE",
"78 446 OFFCURVE",
"113 446 CURVE SMOOTH",
"147 446 OFFCURVE",
"165 430 OFFCURVE",
"165 395 CURVE SMOOTH",
"165 364 OFFCURVE",
"151 340 OFFCURVE",
"115 340 CURVE SMOOTH"
);
}
);
width = 428;
},
{
layerId = "A12FF52C-901E-4F1C-B651-FD65F325A5D0";
paths = (
{
closed = 1;
nodes = (
"304 -6 LINE",
"358 52 LINE",
"358 410 LINE SMOOTH",
"358 509 OFFCURVE",
"295 558 OFFCURVE",
"196 558 CURVE SMOOTH",
"85 558 OFFCURVE",
"35 497 OFFCURVE",
"35 425 CURVE SMOOTH",
"35 416 LINE SMOOTH",
"35 360 OFFCURVE",
"73 320 OFFCURVE",
"131 320 CURVE SMOOTH",
"185 320 OFFCURVE",
"219 355 OFFCURVE",
"219 401 CURVE SMOOTH",
"219 447 OFFCURVE",
"186 477 OFFCURVE",
"141 477 CURVE SMOOTH",
"120 477 OFFCURVE",
"99 470 OFFCURVE",
"87 460 CURVE",
"83 463 LINE",
"94 490 OFFCURVE",
"125 517 OFFCURVE",
"177 517 CURVE SMOOTH",
"246 517 OFFCURVE",
"266 469 OFFCURVE",
"266 413 CURVE SMOOTH",
"266 -6 LINE"
);
},
{
closed = 1;
nodes = (
"113 358 OFFCURVE",
"97 375 OFFCURVE",
"97 398 CURVE SMOOTH",
"97 422 OFFCURVE",
"113 438 OFFCURVE",
"137 438 CURVE SMOOTH",
"161 438 OFFCURVE",
"177 422 OFFCURVE",
"177 398 CURVE SMOOTH",
"177 375 OFFCURVE",
"161 358 OFFCURVE",
"137 358 CURVE SMOOTH"
);
}
);
width = 423;
},
{
layerId = "528596C4-5B9B-4A0D-91B5-66A38EFFCD2C";
paths = (
{
closed = 1;
nodes = (
"433 -6 LINE",
"495 66 LINE",
"495 410 LINE SMOOTH",
"495 487 OFFCURVE",
"438 562 OFFCURVE",
"248 562 CURVE SMOOTH",
"92 562 OFFCURVE",
"25 512 OFFCURVE",
"25 401 CURVE SMOOTH",
"25 391 LINE SMOOTH",
"25 303 OFFCURVE",
"79 275 OFFCURVE",
"140 275 CURVE SMOOTH",
"214 275 OFFCURVE",
"244 317 OFFCURVE",
"244 374 CURVE SMOOTH",
"244 444 OFFCURVE",
"200 473 OFFCURVE",
"155 473 CURVE SMOOTH",
"147 473 OFFCURVE",
"135 472 OFFCURVE",
"126 467 CURVE",
"124 470 LINE",
"144 497 OFFCURVE",
"176 508 OFFCURVE",
"214 508 CURVE SMOOTH",
"297 508 OFFCURVE",
"306 457 OFFCURVE",
"306 414 CURVE SMOOTH",
"306 -6 LINE"
);
},
{
closed = 1;
nodes = (
"106 329 OFFCURVE",
"91 347 OFFCURVE",
"91 378 CURVE SMOOTH",
"91 409 OFFCURVE",
"106 427 OFFCURVE",
"139 427 CURVE SMOOTH",
"172 427 OFFCURVE",
"187 409 OFFCURVE",
"187 378 CURVE SMOOTH",
"187 347 OFFCURVE",
"172 329 OFFCURVE",
"139 329 CURVE SMOOTH"
);
}
);
width = 561;
}
);
note = uni0EB2;
unicode = 0EB2;
},
{
glyphname = "amVowel-lao";
lastChange = "2017-01-30 17:18:59 +0000";
layers = (
{
anchors = (
{
name = top;
position = "{-125, 758}";
}
);
layerId = "169B4CCF-67AF-4042-AA6F-C8E438F95C30";
paths = (
{
closed = 1;
nodes = (
"333 -4 LINE",
"353 21 LINE",
"353 379 LINE SMOOTH",
"353 489 OFFCURVE",
"310 552 OFFCURVE",
"201 552 CURVE SMOOTH",
"81 552 OFFCURVE",
"35 475 OFFCURVE",
"35 409 CURVE SMOOTH",
"35 398 LINE SMOOTH",
"35 345 OFFCURVE",
"68 317 OFFCURVE",
"115 317 CURVE SMOOTH",
"168 317 OFFCURVE",
"192 353 OFFCURVE",
"192 394 CURVE SMOOTH",
"192 441 OFFCURVE",
"161 468 OFFCURVE",
"121 468 CURVE SMOOTH",
"102 468 OFFCURVE",
"81 462 OFFCURVE",
"71 457 CURVE",
"70 458 LINE",
"93 503 OFFCURVE",
"135 527 OFFCURVE",
"199 527 CURVE SMOOTH",
"294 527 OFFCURVE",
"325 475 OFFCURVE",
"325 381 CURVE SMOOTH",
"325 -4 LINE"
);
},
{
closed = 1;
nodes = (
"78 340 OFFCURVE",
"62 365 OFFCURVE",
"62 397 CURVE SMOOTH",
"62 429 OFFCURVE",
"78 446 OFFCURVE",
"113 446 CURVE SMOOTH",
"147 446 OFFCURVE",
"165 430 OFFCURVE",
"165 395 CURVE SMOOTH",
"165 364 OFFCURVE",
"151 340 OFFCURVE",
"115 340 CURVE SMOOTH"
);
},
{
closed = 1;
nodes = (
"-73 626 OFFCURVE",
"-37 657 OFFCURVE",
"-37 709 CURVE SMOOTH",
"-37 761 OFFCURVE",
"-73 790 OFFCURVE",
"-125 790 CURVE SMOOTH",
"-177 790 OFFCURVE",
"-213 761 OFFCURVE",
"-213 709 CURVE SMOOTH",
"-213 657 OFFCURVE",
"-177 626 OFFCURVE",
"-125 626 CURVE SMOOTH"
);
},
{
closed = 1;
nodes = (
"-165 650 OFFCURVE",
"-185 671 OFFCURVE",
"-185 709 CURVE SMOOTH",
"-185 748 OFFCURVE",
"-165 768 OFFCURVE",
"-125 768 CURVE SMOOTH",
"-85 768 OFFCURVE",
"-65 748 OFFCURVE",
"-65 709 CURVE SMOOTH",
"-65 671 OFFCURVE",
"-85 650 OFFCURVE",
"-125 650 CURVE SMOOTH"
);
}
);
width = 428;
},
{
anchors = (
{
name = top;
position = "{-160, 767}";
}
);
layerId = "A12FF52C-901E-4F1C-B651-FD65F325A5D0";
paths = (
{
closed = 1;
nodes = (
"304 -6 LINE",
"358 52 LINE",
"358 410 LINE SMOOTH",
"358 509 OFFCURVE",
"295 558 OFFCURVE",
"196 558 CURVE SMOOTH",
"85 558 OFFCURVE",
"35 497 OFFCURVE",
"35 425 CURVE SMOOTH",
"35 416 LINE SMOOTH",
"35 360 OFFCURVE",
"73 320 OFFCURVE",
"131 320 CURVE SMOOTH",
"185 320 OFFCURVE",
"219 355 OFFCURVE",
"219 401 CURVE SMOOTH",
"219 447 OFFCURVE",
"186 477 OFFCURVE",
"141 477 CURVE SMOOTH",
"120 477 OFFCURVE",
"99 470 OFFCURVE",
"87 460 CURVE",
"83 463 LINE",
"94 490 OFFCURVE",
"125 517 OFFCURVE",
"177 517 CURVE SMOOTH",
"246 517 OFFCURVE",
"266 469 OFFCURVE",
"266 413 CURVE SMOOTH",
"266 -6 LINE"
);
},
{
closed = 1;
nodes = (
"113 358 OFFCURVE",
"97 375 OFFCURVE",
"97 398 CURVE SMOOTH",
"97 422 OFFCURVE",
"113 438 OFFCURVE",
"137 438 CURVE SMOOTH",
"161 438 OFFCURVE",
"177 422 OFFCURVE",
"177 398 CURVE SMOOTH",
"177 375 OFFCURVE",
"161 358 OFFCURVE",
"137 358 CURVE SMOOTH"
);
},
{
closed = 1;
nodes = (
"-98 621 OFFCURVE",
"-53 652 OFFCURVE",
"-53 714 CURVE SMOOTH",
"-53 776 OFFCURVE",
"-98 807 OFFCURVE",
"-160 807 CURVE SMOOTH",
"-222 807 OFFCURVE",
"-267 776 OFFCURVE",
"-267 714 CURVE SMOOTH",
"-267 652 OFFCURVE",
"-222 621 OFFCURVE",
"-160 621 CURVE SMOOTH"
);
},
{
closed = 1;
nodes = (
"-197 661 OFFCURVE",
"-205 686 OFFCURVE",
"-205 714 CURVE SMOOTH",
"-205 742 OFFCURVE",
"-197 767 OFFCURVE",
"-160 767 CURVE SMOOTH",
"-123 767 OFFCURVE",
"-115 742 OFFCURVE",
"-115 714 CURVE SMOOTH",
"-115 686 OFFCURVE",
"-123 661 OFFCURVE",
"-160 661 CURVE SMOOTH"
);
}
);
width = 423;
},
{
anchors = (
{
name = top;
position = "{-199, 806}";
}
);
layerId = "528596C4-5B9B-4A0D-91B5-66A38EFFCD2C";
paths = (
{
closed = 1;
nodes = (
"433 -6 LINE",
"495 66 LINE",
"495 410 LINE SMOOTH",
"495 487 OFFCURVE",
"438 562 OFFCURVE",
"248 562 CURVE SMOOTH",
"92 562 OFFCURVE",
"25 512 OFFCURVE",
"25 401 CURVE SMOOTH",
"25 391 LINE SMOOTH",
"25 303 OFFCURVE",
"79 275 OFFCURVE",
"140 275 CURVE SMOOTH",
"214 275 OFFCURVE",
"244 317 OFFCURVE",
"244 374 CURVE SMOOTH",
"244 444 OFFCURVE",
"200 473 OFFCURVE",
"155 473 CURVE SMOOTH",
"147 473 OFFCURVE",
"135 472 OFFCURVE",
"126 467 CURVE",
"124 470 LINE",
"144 497 OFFCURVE",
"176 508 OFFCURVE",
"214 508 CURVE SMOOTH",
"297 508 OFFCURVE",
"306 457 OFFCURVE",
"306 414 CURVE SMOOTH",
"306 -6 LINE"
);
},
{
closed = 1;
nodes = (
"106 329 OFFCURVE",
"91 347 OFFCURVE",
"91 378 CURVE SMOOTH",
"91 409 OFFCURVE",
"106 427 OFFCURVE",
"139 427 CURVE SMOOTH",
"172 427 OFFCURVE",
"187 409 OFFCURVE",
"187 378 CURVE SMOOTH",
"187 347 OFFCURVE",
"172 329 OFFCURVE",
"139 329 CURVE SMOOTH"
);
},
{
closed = 1;
nodes = (
"-77 631 OFFCURVE",
"-31 671 OFFCURVE",
"-31 731 CURVE SMOOTH",
"-31 791 OFFCURVE",
"-77 831 OFFCURVE",
"-199 831 CURVE SMOOTH",
"-320 831 OFFCURVE",
"-366 791 OFFCURVE",
"-366 731 CURVE SMOOTH",
"-366 671 OFFCURVE",
"-320 631 OFFCURVE",
"-199 631 CURVE SMOOTH"
);
},
{
closed = 1;
nodes = (
"-225 676 OFFCURVE",
"-245 695 OFFCURVE",
"-245 731 CURVE SMOOTH",
"-245 767 OFFCURVE",
"-225 786 OFFCURVE",
"-199 786 CURVE SMOOTH",
"-172 786 OFFCURVE",
"-152 767 OFFCURVE",
"-152 731 CURVE SMOOTH",
"-152 695 OFFCURVE",
"-172 676 OFFCURVE",
"-199 676 CURVE SMOOTH"
);
}
);
width = 561;
}
);
note = uni0EB3;
unicode = 0EB3;
},
{
glyphname = "nyoVowel-lao";
lastChange = "2017-01-30 17:18:59 +0000";
layers = (
{
layerId = "169B4CCF-67AF-4042-AA6F-C8E438F95C30";
paths = (
{
closed = 1;
nodes = (
"303 -213 OFFCURVE",
"359 -162 OFFCURVE",
"359 -75 CURVE SMOOTH",
"359 250 LINE SMOOTH",
"359 307 OFFCURVE",
"316 350 OFFCURVE",
"247 377 CURVE SMOOTH",
"122 426 LINE SMOOTH",
"85 440 OFFCURVE",
"59 451 OFFCURVE",
"59 484 CURVE SMOOTH",
"59 512 OFFCURVE",
"82 528 OFFCURVE",
"116 528 CURVE SMOOTH",
"170 528 OFFCURVE",
"217 482 OFFCURVE",
"280 482 CURVE SMOOTH",
"339 482 OFFCURVE",
"359 509 OFFCURVE",
"359 534 CURVE SMOOTH",
"359 552 OFFCURVE",
"351 558 OFFCURVE",
"337 558 CURVE",
"337 526 OFFCURVE",
"325 506 OFFCURVE",
"278 506 CURVE SMOOTH",
"222 506 OFFCURVE",
"178 552 OFFCURVE",
"119 552 CURVE SMOOTH",
"67 552 OFFCURVE",
"32 527 OFFCURVE",
"32 483 CURVE SMOOTH",
"32 434 OFFCURVE",
"76 416 OFFCURVE",
"113 402 CURVE SMOOTH",
"242 352 LINE SMOOTH",
"300 330 OFFCURVE",
"331 291 OFFCURVE",
"331 249 CURVE SMOOTH",
"331 -73 LINE SMOOTH",
"331 -128 OFFCURVE",
"309 -188 OFFCURVE",
"194 -188 CURVE SMOOTH",
"140 -188 OFFCURVE",
"115 -184 OFFCURVE",
"97 -177 CURVE",
"147 -177 OFFCURVE",
"178 -147 OFFCURVE",
"178 -99 CURVE SMOOTH",
"178 -57 OFFCURVE",
"154 -20 OFFCURVE",
"98 -20 CURVE SMOOTH",
"51 -20 OFFCURVE",
"17 -46 OFFCURVE",
"17 -98 CURVE SMOOTH",
"17 -186 OFFCURVE",
"89 -213 OFFCURVE",
"196 -213 CURVE SMOOTH"
);
},
{
closed = 1;
nodes = (
"64 -152 OFFCURVE",
"48 -135 OFFCURVE",
"48 -100 CURVE SMOOTH",
"48 -68 OFFCURVE",
"62 -44 OFFCURVE",
"99 -44 CURVE SMOOTH",
"136 -44 OFFCURVE",
"150 -68 OFFCURVE",
"150 -100 CURVE SMOOTH",
"150 -135 OFFCURVE",
"136 -152 OFFCURVE",
"100 -152 CURVE SMOOTH"
);
}
);
width = 446;
},
{
layerId = "A12FF52C-901E-4F1C-B651-FD65F325A5D0";
paths = (
{
closed = 1;
nodes = (
"361 -228 OFFCURVE",
"423 -164 OFFCURVE",
"423 -61 CURVE SMOOTH",
"423 185 LINE SMOOTH",
"423 270 OFFCURVE",
"371 307 OFFCURVE",
"303 346 CURVE SMOOTH",
"180 416 LINE SMOOTH",
"143 437 OFFCURVE",
"125 446 OFFCURVE",
"125 472 CURVE SMOOTH",
"125 497 OFFCURVE",
"142 509 OFFCURVE",
"164 509 CURVE SMOOTH",
"218 509 OFFCURVE",
"256 436 OFFCURVE",
"340 436 CURVE SMOOTH",
"393 436 OFFCURVE",
"422 465 OFFCURVE",
"422 502 CURVE SMOOTH",
"422 546 OFFCURVE",
"383 557 OFFCURVE",
"331 558 CURVE",
"331 532 OFFCURVE",
"323 512 OFFCURVE",
"292 512 CURVE SMOOTH",
"244 512 OFFCURVE",
"234 558 OFFCURVE",
"150 558 CURVE SMOOTH",
"82 558 OFFCURVE",
"33 528 OFFCURVE",
"33 469 CURVE SMOOTH",
"33 411 OFFCURVE",
"80 395 OFFCURVE",
"140 361 CURVE SMOOTH",
"255 295 LINE SMOOTH",
"309 264 OFFCURVE",
"331 238 OFFCURVE",
"331 170 CURVE SMOOTH",
"331 -61 LINE SMOOTH",
"331 -133 OFFCURVE",
"296 -180 OFFCURVE",
"226 -180 CURVE SMOOTH",
"218 -180 OFFCURVE",
"205 -179 OFFCURVE",
"191 -177 CURVE",
"204 -162 OFFCURVE",
"210 -141 OFFCURVE",
"210 -117 CURVE SMOOTH",
"210 -63 OFFCURVE",
"180 -27 OFFCURVE",
"115 -27 CURVE SMOOTH",
"61 -27 OFFCURVE",
"20 -52 OFFCURVE",
"20 -113 CURVE SMOOTH",
"20 -182 OFFCURVE",
"72 -228 OFFCURVE",
"205 -228 CURVE SMOOTH"
);
},
{
closed = 1;
nodes = (
"83 -164 OFFCURVE",
"68 -145 OFFCURVE",
"68 -115 CURVE SMOOTH",
"68 -85 OFFCURVE",
"83 -66 OFFCURVE",
"117 -66 CURVE SMOOTH",
"149 -66 OFFCURVE",
"163 -84 OFFCURVE",
"163 -114 CURVE SMOOTH",
"163 -145 OFFCURVE",
"148 -164 OFFCURVE",
"116 -164 CURVE SMOOTH"
);
}
);
width = 483;
},
{
layerId = "528596C4-5B9B-4A0D-91B5-66A38EFFCD2C";
paths = (
{
closed = 1;
nodes = (
"468 -281 OFFCURVE",
"543 -208 OFFCURVE",
"543 -110 CURVE SMOOTH",
"543 159 LINE SMOOTH",
"543 224 OFFCURVE",
"525 266 OFFCURVE",
"440 302 CURVE SMOOTH",
"231 391 LINE SMOOTH",
"210 400 OFFCURVE",
"198 420 OFFCURVE",
"198 440 CURVE SMOOTH",
"198 463 OFFCURVE",
"215 485 OFFCURVE",
"245 485 CURVE SMOOTH",
"316 485 OFFCURVE",
"344 365 OFFCURVE",
"462 365 CURVE SMOOTH",
"527 365 OFFCURVE",
"563 402 OFFCURVE",
"563 456 CURVE SMOOTH",
"563 507 OFFCURVE",
"532 562 OFFCURVE",
"437 562 CURVE",
"437 527 OFFCURVE",
"436 491 OFFCURVE",
"393 491 CURVE SMOOTH",
"333 491 OFFCURVE",
"289 562 OFFCURVE",
"175 562 CURVE SMOOTH",
"78 562 OFFCURVE",
"27 511 OFFCURVE",
"27 441 CURVE SMOOTH",
"27 378 OFFCURVE",
"69 341 OFFCURVE",
"124 316 CURVE SMOOTH",
"282 244 LINE SMOOTH",
"336 219 OFFCURVE",
"356 190 OFFCURVE",
"356 146 CURVE SMOOTH",
"356 -119 LINE SMOOTH",
"356 -188 OFFCURVE",
"304 -219 OFFCURVE",
"239 -219 CURVE SMOOTH",
"219 -219 OFFCURVE",
"192 -216 OFFCURVE",
"168 -206 CURVE",
"217 -210 OFFCURVE",
"257 -174 OFFCURVE",
"257 -112 CURVE SMOOTH",
"257 -49 OFFCURVE",
"215 -9 OFFCURVE",
"141 -9 CURVE SMOOTH",
"80 -9 OFFCURVE",
"15 -37 OFFCURVE",
"15 -128 CURVE SMOOTH",
"15 -230 OFFCURVE",
"95 -281 OFFCURVE",
"265 -281 CURVE SMOOTH"
);
},
{
closed = 1;
nodes = (
"118 -162 OFFCURVE",
"103 -144 OFFCURVE",
"103 -113 CURVE SMOOTH",
"103 -82 OFFCURVE",
"118 -64 OFFCURVE",
"151 -64 CURVE SMOOTH",
"184 -64 OFFCURVE",
"198 -82 OFFCURVE",
"198 -113 CURVE SMOOTH",
"198 -144 OFFCURVE",
"184 -162 OFFCURVE",
"151 -162 CURVE SMOOTH"
);
}
);
width = 614;
}
);
note = uni0EBD;
unicode = 0EBD;
},
{
glyphname = "eVowel-lao";
lastChange = "2017-01-30 17:18:59 +0000";
layers = (
{
layerId = "169B4CCF-67AF-4042-AA6F-C8E438F95C30";
paths = (
{
closed = 1;
nodes = (
"203 -10 OFFCURVE",
"234 16 OFFCURVE",
"234 63 CURVE SMOOTH",
"234 111 OFFCURVE",
"203 138 OFFCURVE",
"159 138 CURVE SMOOTH",
"136 138 OFFCURVE",
"118 131 OFFCURVE",
"106 118 CURVE",
"103 119 LINE",
"103 548 LINE",
"93 548 LINE",
"75 527 LINE",
"75 67 LINE SMOOTH",
"75 21 OFFCURVE",
"100 -10 OFFCURVE",
"154 -10 CURVE SMOOTH"
);
},
{
closed = 1;
nodes = (
"122 12 OFFCURVE",
"103 31 OFFCURVE",
"103 64 CURVE SMOOTH",
"103 97 OFFCURVE",
"123 116 OFFCURVE",
"157 116 CURVE SMOOTH",
"190 116 OFFCURVE",
"208 97 OFFCURVE",
"208 65 CURVE SMOOTH",
"208 31 OFFCURVE",
"188 12 OFFCURVE",
"155 12 CURVE SMOOTH"
);
}
);
width = 269;
},
{
layerId = "A12FF52C-901E-4F1C-B651-FD65F325A5D0";
paths = (
{
closed = 1;
nodes = (
"234 -10 OFFCURVE",
"271 24 OFFCURVE",
"271 82 CURVE SMOOTH",
"271 142 OFFCURVE",
"231 175 OFFCURVE",
"181 175 CURVE SMOOTH",
"167 175 OFFCURVE",
"150 172 OFFCURVE",
"144 170 CURVE",
"157 154 LINE",
"157 552 LINE",
"119 552 LINE",
"65 494 LINE",
"65 94 LINE SMOOTH",
"65 26 OFFCURVE",
"110 -10 OFFCURVE",
"173 -10 CURVE SMOOTH"
);
},
{
closed = 1;
nodes = (
"143 29 OFFCURVE",
"127 47 OFFCURVE",
"127 81 CURVE SMOOTH",
"127 115 OFFCURVE",
"143 133 OFFCURVE",
"175 133 CURVE SMOOTH",
"207 133 OFFCURVE",
"223 115 OFFCURVE",
"223 81 CURVE SMOOTH",
"223 47 OFFCURVE",
"207 29 OFFCURVE",
"175 29 CURVE SMOOTH"
);
}
);
width = 296;
},
{
layerId = "528596C4-5B9B-4A0D-91B5-66A38EFFCD2C";
paths = (
{
closed = 1;
nodes = (
"320 -12 OFFCURVE",
"365 29 OFFCURVE",
"365 91 CURVE SMOOTH",
"365 150 OFFCURVE",
"325 184 OFFCURVE",
"274 184 CURVE SMOOTH",
"259 184 OFFCURVE",
"252 181 OFFCURVE",
"247 179 CURVE",
"259 164 LINE",
"259 552 LINE",
"132 552 LINE",
"70 480 LINE",
"70 128 LINE SMOOTH",
"70 40 OFFCURVE",
"118 -12 OFFCURVE",
"225 -12 CURVE SMOOTH"
);
},
{
closed = 1;
nodes = (
"229 42 OFFCURVE",
"214 60 OFFCURVE",
"214 91 CURVE SMOOTH",
"214 122 OFFCURVE",
"229 140 OFFCURVE",
"262 140 CURVE SMOOTH",
"295 140 OFFCURVE",
"310 122 OFFCURVE",
"310 91 CURVE SMOOTH",
"310 60 OFFCURVE",
"295 42 OFFCURVE",
"262 42 CURVE SMOOTH"
);
}
);
width = 385;
}
);
note = uni0EC0;
unicode = 0EC0;
},
{
glyphname = "aeVowel-lao";
lastChange = "2017-01-30 17:18:59 +0000";
layers = (
{
layerId = "169B4CCF-67AF-4042-AA6F-C8E438F95C30";
paths = (
{
closed = 1;
nodes = (
"203 -10 OFFCURVE",
"234 16 OFFCURVE",
"234 63 CURVE SMOOTH",
"234 111 OFFCURVE",
"203 138 OFFCURVE",
"159 138 CURVE SMOOTH",
"136 138 OFFCURVE",
"118 131 OFFCURVE",
"106 118 CURVE",
"103 119 LINE",
"103 548 LINE",
"93 548 LINE",
"75 527 LINE",
"75 67 LINE SMOOTH",
"75 21 OFFCURVE",
"100 -10 OFFCURVE",
"154 -10 CURVE SMOOTH"
);
},
{
closed = 1;
nodes = (
"122 12 OFFCURVE",
"103 31 OFFCURVE",
"103 64 CURVE SMOOTH",
"103 97 OFFCURVE",
"123 116 OFFCURVE",
"157 116 CURVE SMOOTH",
"190 116 OFFCURVE",
"208 97 OFFCURVE",
"208 65 CURVE SMOOTH",
"208 31 OFFCURVE",
"188 12 OFFCURVE",
"155 12 CURVE SMOOTH"
);
},
{
closed = 1;
nodes = (
"446 -10 OFFCURVE",
"477 16 OFFCURVE",
"477 63 CURVE SMOOTH",
"477 111 OFFCURVE",
"446 138 OFFCURVE",
"402 138 CURVE SMOOTH",
"379 138 OFFCURVE",
"361 131 OFFCURVE",
"349 118 CURVE",
"346 119 LINE",
"346 548 LINE",
"336 548 LINE",
"318 527 LINE",
"318 67 LINE SMOOTH",
"318 21 OFFCURVE",
"343 -10 OFFCURVE",
"397 -10 CURVE SMOOTH"
);
},
{
closed = 1;
nodes = (
"365 12 OFFCURVE",
"346 31 OFFCURVE",
"346 64 CURVE SMOOTH",
"346 97 OFFCURVE",
"366 116 OFFCURVE",
"400 116 CURVE SMOOTH",
"433 116 OFFCURVE",
"451 97 OFFCURVE",
"451 65 CURVE SMOOTH",
"451 31 OFFCURVE",
"431 12 OFFCURVE",
"398 12 CURVE SMOOTH"
);
}
);
width = 512;
},
{
layerId = "A12FF52C-901E-4F1C-B651-FD65F325A5D0";
paths = (
{
closed = 1;
nodes = (
"234 -10 OFFCURVE",
"271 24 OFFCURVE",
"271 82 CURVE SMOOTH",
"271 142 OFFCURVE",
"231 175 OFFCURVE",
"181 175 CURVE SMOOTH",
"167 175 OFFCURVE",
"150 172 OFFCURVE",
"144 170 CURVE",
"157 154 LINE",
"157 552 LINE",
"119 552 LINE",
"65 494 LINE",
"65 94 LINE SMOOTH",
"65 26 OFFCURVE",
"110 -10 OFFCURVE",
"173 -10 CURVE SMOOTH"
);
},
{
closed = 1;
nodes = (
"143 29 OFFCURVE",
"127 47 OFFCURVE",
"127 81 CURVE SMOOTH",
"127 115 OFFCURVE",
"143 133 OFFCURVE",
"175 133 CURVE SMOOTH",
"207 133 OFFCURVE",
"223 115 OFFCURVE",
"223 81 CURVE SMOOTH",
"223 47 OFFCURVE",
"207 29 OFFCURVE",
"175 29 CURVE SMOOTH"
);
},
{
closed = 1;
nodes = (
"512 -10 OFFCURVE",
"549 24 OFFCURVE",
"549 82 CURVE SMOOTH",
"549 142 OFFCURVE",
"509 175 OFFCURVE",
"459 175 CURVE SMOOTH",
"445 175 OFFCURVE",
"428 172 OFFCURVE",
"422 170 CURVE",
"435 154 LINE",
"435 552 LINE",
"397 552 LINE",
"343 494 LINE",
"343 94 LINE SMOOTH",
"343 26 OFFCURVE",
"388 -10 OFFCURVE",
"451 -10 CURVE SMOOTH"
);
},
{
closed = 1;
nodes = (
"421 29 OFFCURVE",
"405 47 OFFCURVE",
"405 81 CURVE SMOOTH",
"405 115 OFFCURVE",
"421 133 OFFCURVE",
"453 133 CURVE SMOOTH",
"485 133 OFFCURVE",
"501 115 OFFCURVE",
"501 81 CURVE SMOOTH",
"501 47 OFFCURVE",
"485 29 OFFCURVE",
"453 29 CURVE SMOOTH"
);
}
);
width = 573;
},
{
layerId = "528596C4-5B9B-4A0D-91B5-66A38EFFCD2C";
paths = (
{
closed = 1;
nodes = (
"320 -12 OFFCURVE",
"365 29 OFFCURVE",
"365 91 CURVE SMOOTH",
"365 150 OFFCURVE",
"325 184 OFFCURVE",
"274 184 CURVE SMOOTH",
"259 184 OFFCURVE",
"252 181 OFFCURVE",
"247 179 CURVE",
"259 164 LINE",
"259 552 LINE",
"132 552 LINE",
"70 480 LINE",
"70 128 LINE SMOOTH",
"70 40 OFFCURVE",
"118 -12 OFFCURVE",
"225 -12 CURVE SMOOTH"
);
},
{
closed = 1;
nodes = (
"229 42 OFFCURVE",
"214 60 OFFCURVE",
"214 91 CURVE SMOOTH",
"214 122 OFFCURVE",
"229 140 OFFCURVE",
"262 140 CURVE SMOOTH",
"295 140 OFFCURVE",
"310 122 OFFCURVE",
"310 91 CURVE SMOOTH",
"310 60 OFFCURVE",
"295 42 OFFCURVE",
"262 42 CURVE SMOOTH"
);
},
{
closed = 1;
nodes = (
"651 -12 OFFCURVE",
"696 29 OFFCURVE",
"696 91 CURVE SMOOTH",
"696 150 OFFCURVE",
"656 184 OFFCURVE",
"605 184 CURVE SMOOTH",
"590 184 OFFCURVE",
"583 181 OFFCURVE",
"578 179 CURVE",
"590 164 LINE",
"590 552 LINE",
"463 552 LINE",
"401 480 LINE",
"401 128 LINE SMOOTH",
"401 40 OFFCURVE",
"449 -12 OFFCURVE",
"556 -12 CURVE SMOOTH"
);
},
{
closed = 1;
nodes = (
"560 42 OFFCURVE",
"545 60 OFFCURVE",
"545 91 CURVE SMOOTH",
"545 122 OFFCURVE",
"560 140 OFFCURVE",
"593 140 CURVE SMOOTH",
"626 140 OFFCURVE",
"641 122 OFFCURVE",
"641 91 CURVE SMOOTH",
"641 60 OFFCURVE",
"626 42 OFFCURVE",
"593 42 CURVE SMOOTH"
);
}
);
width = 716;
}
);
note = uni0EC1;
unicode = 0EC1;
},
{
glyphname = "oVowel-lao";
lastChange = "2017-01-30 17:18:59 +0000";
layers = (
{
layerId = "169B4CCF-67AF-4042-AA6F-C8E438F95C30";
paths = (
{
closed = 1;
nodes = (
"281 -10 OFFCURVE",
"312 16 OFFCURVE",
"312 63 CURVE SMOOTH",
"312 111 OFFCURVE",
"281 138 OFFCURVE",
"237 138 CURVE SMOOTH",
"214 138 OFFCURVE",
"196 131 OFFCURVE",
"184 118 CURVE",
"181 119 LINE",
"181 554 LINE SMOOTH",
"181 720 OFFCURVE",
"28 692 OFFCURVE",
"28 781 CURVE SMOOTH",
"28 813 OFFCURVE",
"47 829 OFFCURVE",
"79 829 CURVE SMOOTH",
"145 829 OFFCURVE",
"197 758 OFFCURVE",
"275 758 CURVE SMOOTH",
"332 758 OFFCURVE",
"355 797 OFFCURVE",
"355 829 CURVE SMOOTH",
"355 845 OFFCURVE",
"349 852 OFFCURVE",
"330 852 CURVE",
"330 815 OFFCURVE",
"317 783 OFFCURVE",
"272 783 CURVE SMOOTH",
"204 783 OFFCURVE",
"156 854 OFFCURVE",
"78 854 CURVE SMOOTH",
"26 854 OFFCURVE",
"0 822 OFFCURVE",
"0 779 CURVE SMOOTH",
"0 674 OFFCURVE",
"153 704 OFFCURVE",
"153 558 CURVE SMOOTH",
"153 67 LINE SMOOTH",
"153 21 OFFCURVE",
"178 -10 OFFCURVE",
"232 -10 CURVE SMOOTH"
);
},
{
closed = 1;
nodes = (
"200 12 OFFCURVE",
"181 31 OFFCURVE",
"181 64 CURVE SMOOTH",
"181 97 OFFCURVE",
"201 116 OFFCURVE",
"235 116 CURVE SMOOTH",
"268 116 OFFCURVE",
"286 97 OFFCURVE",
"286 65 CURVE SMOOTH",
"286 31 OFFCURVE",
"266 12 OFFCURVE",
"233 12 CURVE SMOOTH"
);
}
);
width = 343;
},
{
layerId = "A12FF52C-901E-4F1C-B651-FD65F325A5D0";
paths = (
{
closed = 1;
nodes = (
"297 -10 OFFCURVE",
"334 24 OFFCURVE",
"334 82 CURVE SMOOTH",
"334 142 OFFCURVE",
"294 175 OFFCURVE",
"244 175 CURVE SMOOTH",
"230 175 OFFCURVE",
"213 171 OFFCURVE",
"209 169 CURVE",
"220 158 LINE",
"220 564 LINE SMOOTH",
"220 723 OFFCURVE",
"46 704 OFFCURVE",
"46 772 CURVE SMOOTH",
"46 786 OFFCURVE",
"55 794 OFFCURVE",
"76 794 CURVE SMOOTH",
"131 794 OFFCURVE",
"187 719 OFFCURVE",
"257 719 CURVE SMOOTH",
"308 719 OFFCURVE",
"337 758 OFFCURVE",
"337 798 CURVE SMOOTH",
"337 830 OFFCURVE",
"317 849 OFFCURVE",
"274 852 CURVE",
"274 809 OFFCURVE",
"262 787 OFFCURVE",
"236 787 CURVE SMOOTH",
"193 787 OFFCURVE",
"153 854 OFFCURVE",
"73 854 CURVE SMOOTH",
"20 854 OFFCURVE",
"-25 829 OFFCURVE",
"-25 773 CURVE SMOOTH",
"-25 670 OFFCURVE",
"128 686 OFFCURVE",
"128 565 CURVE SMOOTH",
"128 94 LINE SMOOTH",
"128 26 OFFCURVE",
"173 -10 OFFCURVE",
"236 -10 CURVE SMOOTH"
);
},
{
closed = 1;
nodes = (
"206 29 OFFCURVE",
"190 47 OFFCURVE",
"190 81 CURVE SMOOTH",
"190 115 OFFCURVE",
"206 133 OFFCURVE",
"238 133 CURVE SMOOTH",
"270 133 OFFCURVE",
"286 115 OFFCURVE",
"286 81 CURVE SMOOTH",
"286 47 OFFCURVE",
"270 29 OFFCURVE",
"238 29 CURVE SMOOTH"
);
}
);
width = 372;
},
{
layerId = "528596C4-5B9B-4A0D-91B5-66A38EFFCD2C";
paths = (
{
closed = 1;
nodes = (
"430 -12 OFFCURVE",
"475 29 OFFCURVE",
"475 91 CURVE SMOOTH",
"475 150 OFFCURVE",
"436 184 OFFCURVE",
"383 184 CURVE SMOOTH",
"367 184 OFFCURVE",
"359 181 OFFCURVE",
"355 179 CURVE",
"369 162 LINE",
"369 493 LINE SMOOTH",
"369 724 OFFCURVE",
"151 692 OFFCURVE",
"151 769 CURVE SMOOTH",
"151 787 OFFCURVE",
"163 801 OFFCURVE",
"188 801 CURVE SMOOTH",
"251 801 OFFCURVE",
"289 711 OFFCURVE",
"385 711 CURVE SMOOTH",
"449 711 OFFCURVE",
"499 750 OFFCURVE",
"499 806 CURVE SMOOTH",
"499 840 OFFCURVE",
"480 895 OFFCURVE",
"404 895 CURVE",
"395 831 OFFCURVE",
"356 829 OFFCURVE",
"348 829 CURVE SMOOTH",
"303 829 OFFCURVE",
"243 894 OFFCURVE",
"143 894 CURVE SMOOTH",
"66 894 OFFCURVE",
"12 856 OFFCURVE",
"12 780 CURVE SMOOTH",
"12 647 OFFCURVE",
"180 665 OFFCURVE",
"180 517 CURVE SMOOTH",
"180 128 LINE SMOOTH",
"180 40 OFFCURVE",
"228 -12 OFFCURVE",
"335 -12 CURVE SMOOTH"
);
},
{
closed = 1;
nodes = (
"339 42 OFFCURVE",
"324 60 OFFCURVE",
"324 91 CURVE SMOOTH",
"324 122 OFFCURVE",
"339 140 OFFCURVE",
"372 140 CURVE SMOOTH",
"405 140 OFFCURVE",
"420 122 OFFCURVE",
"420 91 CURVE SMOOTH",
"420 60 OFFCURVE",
"405 42 OFFCURVE",
"372 42 CURVE SMOOTH"
);
}
);
width = 510;
}
);
note = uni0EC2;
unicode = 0EC2;
},
{
glyphname = "ayMaiMuanVowel-lao";
lastChange = "2017-01-30 17:18:59 +0000";
layers = (
{
layerId = "169B4CCF-67AF-4042-AA6F-C8E438F95C30";
paths = (
{
closed = 1;
nodes = (
"298 -10 OFFCURVE",
"329 16 OFFCURVE",
"329 63 CURVE SMOOTH",
"329 111 OFFCURVE",
"298 138 OFFCURVE",
"254 138 CURVE SMOOTH",
"231 138 OFFCURVE",
"213 131 OFFCURVE",
"201 118 CURVE",
"198 119 LINE",
"198 459 LINE SMOOTH",
"198 589 OFFCURVE",
"313 636 OFFCURVE",
"313 742 CURVE SMOOTH",
"313 798 OFFCURVE",
"281 858 OFFCURVE",
"171 858 CURVE SMOOTH",
"73 858 OFFCURVE",
"17 811 OFFCURVE",
"17 743 CURVE SMOOTH",
"17 680 OFFCURVE",
"64 655 OFFCURVE",
"105 650 CURVE",
"112 670 LINE",
"70 682 OFFCURVE",
"48 703 OFFCURVE",
"48 741 CURVE SMOOTH",
"48 798 OFFCURVE",
"94 833 OFFCURVE",
"169 833 CURVE SMOOTH",
"246 833 OFFCURVE",
"283 795 OFFCURVE",
"283 738 CURVE SMOOTH",
"283 638 OFFCURVE",
"170 602 OFFCURVE",
"170 451 CURVE SMOOTH",
"170 67 LINE SMOOTH",
"170 21 OFFCURVE",
"195 -10 OFFCURVE",
"249 -10 CURVE SMOOTH"
);
},
{
closed = 1;
nodes = (
"217 12 OFFCURVE",
"198 31 OFFCURVE",
"198 64 CURVE SMOOTH",
"198 97 OFFCURVE",
"218 116 OFFCURVE",
"252 116 CURVE SMOOTH",
"285 116 OFFCURVE",
"303 97 OFFCURVE",
"303 65 CURVE SMOOTH",
"303 31 OFFCURVE",
"283 12 OFFCURVE",
"250 12 CURVE SMOOTH"
);
}
);
width = 359;
},
{
layerId = "A12FF52C-901E-4F1C-B651-FD65F325A5D0";
paths = (
{
closed = 1;
nodes = (
"312 -10 OFFCURVE",
"349 24 OFFCURVE",
"349 82 CURVE SMOOTH",
"349 142 OFFCURVE",
"309 175 OFFCURVE",
"259 175 CURVE SMOOTH",
"245 175 OFFCURVE",
"230 172 OFFCURVE",
"224 170 CURVE",
"235 159 LINE",
"235 472 LINE SMOOTH",
"235 592 OFFCURVE",
"346 629 OFFCURVE",
"346 723 CURVE SMOOTH",
"346 800 OFFCURVE",
"296 858 OFFCURVE",
"166 858 CURVE SMOOTH",
"61 858 OFFCURVE",
"-7 811 OFFCURVE",
"-7 738 CURVE SMOOTH",
"-7 676 OFFCURVE",
"48 642 OFFCURVE",
"102 642 CURVE",
"112 670 LINE",
"85 683 OFFCURVE",
"65 695 OFFCURVE",
"65 738 CURVE SMOOTH",
"65 770 OFFCURVE",
"88 808 OFFCURVE",
"168 808 CURVE SMOOTH",
"235 808 OFFCURVE",
"278 785 OFFCURVE",
"278 726 CURVE SMOOTH",
"278 646 OFFCURVE",
"143 618 OFFCURVE",
"143 463 CURVE SMOOTH",
"143 94 LINE SMOOTH",
"143 26 OFFCURVE",
"188 -10 OFFCURVE",
"251 -10 CURVE SMOOTH"
);
},
{
closed = 1;
nodes = (
"222 29 OFFCURVE",
"206 47 OFFCURVE",
"206 81 CURVE SMOOTH",
"206 115 OFFCURVE",
"222 133 OFFCURVE",
"253 133 CURVE SMOOTH",
"285 133 OFFCURVE",
"301 115 OFFCURVE",
"301 81 CURVE SMOOTH",
"301 47 OFFCURVE",
"285 29 OFFCURVE",
"253 29 CURVE SMOOTH"
);
}
);
width = 391;
},
{
layerId = "528596C4-5B9B-4A0D-91B5-66A38EFFCD2C";
paths = (
{
closed = 1;
nodes = (
"383 -12 OFFCURVE",
"428 29 OFFCURVE",
"428 91 CURVE SMOOTH",
"428 150 OFFCURVE",
"389 184 OFFCURVE",
"336 184 CURVE SMOOTH",
"320 184 OFFCURVE",
"308 181 OFFCURVE",
"300 179 CURVE",
"322 159 LINE",
"322 514 LINE SMOOTH",
"322 627 OFFCURVE",
"428 663 OFFCURVE",
"428 756 CURVE SMOOTH",
"428 832 OFFCURVE",
"357 894 OFFCURVE",
"200 894 CURVE SMOOTH",
"70 894 OFFCURVE",
"-28 852 OFFCURVE",
"-28 770 CURVE SMOOTH",
"-28 693 OFFCURVE",
"60 655 OFFCURVE",
"128 655 CURVE",
"138 694 LINE",
"126 697 OFFCURVE",
"90 715 OFFCURVE",
"90 760 CURVE SMOOTH",
"90 800 OFFCURVE",
"119 833 OFFCURVE",
"182 833 CURVE SMOOTH",
"245 833 OFFCURVE",
"272 799 OFFCURVE",
"272 763 CURVE SMOOTH",
"272 680 OFFCURVE",
"133 656 OFFCURVE",
"133 499 CURVE SMOOTH",
"133 128 LINE SMOOTH",
"133 40 OFFCURVE",
"181 -12 OFFCURVE",
"288 -12 CURVE SMOOTH"
);
},
{
closed = 1;
nodes = (
"292 42 OFFCURVE",
"277 60 OFFCURVE",
"277 91 CURVE SMOOTH",
"277 122 OFFCURVE",
"292 140 OFFCURVE",
"325 140 CURVE SMOOTH",
"358 140 OFFCURVE",
"373 122 OFFCURVE",
"373 91 CURVE SMOOTH",
"373 60 OFFCURVE",
"358 42 OFFCURVE",
"325 42 CURVE SMOOTH"
);
}
);
width = 464;
}
);
note = uni0EC3;
unicode = 0EC3;
},
{
glyphname = "aiMaiMayVowel-lao";
lastChange = "2017-01-30 17:18:59 +0000";
layers = (
{
layerId = "169B4CCF-67AF-4042-AA6F-C8E438F95C30";
paths = (
{
closed = 1;
nodes = (
"248 -10 OFFCURVE",
"279 16 OFFCURVE",
"279 63 CURVE SMOOTH",
"279 111 OFFCURVE",
"248 138 OFFCURVE",
"204 138 CURVE SMOOTH",
"181 138 OFFCURVE",
"163 131 OFFCURVE",
"151 118 CURVE",
"148 119 LINE",
"148 448 LINE SMOOTH",
"148 532 OFFCURVE",
"195 579 OFFCURVE",
"272 623 CURVE",
"272 674 OFFCURVE",
"243 702 OFFCURVE",
"197 702 CURVE SMOOTH",
"166 702 OFFCURVE",
"142 689 OFFCURVE",
"126 674 CURVE",
"116 746 OFFCURVE",
"84 860 OFFCURVE",
"42 860 CURVE SMOOTH",
"32 860 OFFCURVE",
"27 855 OFFCURVE",
"25 846 CURVE",
"37 842 OFFCURVE",
"47 832 OFFCURVE",
"57 817 CURVE SMOOTH",
"84 776 OFFCURVE",
"99 722 OFFCURVE",
"109 649 CURVE",
"130 649 LINE",
"147 667 OFFCURVE",
"168 677 OFFCURVE",
"194 677 CURVE SMOOTH",
"221 677 OFFCURVE",
"245 667 OFFCURVE",
"245 632 CURVE",
"184 600 OFFCURVE",
"120 539 OFFCURVE",
"120 450 CURVE SMOOTH",
"120 67 LINE SMOOTH",
"120 21 OFFCURVE",
"145 -10 OFFCURVE",
"199 -10 CURVE SMOOTH"
);
},
{
closed = 1;
nodes = (
"167 12 OFFCURVE",
"148 31 OFFCURVE",
"148 64 CURVE SMOOTH",
"148 97 OFFCURVE",
"168 116 OFFCURVE",
"202 116 CURVE SMOOTH",
"235 116 OFFCURVE",
"253 97 OFFCURVE",
"253 65 CURVE SMOOTH",
"253 31 OFFCURVE",
"233 12 OFFCURVE",
"200 12 CURVE SMOOTH"
);
}
);
width = 309;
},
{
layerId = "A12FF52C-901E-4F1C-B651-FD65F325A5D0";
paths = (
{
closed = 1;
nodes = (
"262 -10 OFFCURVE",
"299 24 OFFCURVE",
"299 82 CURVE SMOOTH",
"299 142 OFFCURVE",
"259 175 OFFCURVE",
"209 175 CURVE SMOOTH",
"195 175 OFFCURVE",
"179 171 OFFCURVE",
"168 167 CURVE",
"185 152 LINE",
"185 421 LINE SMOOTH",
"185 514 OFFCURVE",
"233 577 OFFCURVE",
"310 615 CURVE",
"310 666 OFFCURVE",
"275 706 OFFCURVE",
"217 706 CURVE SMOOTH",
"184 706 OFFCURVE",
"160 697 OFFCURVE",
"139 686 CURVE",
"133 762 OFFCURVE",
"110 860 OFFCURVE",
"52 860 CURVE SMOOTH",
"27 860 OFFCURVE",
"12 847 OFFCURVE",
"5 833 CURVE",
"17 829 OFFCURVE",
"29 817 OFFCURVE",
"37 804 CURVE SMOOTH",
"60 766 OFFCURVE",
"76 687 OFFCURVE",
"82 616 CURVE",
"113 616 LINE",
"126 634 OFFCURVE",
"151 649 OFFCURVE",
"174 649 CURVE SMOOTH",
"204 649 OFFCURVE",
"218 635 OFFCURVE",
"218 622 CURVE",
"142 584 OFFCURVE",
"93 516 OFFCURVE",
"93 423 CURVE SMOOTH",
"93 94 LINE SMOOTH",
"93 26 OFFCURVE",
"138 -10 OFFCURVE",
"201 -10 CURVE SMOOTH"
);
},
{
closed = 1;
nodes = (
"172 29 OFFCURVE",
"155 47 OFFCURVE",
"155 81 CURVE SMOOTH",
"155 115 OFFCURVE",
"172 133 OFFCURVE",
"203 133 CURVE SMOOTH",
"235 133 OFFCURVE",
"251 115 OFFCURVE",
"251 81 CURVE SMOOTH",
"251 47 OFFCURVE",
"235 29 OFFCURVE",
"203 29 CURVE SMOOTH"
);
}
);
width = 345;
},
{
layerId = "528596C4-5B9B-4A0D-91B5-66A38EFFCD2C";
paths = (
{
closed = 1;
nodes = (
"404 -12 OFFCURVE",
"449 29 OFFCURVE",
"449 91 CURVE SMOOTH",
"449 150 OFFCURVE",
"410 184 OFFCURVE",
"357 184 CURVE SMOOTH",
"341 184 OFFCURVE",
"332 181 OFFCURVE",
"323 178 CURVE",
"343 163 LINE",
"343 478 LINE SMOOTH",
"343 571 OFFCURVE",
"390 634 OFFCURVE",
"467 672 CURVE",
"455 731 OFFCURVE",
"384 787 OFFCURVE",
"299 787 CURVE SMOOTH",
"266 787 OFFCURVE",
"232 778 OFFCURVE",
"198 759 CURVE",
"188 852 OFFCURVE",
"172 916 OFFCURVE",
"78 916 CURVE SMOOTH",
"46 916 OFFCURVE",
"9 908 OFFCURVE",
"-1 890 CURVE",
"8 887 OFFCURVE",
"16 879 OFFCURVE",
"24 866 CURVE SMOOTH",
"51 822 OFFCURVE",
"67 741 OFFCURVE",
"76 643 CURVE",
"168 643 LINE",
"173 677 OFFCURVE",
"213 692 OFFCURVE",
"242 692 CURVE SMOOTH",
"258 692 OFFCURVE",
"273 687 OFFCURVE",
"279 679 CURVE",
"203 641 OFFCURVE",
"154 573 OFFCURVE",
"154 480 CURVE SMOOTH",
"154 128 LINE SMOOTH",
"154 40 OFFCURVE",
"202 -12 OFFCURVE",
"309 -12 CURVE SMOOTH"
);
},
{
closed = 1;
nodes = (
"313 42 OFFCURVE",
"298 60 OFFCURVE",
"298 91 CURVE SMOOTH",
"298 122 OFFCURVE",
"313 140 OFFCURVE",
"346 140 CURVE SMOOTH",
"379 140 OFFCURVE",
"394 122 OFFCURVE",
"394 91 CURVE SMOOTH",
"394 60 OFFCURVE",
"379 42 OFFCURVE",
"346 42 CURVE SMOOTH"
);
}
);
width = 484;
}
);
note = uni0EC4;
unicode = 0EC4;
},
{
glyphname = "amVowel-lao.narrow";
lastChange = "2017-01-30 17:18:59 +0000";
layers = (
{
anchors = (
{
name = top;
position = "{-301, 758}";
}
);
layerId = "169B4CCF-67AF-4042-AA6F-C8E438F95C30";
paths = (
{
closed = 1;
nodes = (
"333 -4 LINE",
"353 21 LINE",
"353 379 LINE SMOOTH",
"353 489 OFFCURVE",
"310 552 OFFCURVE",
"201 552 CURVE SMOOTH",
"81 552 OFFCURVE",
"35 475 OFFCURVE",
"35 409 CURVE SMOOTH",
"35 398 LINE SMOOTH",
"35 345 OFFCURVE",
"68 317 OFFCURVE",
"115 317 CURVE SMOOTH",
"168 317 OFFCURVE",
"192 353 OFFCURVE",
"192 394 CURVE SMOOTH",
"192 441 OFFCURVE",
"161 468 OFFCURVE",
"121 468 CURVE SMOOTH",
"102 468 OFFCURVE",
"81 462 OFFCURVE",
"71 457 CURVE",
"70 458 LINE",
"93 503 OFFCURVE",
"135 527 OFFCURVE",
"199 527 CURVE SMOOTH",
"294 527 OFFCURVE",
"325 475 OFFCURVE",
"325 381 CURVE SMOOTH",
"325 -4 LINE"
);
},
{
closed = 1;
nodes = (
"78 340 OFFCURVE",
"62 365 OFFCURVE",
"62 397 CURVE SMOOTH",
"62 429 OFFCURVE",
"78 446 OFFCURVE",
"113 446 CURVE SMOOTH",
"147 446 OFFCURVE",
"165 430 OFFCURVE",
"165 395 CURVE SMOOTH",
"165 364 OFFCURVE",
"151 340 OFFCURVE",
"115 340 CURVE SMOOTH"
);
},
{
closed = 1;
nodes = (
"-249 621 OFFCURVE",
"-213 652 OFFCURVE",
"-213 704 CURVE SMOOTH",
"-213 756 OFFCURVE",
"-249 785 OFFCURVE",
"-301 785 CURVE SMOOTH",
"-353 785 OFFCURVE",
"-389 756 OFFCURVE",
"-389 704 CURVE SMOOTH",
"-389 652 OFFCURVE",
"-353 621 OFFCURVE",
"-301 621 CURVE SMOOTH"
);
},
{
closed = 1;
nodes = (
"-341 645 OFFCURVE",
"-361 666 OFFCURVE",
"-361 704 CURVE SMOOTH",
"-361 743 OFFCURVE",
"-341 763 OFFCURVE",
"-301 763 CURVE SMOOTH",
"-261 763 OFFCURVE",
"-241 743 OFFCURVE",
"-241 704 CURVE SMOOTH",
"-241 666 OFFCURVE",
"-261 645 OFFCURVE",
"-301 645 CURVE SMOOTH"
);
}
);
width = 428;
},
{
anchors = (
{
name = top;
position = "{-338, 768}";
}
);
layerId = "A12FF52C-901E-4F1C-B651-FD65F325A5D0";
paths = (
{
closed = 1;
nodes = (
"304 -6 LINE",
"358 52 LINE",
"358 410 LINE SMOOTH",
"358 509 OFFCURVE",
"295 558 OFFCURVE",
"196 558 CURVE SMOOTH",
"85 558 OFFCURVE",
"35 497 OFFCURVE",
"35 425 CURVE SMOOTH",
"35 416 LINE SMOOTH",
"35 360 OFFCURVE",
"73 320 OFFCURVE",
"131 320 CURVE SMOOTH",
"185 320 OFFCURVE",
"219 355 OFFCURVE",
"219 401 CURVE SMOOTH",
"219 447 OFFCURVE",
"186 477 OFFCURVE",
"141 477 CURVE SMOOTH",
"120 477 OFFCURVE",
"99 470 OFFCURVE",
"87 460 CURVE",
"83 463 LINE",
"94 490 OFFCURVE",
"125 517 OFFCURVE",
"177 517 CURVE SMOOTH",
"246 517 OFFCURVE",
"266 469 OFFCURVE",
"266 413 CURVE SMOOTH",
"266 -6 LINE"
);
},
{
closed = 1;
nodes = (
"113 358 OFFCURVE",
"97 375 OFFCURVE",
"97 398 CURVE SMOOTH",
"97 422 OFFCURVE",
"113 438 OFFCURVE",
"137 438 CURVE SMOOTH",
"161 438 OFFCURVE",
"177 422 OFFCURVE",
"177 398 CURVE SMOOTH",
"177 375 OFFCURVE",
"161 358 OFFCURVE",
"137 358 CURVE SMOOTH"
);
},
{
closed = 1;
nodes = (
"-275 621 OFFCURVE",
"-230 652 OFFCURVE",
"-230 714 CURVE SMOOTH",
"-230 776 OFFCURVE",
"-275 807 OFFCURVE",
"-337 807 CURVE SMOOTH",
"-399 807 OFFCURVE",
"-444 776 OFFCURVE",
"-444 714 CURVE SMOOTH",
"-444 652 OFFCURVE",
"-399 621 OFFCURVE",
"-337 621 CURVE SMOOTH"
);
},
{
closed = 1;
nodes = (
"-374 661 OFFCURVE",
"-382 686 OFFCURVE",
"-382 714 CURVE SMOOTH",
"-382 742 OFFCURVE",
"-374 767 OFFCURVE",
"-337 767 CURVE SMOOTH",
"-300 767 OFFCURVE",
"-292 742 OFFCURVE",
"-292 714 CURVE SMOOTH",
"-292 686 OFFCURVE",
"-300 661 OFFCURVE",
"-337 661 CURVE SMOOTH"
);
}
);
width = 423;
},
{
anchors = (
{
name = top;
position = "{-449, 806}";
}
);
layerId = "528596C4-5B9B-4A0D-91B5-66A38EFFCD2C";
paths = (
{
closed = 1;
nodes = (
"433 -6 LINE",
"495 66 LINE",
"495 410 LINE SMOOTH",
"495 487 OFFCURVE",
"438 562 OFFCURVE",
"248 562 CURVE SMOOTH",
"92 562 OFFCURVE",
"25 512 OFFCURVE",
"25 401 CURVE SMOOTH",
"25 391 LINE SMOOTH",
"25 303 OFFCURVE",
"79 275 OFFCURVE",
"140 275 CURVE SMOOTH",
"214 275 OFFCURVE",
"244 317 OFFCURVE",
"244 374 CURVE SMOOTH",
"244 444 OFFCURVE",
"200 473 OFFCURVE",
"155 473 CURVE SMOOTH",
"147 473 OFFCURVE",
"135 472 OFFCURVE",
"126 467 CURVE",
"124 470 LINE",
"144 497 OFFCURVE",
"176 508 OFFCURVE",
"214 508 CURVE SMOOTH",
"297 508 OFFCURVE",
"306 457 OFFCURVE",
"306 414 CURVE SMOOTH",
"306 -6 LINE"
);
},
{
closed = 1;
nodes = (
"106 329 OFFCURVE",
"91 347 OFFCURVE",
"91 378 CURVE SMOOTH",
"91 409 OFFCURVE",
"106 427 OFFCURVE",
"139 427 CURVE SMOOTH",
"172 427 OFFCURVE",
"187 409 OFFCURVE",
"187 378 CURVE SMOOTH",
"187 347 OFFCURVE",
"172 329 OFFCURVE",
"139 329 CURVE SMOOTH"
);
},
{
closed = 1;
nodes = (
"-327 631 OFFCURVE",
"-281 671 OFFCURVE",
"-281 731 CURVE SMOOTH",
"-281 791 OFFCURVE",
"-327 831 OFFCURVE",
"-449 831 CURVE SMOOTH",
"-570 831 OFFCURVE",
"-616 791 OFFCURVE",
"-616 731 CURVE SMOOTH",
"-616 671 OFFCURVE",
"-570 631 OFFCURVE",
"-449 631 CURVE SMOOTH"
);
},
{
closed = 1;
nodes = (
"-475 676 OFFCURVE",
"-495 695 OFFCURVE",
"-495 731 CURVE SMOOTH",
"-495 767 OFFCURVE",
"-475 786 OFFCURVE",
"-449 786 CURVE SMOOTH",
"-422 786 OFFCURVE",
"-402 767 OFFCURVE",
"-402 731 CURVE SMOOTH",
"-402 695 OFFCURVE",
"-422 676 OFFCURVE",
"-449 676 CURVE SMOOTH"
);
}
);
width = 561;
}
);
note = uni0EB3;
},
{
glyphname = "hoNo-lao";
lastChange = "2017-01-30 17:18:59 +0000";
layers = (
{
anchors = (
{
name = bottom;
position = "{820, 0}";
},
{
name = top;
position = "{677, 538}";
}
);
layerId = "169B4CCF-67AF-4042-AA6F-C8E438F95C30";
paths = (
{
closed = 1;
nodes = (
"371 -10 OFFCURVE",
"406 47 OFFCURVE",
"406 128 CURVE SMOOTH",
"406 468 LINE SMOOTH",
"406 529 OFFCURVE",
"375 552 OFFCURVE",
"331 552 CURVE SMOOTH",
"287 552 OFFCURVE",
"257 527 OFFCURVE",
"257 485 CURVE SMOOTH",
"257 445 OFFCURVE",
"284 418 OFFCURVE",
"323 418 CURVE SMOOTH",
"343 418 OFFCURVE",
"363 425 OFFCURVE",
"375 438 CURVE",
"378 437 LINE",
"378 126 LINE SMOOTH",
"378 60 OFFCURVE",
"350 15 OFFCURVE",
"284 15 CURVE SMOOTH",
"221 15 OFFCURVE",
"194 57 OFFCURVE",
"194 126 CURVE SMOOTH",
"194 478 LINE SMOOTH",
"194 524 OFFCURVE",
"164 552 OFFCURVE",
"114 552 CURVE SMOOTH",
"66 552 OFFCURVE",
"35 526 OFFCURVE",
"35 479 CURVE SMOOTH",
"35 431 OFFCURVE",
"67 404 OFFCURVE",
"112 404 CURVE SMOOTH",
"133 404 OFFCURVE",
"151 410 OFFCURVE",
"163 424 CURVE",
"166 423 LINE",
"166 128 LINE SMOOTH",
"166 43 OFFCURVE",
"203 -10 OFFCURVE",
"285 -10 CURVE SMOOTH"
);
},
{
closed = 1;
nodes = (
"80 426 OFFCURVE",
"61 445 OFFCURVE",
"61 478 CURVE SMOOTH",
"61 511 OFFCURVE",
"81 530 OFFCURVE",
"114 530 CURVE SMOOTH",
"147 530 OFFCURVE",
"166 511 OFFCURVE",
"166 478 CURVE SMOOTH",
"166 445 OFFCURVE",
"147 426 OFFCURVE",
"113 426 CURVE SMOOTH"
);
},
{
closed = 1;
nodes = (
"297 440 OFFCURVE",
"283 460 OFFCURVE",
"283 485 CURVE SMOOTH",
"283 509 OFFCURVE",
"295 530 OFFCURVE",
"332 530 CURVE SMOOTH",
"366 530 OFFCURVE",
"378 506 OFFCURVE",
"378 476 CURVE SMOOTH",
"378 466 LINE",
"361 448 OFFCURVE",
"344 440 OFFCURVE",
"326 440 CURVE SMOOTH"
);
},
{
closed = 1;
nodes = (
"593 -9 OFFCURVE",
"618 36 OFFCURVE",
"618 123 CURVE SMOOTH",
"618 438 LINE SMOOTH",
"618 510 OFFCURVE",
"594 552 OFFCURVE",
"527 552 CURVE SMOOTH",
"480 552 OFFCURVE",
"442 531 OFFCURVE",
"395 481 CURVE",
"400 454 LINE",
"447 507 OFFCURVE",
"488 527 OFFCURVE",
"527 527 CURVE SMOOTH",
"572 527 OFFCURVE",
"590 500 OFFCURVE",
"590 440 CURVE SMOOTH",
"590 96 LINE SMOOTH",
"590 42 OFFCURVE",
"564 15 OFFCURVE",
"501 15 CURVE",
"501 -9 LINE"
);
},
{
closed = 1;
nodes = (
"801 -10 OFFCURVE",
"830 24 OFFCURVE",
"830 111 CURVE SMOOTH",
"830 548 LINE",
"820 548 LINE",
"802 527 LINE",
"802 109 LINE SMOOTH",
"802 33 OFFCURVE",
"782 14 OFFCURVE",
"740 14 CURVE SMOOTH",
"691 14 OFFCURVE",
"651 41 OFFCURVE",
"612 109 CURVE",
"606 87 LINE",
"637 23 OFFCURVE",
"685 -10 OFFCURVE",
"743 -10 CURVE SMOOTH"
);
}
);
width = 905;
},
{
anchors = (
{
name = bottom;
position = "{909, 0}";
},
{
name = top;
position = "{708, 536}";
}
);
layerId = "A12FF52C-901E-4F1C-B651-FD65F325A5D0";
paths = (
{
closed = 1;
nodes = (
"410 -10 OFFCURVE",
"455 46 OFFCURVE",
"455 120 CURVE SMOOTH",
"455 461 LINE SMOOTH",
"455 524 OFFCURVE",
"426 558 OFFCURVE",
"360 558 CURVE SMOOTH",
"306 558 OFFCURVE",
"276 526 OFFCURVE",
"276 482 CURVE SMOOTH",
"276 443 OFFCURVE",
"300 412 OFFCURVE",
"344 412 CURVE SMOOTH",
"364 412 OFFCURVE",
"379 419 OFFCURVE",
"386 426 CURVE",
"376 446 LINE",
"376 112 LINE SMOOTH",
"376 64 OFFCURVE",
"348 39 OFFCURVE",
"303 39 CURVE SMOOTH",
"259 39 OFFCURVE",
"230 64 OFFCURVE",
"230 112 CURVE SMOOTH",
"230 454 LINE SMOOTH",
"230 522 OFFCURVE",
"185 558 OFFCURVE",
"122 558 CURVE SMOOTH",
"61 558 OFFCURVE",
"25 524 OFFCURVE",
"25 467 CURVE SMOOTH",
"25 406 OFFCURVE",
"65 374 OFFCURVE",
"114 374 CURVE SMOOTH",
"130 374 OFFCURVE",
"145 377 OFFCURVE",
"145 378 CURVE",
"138 403 LINE",
"138 120 LINE SMOOTH",
"138 46 OFFCURVE",
"186 -10 OFFCURVE",
"298 -10 CURVE SMOOTH"
);
},
{
closed = 1;
nodes = (
"89 416 OFFCURVE",
"73 433 OFFCURVE",
"73 467 CURVE SMOOTH",
"73 501 OFFCURVE",
"89 519 OFFCURVE",
"120 519 CURVE SMOOTH",
"152 519 OFFCURVE",
"168 501 OFFCURVE",
"168 467 CURVE SMOOTH",
"168 433 OFFCURVE",
"152 416 OFFCURVE",
"120 416 CURVE SMOOTH"
);
},
{
closed = 1;
nodes = (
"326 447 OFFCURVE",
"313 461 OFFCURVE",
"313 484 CURVE SMOOTH",
"313 507 OFFCURVE",
"326 519 OFFCURVE",
"350 519 CURVE SMOOTH",
"376 519 OFFCURVE",
"385 504 OFFCURVE",
"385 467 CURVE SMOOTH",
"385 460 LINE",
"373 451 OFFCURVE",
"360 447 OFFCURVE",
"348 447 CURVE SMOOTH"
);
},
{
closed = 1;
nodes = (
"634 -10 OFFCURVE",
"681 50 OFFCURVE",
"681 150 CURVE SMOOTH",
"681 438 LINE SMOOTH",
"681 502 OFFCURVE",
"655 558 OFFCURVE",
"564 558 CURVE SMOOTH",
"505 558 OFFCURVE",
"464 535 OFFCURVE",
"436 510 CURVE",
"445 472 LINE",
"468 493 OFFCURVE",
"500 509 OFFCURVE",
"535 509 CURVE SMOOTH",
"581 509 OFFCURVE",
"602 482 OFFCURVE",
"602 440 CURVE SMOOTH",
"602 150 LINE SMOOTH",
"602 69 OFFCURVE",
"578 41 OFFCURVE",
"533 41 CURVE",
"533 -10 LINE"
);
},
{
closed = 1;
nodes = (
"879 -10 OFFCURVE",
"919 51 OFFCURVE",
"919 110 CURVE SMOOTH",
"919 552 LINE",
"881 552 LINE",
"827 494 LINE",
"827 108 LINE SMOOTH",
"827 75 OFFCURVE",
"812 39 OFFCURVE",
"764 39 CURVE SMOOTH",
"731 39 OFFCURVE",
"685 56 OFFCURVE",
"666 92 CURVE",
"645 57 LINE",
"689 0 OFFCURVE",
"736 -10 OFFCURVE",
"778 -10 CURVE SMOOTH"
);
}
);
width = 984;
},
{
anchors = (
{
name = bottom;
position = "{1099, 0}";
},
{
name = top;
position = "{862, 536}";
}
);
layerId = "528596C4-5B9B-4A0D-91B5-66A38EFFCD2C";
paths = (
{
closed = 1;
nodes = (
"438 -12 OFFCURVE",
"543 14 OFFCURVE",
"543 117 CURVE SMOOTH",
"543 457 LINE SMOOTH",
"543 519 OFFCURVE",
"495 562 OFFCURVE",
"420 562 CURVE SMOOTH",
"353 562 OFFCURVE",
"313 527 OFFCURVE",
"313 476 CURVE SMOOTH",
"313 436 OFFCURVE",
"338 401 OFFCURVE",
"387 401 CURVE SMOOTH",
"408 401 OFFCURVE",
"421 407 OFFCURVE",
"439 420 CURVE",
"424 437 LINE",
"424 100 LINE SMOOTH",
"424 69 OFFCURVE",
"399 51 OFFCURVE",
"356 51 CURVE SMOOTH",
"313 51 OFFCURVE",
"287 68 OFFCURVE",
"287 96 CURVE SMOOTH",
"287 425 LINE SMOOTH",
"287 513 OFFCURVE",
"237 562 OFFCURVE",
"145 562 CURVE SMOOTH",
"66 562 OFFCURVE",
"20 525 OFFCURVE",
"20 458 CURVE SMOOTH",
"20 392 OFFCURVE",
"64 365 OFFCURVE",
"101 365 CURVE SMOOTH",
"105 365 OFFCURVE",
"114 365 OFFCURVE",
"118 365 CURVE",
"98 387 LINE",
"98 119 LINE SMOOTH",
"98 23 OFFCURVE",
"202 -12 OFFCURVE",
"329 -12 CURVE SMOOTH"
);
},
{
closed = 1;
nodes = (
"90 410 OFFCURVE",
"76 428 OFFCURVE",
"76 459 CURVE SMOOTH",
"76 490 OFFCURVE",
"90 508 OFFCURVE",
"123 508 CURVE SMOOTH",
"156 508 OFFCURVE",
"171 490 OFFCURVE",
"171 459 CURVE SMOOTH",
"171 428 OFFCURVE",
"156 410 OFFCURVE",
"123 410 CURVE SMOOTH"
);
},
{
closed = 1;
nodes = (
"372 441 OFFCURVE",
"359 454 OFFCURVE",
"359 476 CURVE SMOOTH",
"359 494 OFFCURVE",
"368 508 OFFCURVE",
"388 508 CURVE SMOOTH",
"409 508 OFFCURVE",
"429 492 OFFCURVE",
"429 459 CURVE SMOOTH",
"429 454 LINE",
"417 446 OFFCURVE",
"405 441 OFFCURVE",
"392 441 CURVE SMOOTH"
);
},
{
closed = 1;
nodes = (
"717 -8 OFFCURVE",
"786 35 OFFCURVE",
"786 141 CURVE SMOOTH",
"786 409 LINE SMOOTH",
"786 522 OFFCURVE",
"741 562 OFFCURVE",
"655 562 CURVE SMOOTH",
"579 562 OFFCURVE",
"513 530 OFFCURVE",
"488 481 CURVE",
"499 425 LINE",
"509 448 OFFCURVE",
"549 499 OFFCURVE",
"605 499 CURVE SMOOTH",
"641 499 OFFCURVE",
"667 478 OFFCURVE",
"667 422 CURVE SMOOTH",
"667 140 LINE SMOOTH",
"667 79 OFFCURVE",
"659 52 OFFCURVE",
"604 52 CURVE",
"604 -8 LINE"
);
},
{
closed = 1;
nodes = (
"1017 -6 OFFCURVE",
"1109 40 OFFCURVE",
"1109 158 CURVE SMOOTH",
"1109 562 LINE",
"982 562 LINE",
"920 490 LINE",
"920 165 LINE SMOOTH",
"920 87 OFFCURVE",
"899 62 OFFCURVE",
"864 62 CURVE SMOOTH",
"817 62 OFFCURVE",
"785 109 OFFCURVE",
"774 136 CURVE",
"763 75 LINE",
"790 24 OFFCURVE",
"838 -6 OFFCURVE",
"918 -6 CURVE SMOOTH"
);
}
);
width = 1175;
}
);
note = uni0EDC;
unicode = 0EDC;
},
